{"glyphs":{"0":{"ha":867,"x_min":64,"x_max":808,"o":"m 379 -11 q 142 81 219 -11 q 64 314 64 174 q 120 557 64 449 q 274 726 176 665 q 494 788 372 788 q 731 697 654 788 q 808 463 808 606 q 753 222 808 331 q 599 51 697 114 q 379 -11 501 -11 m 393 60 q 521 122 471 60 q 592 275 571 183 q 614 463 614 367 q 581 649 614 579 q 475 718 549 718 q 347 655 396 718 q 276 500 297 592 q 256 315 256 408 q 288 131 256 201 q 393 60 321 60 z "},"1":{"ha":628,"x_min":54,"x_max":546,"o":"m 206 82 l 282 619 l 253 611 q 107 576 175 589 l 96 651 q 253 708 163 667 q 401 788 343 749 l 490 767 l 393 82 l 546 64 l 539 0 l 54 0 l 61 64 l 206 82 z "},"2":{"ha":833,"x_min":29,"x_max":771,"o":"m 29 64 q 272 224 163 133 q 447 415 382 315 q 511 610 511 515 q 474 722 511 681 q 372 764 438 764 q 233 732 301 764 q 129 665 165 700 l 86 740 q 160 799 111 768 q 280 854 210 831 q 429 878 350 878 q 592 838 529 878 q 681 738 654 797 q 708 619 708 679 q 634 426 708 528 q 447 236 560 325 q 217 90 333 147 l 613 118 l 686 249 l 771 221 l 707 0 l 47 0 l 29 64 z "},"3":{"ha":744,"x_min":-4,"x_max":654,"o":"m 142 -222 q -4 -204 90 -222 l 19 -115 q 108 -125 58 -125 q 296 -87 215 -125 q 419 13 376 -49 q 461 144 461 75 q 411 265 461 215 q 258 308 361 315 l 171 283 l 183 372 q 386 469 308 400 q 464 626 464 539 q 435 719 464 681 q 346 757 407 757 q 225 735 279 757 q 121 674 171 714 l 86 746 q 220 833 129 792 q 413 875 311 875 q 588 819 525 875 q 651 665 651 763 q 578 494 651 578 q 404 371 504 411 q 432 372 414 372 q 597 310 539 372 q 654 157 654 247 q 582 -35 654 51 q 392 -172 510 -122 q 142 -222 274 -222 z "},"4":{"ha":854,"x_min":-10,"x_max":785,"o":"m 449 0 l 26 0 l -10 56 q 231 447 88 179 q 451 907 375 714 l 475 907 l 646 829 q 435 472 557 671 q 239 178 314 272 q 179 107 232 169 l 153 76 l 464 97 l 496 344 l 672 392 l 640 110 l 785 119 l 769 0 l 621 0 l 589 -254 l 415 -254 l 449 0 z "},"5":{"ha":763,"x_min":64,"x_max":754,"o":"m 78 -108 q 147 -118 117 -118 q 335 -78 254 -118 q 458 28 415 -37 q 501 167 501 94 q 456 304 501 251 q 324 357 411 357 q 156 315 246 357 l 119 343 l 229 863 l 643 863 l 658 879 l 754 879 l 718 735 l 361 736 l 283 419 q 358 447 307 435 q 449 460 408 460 q 638 386 572 460 q 704 203 704 313 q 633 -10 704 83 q 444 -154 563 -103 q 188 -206 326 -206 q 121 -201 161 -206 q 64 -192 81 -196 l 78 -108 z "},"6":{"ha":829,"x_min":72,"x_max":760,"o":"m 389 -14 q 224 31 296 -14 q 112 155 151 76 q 72 332 72 233 q 150 651 72 499 q 363 913 228 804 q 667 1065 499 1022 l 697 989 q 521 894 606 960 q 376 745 436 829 q 290 579 315 661 q 377 644 324 618 q 506 671 431 671 q 692 598 625 671 q 760 411 760 525 q 712 202 760 300 q 578 45 664 104 q 389 -14 493 -14 m 394 68 q 497 115 456 68 q 559 232 539 161 q 579 375 579 303 q 542 518 579 471 q 447 565 506 565 q 342 535 385 565 q 271 465 299 504 q 253 283 253 371 q 394 68 253 68 z "},"7":{"ha":743,"x_min":54,"x_max":754,"o":"m 235 667 l 174 510 l 54 511 l 103 778 l 733 778 l 754 746 l 353 -242 l 178 -186 l 603 667 l 235 667 z "},"8":{"ha":840,"x_min":67,"x_max":794,"o":"m 67 233 q 139 405 67 326 q 324 529 211 483 q 220 644 260 585 q 181 774 181 703 q 224 913 181 850 q 343 1010 267 975 q 517 1046 419 1046 q 725 994 656 1046 q 794 844 794 942 q 731 684 794 760 q 565 557 668 608 q 703 428 650 496 q 756 281 756 360 q 701 126 756 193 q 560 22 647 58 q 376 -14 472 -14 q 156 47 246 -14 q 67 233 67 107 m 492 613 q 601 703 560 647 q 643 836 643 760 q 606 941 643 906 q 513 976 569 976 q 392 931 438 976 q 347 811 347 886 q 384 710 347 756 q 492 613 421 664 m 236 238 q 278 115 236 165 q 399 64 319 64 q 528 114 475 64 q 581 246 581 164 q 562 323 581 289 q 513 384 543 357 q 424 454 482 411 l 397 474 q 281 376 326 435 q 236 238 236 317 z "},"9":{"ha":846,"x_min":85,"x_max":771,"o":"m 456 788 q 621 747 550 788 q 731 631 692 707 q 771 450 771 554 q 692 127 771 282 q 477 -138 614 -28 q 172 -292 340 -249 l 143 -215 q 322 -121 236 -185 q 469 26 407 -57 q 556 196 531 110 q 466 129 521 156 q 339 103 411 103 q 201 142 258 103 q 115 250 144 182 q 85 403 85 318 q 132 590 85 501 q 264 733 179 679 q 456 788 349 788 m 449 706 q 346 665 388 706 q 284 564 304 625 q 264 439 264 503 q 301 266 264 322 q 397 210 339 210 q 572 308 500 210 q 592 471 592 393 q 449 706 592 706 z "},"\u0000":{"ha":0,"x_min":0,"x_max":0,"o":""},"\r":{"ha":329,"x_min":0,"x_max":0,"o":""}," ":{"ha":329,"x_min":0,"x_max":0,"o":""},"A":{"ha":914,"x_min":-101,"x_max":929,"o":"m 649 1033 l 819 85 l 929 64 l 925 0 l 499 0 l 501 64 l 615 82 l 582 292 l 231 292 l 138 83 l 264 64 l 260 0 l -101 0 l -96 64 l -1 82 l 456 1033 l 649 1033 m 269 382 l 569 382 l 508 792 l 501 906 l 269 382 z "},"Á":{"ha":914,"x_min":-101,"x_max":929,"o":"m 649 1033 l 819 85 l 929 64 l 925 0 l 499 0 l 501 64 l 615 82 l 582 292 l 231 292 l 138 83 l 264 64 l 260 0 l -101 0 l -96 64 l -1 82 l 456 1033 l 649 1033 m 269 382 l 569 382 l 508 792 l 501 906 l 269 382 m 686 1365 l 790 1278 q 679 1183 760 1236 q 547 1110 599 1129 l 474 1158 l 686 1365 z "},"Ă":{"ha":914,"x_min":-101,"x_max":929,"o":"m 649 1033 l 819 85 l 929 64 l 925 0 l 499 0 l 501 64 l 615 82 l 582 292 l 231 292 l 138 83 l 264 64 l 260 0 l -101 0 l -96 64 l -1 82 l 456 1033 l 649 1033 m 269 382 l 569 382 l 508 792 l 501 906 l 269 382 m 568 1107 q 406 1169 451 1107 q 361 1318 361 1231 q 364 1358 361 1346 l 467 1358 q 488 1266 468 1299 q 571 1233 507 1233 q 667 1271 639 1233 q 700 1358 696 1308 l 800 1358 q 771 1231 800 1289 q 689 1140 742 1174 q 568 1107 636 1107 z "},"Ắ":{"ha":914,"x_min":-101,"x_max":929,"o":"m 649 1033 l 819 85 l 929 64 l 925 0 l 499 0 l 501 64 l 615 82 l 582 292 l 231 292 l 138 83 l 264 64 l 260 0 l -101 0 l -96 64 l -1 82 l 456 1033 l 649 1033 m 269 382 l 569 382 l 508 792 l 501 906 l 269 382 m 496 1222 l 631 1365 l 722 1290 q 656 1226 700 1260 q 556 1163 611 1192 l 496 1222 m 556 1008 q 405 1044 458 1008 q 354 1140 351 1079 q 356 1161 354 1146 q 360 1183 357 1176 l 439 1183 l 439 1168 q 467 1129 438 1146 q 557 1113 497 1113 q 650 1129 617 1113 q 685 1167 683 1146 q 685 1183 686 1178 l 763 1183 q 763 1163 763 1178 q 763 1142 764 1149 q 708 1043 760 1078 q 556 1008 656 1008 z "},"Ặ":{"ha":914,"x_min":-101,"x_max":929,"o":"m 649 1033 l 819 85 l 929 64 l 925 0 l 499 0 l 501 64 l 615 82 l 582 292 l 231 292 l 138 83 l 264 64 l 260 0 l -101 0 l -96 64 l -1 82 l 456 1033 l 649 1033 m 269 382 l 569 382 l 508 792 l 501 906 l 269 382 m 343 -329 q 277 -301 301 -329 q 253 -231 253 -274 q 287 -144 253 -179 q 372 -110 321 -110 q 442 -135 418 -110 q 465 -204 465 -161 q 433 -293 465 -257 q 343 -329 400 -329 m 568 1107 q 406 1169 451 1107 q 361 1318 361 1231 q 364 1358 361 1346 l 467 1358 q 488 1266 468 1299 q 571 1233 507 1233 q 667 1271 639 1233 q 700 1358 696 1308 l 800 1358 q 771 1231 800 1289 q 689 1140 742 1174 q 568 1107 636 1107 z "},"Ằ":{"ha":914,"x_min":-101,"x_max":929,"o":"m 649 1033 l 819 85 l 929 64 l 925 0 l 499 0 l 501 64 l 615 82 l 582 292 l 231 292 l 138 83 l 264 64 l 260 0 l -101 0 l -96 64 l -1 82 l 456 1033 l 649 1033 m 269 382 l 569 382 l 508 792 l 501 906 l 269 382 m 583 1154 q 498 1218 533 1185 q 446 1283 463 1251 l 549 1360 l 656 1218 l 583 1154 m 546 1008 q 408 1039 457 1008 q 358 1124 358 1069 q 360 1140 358 1135 q 369 1183 364 1171 l 449 1183 q 448 1176 449 1181 q 447 1164 447 1172 q 476 1128 447 1143 q 561 1113 504 1113 q 654 1129 619 1113 q 693 1167 689 1146 q 694 1183 696 1181 l 772 1183 q 769 1142 772 1161 q 703 1043 760 1078 q 546 1008 646 1008 z "},"Ẳ":{"ha":914,"x_min":-101,"x_max":929,"o":"m 649 1033 l 819 85 l 929 64 l 925 0 l 499 0 l 501 64 l 615 82 l 582 292 l 231 292 l 138 83 l 264 64 l 260 0 l -101 0 l -96 64 l -1 82 l 456 1033 l 649 1033 m 269 382 l 569 382 l 508 792 l 501 906 l 269 382 m 526 1144 q 517 1168 517 1151 q 524 1185 517 1178 q 544 1204 531 1193 q 568 1227 560 1217 q 576 1250 576 1238 q 564 1272 576 1264 q 529 1279 551 1279 q 463 1265 494 1279 l 472 1356 q 507 1363 475 1360 q 558 1365 539 1365 q 693 1285 693 1365 q 680 1235 693 1254 q 636 1199 667 1217 q 613 1175 622 1189 q 607 1146 604 1161 l 526 1144 m 551 1008 q 413 1039 463 1008 q 364 1124 364 1069 q 365 1140 364 1135 q 375 1183 369 1171 l 454 1183 q 451 1163 451 1172 q 478 1127 451 1142 q 560 1113 504 1113 q 652 1129 618 1113 q 689 1167 686 1146 l 690 1183 l 768 1183 q 764 1142 768 1171 q 703 1043 756 1078 q 551 1008 650 1008 z "},"Ẵ":{"ha":914,"x_min":-101,"x_max":929,"o":"m 649 1033 l 819 85 l 929 64 l 925 0 l 499 0 l 501 64 l 615 82 l 582 292 l 231 292 l 138 83 l 264 64 l 260 0 l -101 0 l -96 64 l -1 82 l 456 1033 l 649 1033 m 269 382 l 569 382 l 508 792 l 501 906 l 269 382 m 374 1244 q 399 1297 378 1269 q 451 1344 419 1325 q 519 1364 483 1364 q 565 1355 549 1364 q 599 1328 581 1346 q 626 1306 615 1313 q 653 1300 636 1300 q 697 1309 682 1300 q 722 1332 711 1318 q 738 1350 733 1346 l 779 1317 q 724 1235 764 1268 q 629 1201 683 1201 q 585 1211 601 1201 q 551 1239 568 1221 q 525 1260 538 1253 q 494 1268 513 1268 q 456 1256 472 1268 q 414 1213 440 1243 l 374 1244 m 553 1008 q 410 1044 463 1008 q 360 1140 358 1079 q 362 1163 361 1147 q 364 1183 363 1178 l 444 1183 l 444 1168 q 471 1129 442 1146 q 558 1113 500 1113 q 648 1129 617 1113 q 682 1167 679 1146 q 681 1183 682 1179 l 758 1183 q 760 1142 760 1174 q 702 1044 757 1079 q 553 1008 647 1008 z "},"Ǎ":{"ha":914,"x_min":-101,"x_max":929,"o":"m 649 1033 l 819 85 l 929 64 l 925 0 l 499 0 l 501 64 l 615 82 l 582 292 l 231 292 l 138 83 l 264 64 l 260 0 l -101 0 l -96 64 l -1 82 l 456 1033 l 649 1033 m 269 382 l 569 382 l 508 792 l 501 906 l 269 382 m 433 1363 l 575 1214 l 786 1363 l 846 1326 l 614 1096 l 508 1096 l 364 1326 l 433 1363 z "},"Â":{"ha":914,"x_min":-101,"x_max":929,"o":"m 649 1033 l 819 85 l 929 64 l 925 0 l 499 0 l 501 64 l 615 82 l 582 292 l 231 292 l 138 83 l 264 64 l 260 0 l -101 0 l -96 64 l -1 82 l 456 1033 l 649 1033 m 269 382 l 569 382 l 508 792 l 501 906 l 269 382 m 536 1363 l 647 1363 l 792 1128 l 724 1090 l 579 1242 l 357 1092 l 297 1128 l 536 1363 z "},"Ấ":{"ha":914,"x_min":-101,"x_max":1038,"o":"m 649 1033 l 819 85 l 929 64 l 925 0 l 499 0 l 501 64 l 615 82 l 582 292 l 231 292 l 138 83 l 264 64 l 260 0 l -101 0 l -96 64 l -1 82 l 456 1033 l 649 1033 m 269 382 l 569 382 l 508 792 l 501 906 l 269 382 m 806 1224 l 956 1365 l 1038 1288 q 963 1222 1010 1256 q 858 1160 917 1188 l 806 1224 m 660 1335 l 808 1129 l 740 1072 l 575 1213 l 364 1071 l 315 1129 l 531 1335 l 660 1335 z "},"Ậ":{"ha":914,"x_min":-101,"x_max":929,"o":"m 649 1033 l 819 85 l 929 64 l 925 0 l 499 0 l 501 64 l 615 82 l 582 292 l 231 292 l 138 83 l 264 64 l 260 0 l -101 0 l -96 64 l -1 82 l 456 1033 l 649 1033 m 269 382 l 569 382 l 508 792 l 501 906 l 269 382 m 343 -329 q 277 -301 301 -329 q 253 -231 253 -274 q 287 -144 253 -179 q 372 -110 321 -110 q 442 -135 418 -110 q 465 -204 465 -161 q 433 -293 465 -257 q 343 -329 400 -329 m 536 1363 l 647 1363 l 792 1128 l 724 1090 l 579 1242 l 357 1092 l 297 1128 l 536 1363 z "},"Ầ":{"ha":914,"x_min":-101,"x_max":964,"o":"m 649 1033 l 819 85 l 929 64 l 925 0 l 499 0 l 501 64 l 615 82 l 582 292 l 231 292 l 138 83 l 264 64 l 260 0 l -101 0 l -96 64 l -1 82 l 456 1033 l 649 1033 m 269 382 l 569 382 l 508 792 l 501 906 l 269 382 m 919 1129 q 831 1212 882 1153 q 757 1314 781 1271 l 833 1365 l 964 1161 l 919 1129 m 654 1333 l 803 1117 l 736 1067 l 572 1213 l 357 1065 l 308 1117 l 529 1333 l 654 1333 z "},"Ẩ":{"ha":914,"x_min":-101,"x_max":1039,"o":"m 649 1033 l 819 85 l 929 64 l 925 0 l 499 0 l 501 64 l 615 82 l 582 292 l 231 292 l 138 83 l 264 64 l 260 0 l -101 0 l -96 64 l -1 82 l 456 1033 l 649 1033 m 269 382 l 569 382 l 508 792 l 501 906 l 269 382 m 860 1082 q 848 1111 851 1100 q 846 1133 844 1122 q 860 1162 850 1151 q 888 1185 869 1172 q 916 1208 906 1197 q 929 1236 926 1219 q 921 1267 932 1254 q 882 1281 910 1279 q 819 1267 846 1281 l 829 1356 q 860 1363 832 1360 q 906 1365 888 1365 q 1039 1279 1039 1365 q 1022 1210 1039 1233 q 969 1160 1004 1186 l 943 1139 q 926 1096 925 1122 l 860 1082 m 654 1307 l 807 1122 l 738 1065 l 571 1189 l 361 1065 l 313 1122 l 524 1307 l 654 1307 z "},"Ẫ":{"ha":914,"x_min":-101,"x_max":929,"o":"m 649 1033 l 819 85 l 929 64 l 925 0 l 499 0 l 501 64 l 615 82 l 582 292 l 231 292 l 138 83 l 264 64 l 260 0 l -101 0 l -96 64 l -1 82 l 456 1033 l 649 1033 m 269 382 l 569 382 l 508 792 l 501 906 l 269 382 m 375 1343 q 400 1397 379 1368 q 453 1444 421 1425 q 525 1464 486 1464 q 576 1453 554 1464 q 628 1419 599 1442 q 666 1393 650 1401 q 700 1385 682 1385 q 748 1395 732 1385 q 790 1435 764 1406 l 832 1401 q 772 1320 815 1353 q 671 1288 729 1288 q 622 1299 643 1288 q 572 1332 600 1310 q 534 1358 550 1350 q 500 1367 518 1367 q 458 1352 478 1367 q 415 1311 439 1338 l 375 1343 m 644 1253 l 810 1125 l 753 1067 l 564 1153 l 346 1065 l 310 1125 l 517 1253 l 644 1253 z "},"Ä":{"ha":914,"x_min":-101,"x_max":929,"o":"m 649 1033 l 819 85 l 929 64 l 925 0 l 499 0 l 501 64 l 615 82 l 582 292 l 231 292 l 138 83 l 264 64 l 260 0 l -101 0 l -96 64 l -1 82 l 456 1033 l 649 1033 m 269 382 l 569 382 l 508 792 l 501 906 l 269 382 m 408 1142 q 350 1166 374 1142 q 326 1228 326 1190 q 356 1308 326 1276 q 429 1339 385 1339 q 491 1315 468 1339 q 514 1256 514 1292 q 487 1172 514 1203 q 408 1142 460 1142 m 726 1142 q 669 1166 692 1142 q 646 1228 646 1190 q 674 1308 646 1278 q 747 1339 703 1339 q 809 1315 786 1339 q 832 1256 832 1292 q 804 1173 832 1204 q 726 1142 776 1142 z "},"Ạ":{"ha":914,"x_min":-101,"x_max":929,"o":"m 649 1033 l 819 85 l 929 64 l 925 0 l 499 0 l 501 64 l 615 82 l 582 292 l 231 292 l 138 83 l 264 64 l 260 0 l -101 0 l -96 64 l -1 82 l 456 1033 l 649 1033 m 269 382 l 569 382 l 508 792 l 501 906 l 269 382 m 343 -329 q 277 -301 301 -329 q 253 -231 253 -274 q 287 -144 253 -179 q 372 -110 321 -110 q 442 -135 418 -110 q 465 -204 465 -161 q 433 -293 465 -257 q 343 -329 400 -329 z "},"À":{"ha":914,"x_min":-101,"x_max":929,"o":"m 649 1033 l 819 85 l 929 64 l 925 0 l 499 0 l 501 64 l 615 82 l 582 292 l 231 292 l 138 83 l 264 64 l 260 0 l -101 0 l -96 64 l -1 82 l 456 1033 l 649 1033 m 269 382 l 569 382 l 508 792 l 501 906 l 269 382 m 583 1099 q 460 1172 531 1118 q 361 1278 390 1226 l 464 1356 l 651 1143 l 583 1099 z "},"Ả":{"ha":914,"x_min":-101,"x_max":929,"o":"m 649 1033 l 819 85 l 929 64 l 925 0 l 499 0 l 501 64 l 615 82 l 582 292 l 231 292 l 138 83 l 264 64 l 260 0 l -101 0 l -96 64 l -1 82 l 456 1033 l 649 1033 m 269 382 l 569 382 l 508 792 l 501 906 l 269 382 m 513 1082 q 501 1118 501 1096 q 514 1152 501 1140 q 553 1176 526 1164 q 587 1197 575 1188 q 600 1224 599 1207 q 538 1274 603 1272 q 494 1271 501 1274 l 506 1357 q 528 1363 510 1360 q 563 1365 547 1365 q 697 1338 657 1365 q 732 1249 736 1311 q 706 1197 729 1219 q 631 1140 682 1175 q 601 1114 611 1126 q 592 1082 590 1101 l 513 1082 z "},"Ā":{"ha":914,"x_min":-101,"x_max":929,"o":"m 649 1033 l 819 85 l 929 64 l 925 0 l 499 0 l 501 64 l 615 82 l 582 292 l 231 292 l 138 83 l 264 64 l 260 0 l -101 0 l -96 64 l -1 82 l 456 1033 l 649 1033 m 269 382 l 569 382 l 508 792 l 501 906 l 269 382 m 769 1289 l 756 1165 l 382 1165 l 396 1289 l 769 1289 z "},"Ą":{"ha":914,"x_min":-101,"x_max":929,"o":"m 776 0 q 681 -80 715 -43 q 644 -149 646 -117 q 690 -200 644 -200 q 740 -188 717 -200 q 796 -151 764 -176 l 817 -219 q 604 -311 725 -311 q 513 -281 544 -311 q 482 -203 482 -251 q 490 -163 482 -186 q 511 -122 499 -140 q 576 -51 542 -78 q 656 0 611 -24 l 499 0 l 501 64 l 615 82 l 582 292 l 231 292 l 138 83 l 264 64 l 260 0 l -101 0 l -96 64 l -1 82 l 456 1032 l 649 1032 l 819 85 l 929 64 l 925 0 l 776 0 m 269 382 l 569 382 l 508 792 l 501 906 l 269 382 z "},"Å":{"ha":914,"x_min":-101,"x_max":929,"o":"m 451 1028 q 367 1080 397 1043 q 338 1169 338 1117 q 378 1279 338 1236 q 477 1342 418 1322 q 594 1361 536 1361 q 740 1322 683 1361 q 796 1214 796 1283 q 754 1096 796 1142 q 647 1029 713 1050 l 819 85 l 929 64 l 925 0 l 499 0 l 501 64 l 615 82 l 582 292 l 231 292 l 138 83 l 264 64 l 260 0 l -101 0 l -96 64 l -1 82 l 451 1028 m 581 1285 q 488 1260 528 1285 q 449 1182 449 1235 q 481 1117 449 1143 q 557 1092 514 1092 q 647 1116 610 1092 q 685 1199 685 1140 q 654 1261 685 1238 q 581 1285 624 1285 m 269 382 l 569 382 l 508 792 l 501 906 l 269 382 z "},"Ǻ":{"ha":914,"x_min":-101,"x_max":929,"o":"m -96 64 l -1 82 l 438 994 q 321 1107 321 1019 q 322 1126 321 1119 q 515 1258 339 1244 l 615 1364 l 764 1324 q 712 1278 731 1293 q 671 1254 693 1264 q 801 1143 801 1236 q 800 1125 801 1132 q 656 993 785 1021 l 819 85 l 929 64 l 925 0 l 499 0 l 501 64 l 615 82 l 582 292 l 231 292 l 138 83 l 264 64 l 260 0 l -101 0 l -96 64 m 447 1125 q 553 1068 439 1068 q 675 1135 675 1068 q 568 1188 675 1188 q 447 1125 458 1188 m 569 382 l 508 792 l 501 906 l 269 382 l 569 382 z "},"Ã":{"ha":914,"x_min":-101,"x_max":929,"o":"m 649 1033 l 819 85 l 929 64 l 925 0 l 499 0 l 501 64 l 615 82 l 582 292 l 231 292 l 138 83 l 264 64 l 260 0 l -101 0 l -96 64 l -1 82 l 456 1033 l 649 1033 m 269 382 l 569 382 l 508 792 l 501 906 l 269 382 m 321 1228 q 383 1308 339 1275 q 486 1342 428 1342 q 547 1327 522 1342 q 600 1285 572 1313 q 640 1252 624 1263 q 676 1242 656 1242 q 736 1261 711 1242 q 782 1310 761 1281 l 831 1246 q 767 1163 813 1200 q 668 1126 722 1126 q 603 1140 628 1126 q 547 1182 578 1154 q 506 1215 525 1204 q 461 1226 488 1226 q 411 1212 432 1226 q 364 1168 390 1197 l 321 1228 z "},"Æ":{"ha":1322,"x_min":-131,"x_max":1290,"o":"m 458 64 l 561 82 l 589 300 l 260 300 l 147 83 l 283 64 l 279 0 l -131 0 l -124 64 l -15 82 l 475 943 l 272 960 l 282 1032 l 1290 1032 l 1272 799 l 1153 799 l 1129 943 l 868 958 l 818 582 l 1124 604 l 1106 469 l 807 488 l 754 83 l 1097 103 l 1171 286 l 1288 275 l 1239 0 l 450 0 l 458 64 m 307 392 l 600 392 l 672 954 l 600 956 l 307 392 z "},"Ǽ":{"ha":1322,"x_min":-131,"x_max":1290,"o":"m 458 64 l 561 82 l 589 300 l 260 300 l 147 83 l 283 64 l 279 0 l -131 0 l -124 64 l -15 82 l 475 943 l 272 960 l 282 1032 l 1290 1032 l 1272 799 l 1153 799 l 1129 943 l 868 958 l 818 582 l 1124 604 l 1106 469 l 807 488 l 754 83 l 1097 103 l 1171 286 l 1288 275 l 1239 0 l 450 0 l 458 64 m 307 392 l 600 392 l 672 954 l 600 956 l 307 392 m 924 1365 l 1028 1278 q 917 1183 997 1236 q 785 1110 836 1129 l 711 1158 l 924 1365 z "},"B":{"ha":925,"x_min":0,"x_max":876,"o":"m 335 1032 q 433 1038 367 1032 q 561 1043 514 1043 q 876 808 876 1043 q 636 546 876 606 q 759 516 706 544 q 842 440 813 488 q 871 336 871 393 q 747 71 872 154 q 389 -12 622 -12 q 282 -6 344 -12 q 185 0 213 0 l 0 0 l 6 64 l 103 83 l 215 947 l 119 964 l 126 1032 l 335 1032 m 354 576 q 395 576 378 575 q 425 576 413 576 l 463 576 q 628 631 563 576 q 693 797 693 686 q 517 964 693 964 q 404 956 443 964 l 354 576 m 289 82 q 352 71 313 75 q 417 67 392 67 q 603 124 538 67 q 668 304 668 182 q 619 446 668 400 q 461 492 569 492 q 343 489 388 492 l 289 82 z "},"Ḃ":{"ha":925,"x_min":0,"x_max":876,"o":"m 335 1032 q 433 1038 367 1032 q 561 1043 514 1043 q 876 808 876 1043 q 636 546 876 606 q 759 516 706 544 q 842 440 813 488 q 871 336 871 393 q 747 71 872 154 q 389 -12 622 -12 q 282 -6 344 -12 q 185 0 213 0 l 0 0 l 6 64 l 103 83 l 215 947 l 119 964 l 126 1032 l 335 1032 m 354 576 q 395 576 378 575 q 425 576 413 576 l 463 576 q 628 631 563 576 q 693 797 693 686 q 517 964 693 964 q 404 956 443 964 l 354 576 m 289 82 q 352 71 313 75 q 417 67 392 67 q 603 124 538 67 q 668 304 668 182 q 619 446 668 400 q 461 492 569 492 q 343 489 388 492 l 289 82 m 547 1126 q 482 1154 511 1126 q 453 1217 453 1182 q 486 1299 453 1265 q 568 1333 519 1333 q 639 1307 610 1333 q 668 1246 668 1281 q 635 1160 668 1194 q 547 1126 603 1126 z "},"Ḅ":{"ha":925,"x_min":0,"x_max":876,"o":"m 335 1032 q 433 1038 367 1032 q 561 1043 514 1043 q 876 808 876 1043 q 636 546 876 606 q 759 516 706 544 q 842 440 813 488 q 871 336 871 393 q 747 71 872 154 q 389 -12 622 -12 q 282 -6 344 -12 q 185 0 213 0 l 0 0 l 6 64 l 103 83 l 215 947 l 119 964 l 126 1032 l 335 1032 m 354 576 q 395 576 378 575 q 425 576 413 576 l 463 576 q 628 631 563 576 q 693 797 693 686 q 517 964 693 964 q 404 956 443 964 l 354 576 m 289 82 q 352 71 313 75 q 417 67 392 67 q 603 124 538 67 q 668 304 668 182 q 619 446 668 400 q 461 492 569 492 q 343 489 388 492 l 289 82 m 338 -329 q 272 -301 296 -329 q 247 -231 247 -274 q 281 -144 247 -179 q 367 -110 315 -110 q 436 -135 413 -110 q 460 -204 460 -161 q 427 -293 460 -257 q 338 -329 394 -329 z "},"C":{"ha":867,"x_min":47,"x_max":883,"o":"m 686 944 q 588 964 644 964 q 403 885 478 964 q 294 685 329 806 q 261 443 258 565 q 476 85 272 85 q 566 97 521 85 q 642 140 611 108 q 692 281 664 176 l 806 281 l 776 78 q 444 -11 644 -11 q 217 50 306 -11 q 88 212 128 111 q 47 436 47 313 q 119 760 47 622 q 321 971 192 897 q 617 1044 450 1044 q 742 1038 696 1044 q 818 1023 789 1031 q 858 1013 847 1015 l 883 1006 l 842 742 l 706 742 l 686 944 z "},"Ć":{"ha":867,"x_min":47,"x_max":883,"o":"m 686 944 q 588 964 644 964 q 403 885 478 964 q 294 685 329 806 q 261 443 258 565 q 476 85 272 85 q 566 97 521 85 q 642 140 611 108 q 692 281 664 176 l 806 281 l 776 78 q 444 -11 644 -11 q 217 50 306 -11 q 88 212 128 111 q 47 436 47 313 q 119 760 47 622 q 321 971 192 897 q 617 1044 450 1044 q 742 1038 696 1044 q 818 1023 789 1031 q 858 1013 847 1015 l 883 1006 l 842 742 l 706 742 l 686 944 m 756 1365 l 860 1278 q 749 1183 829 1236 q 617 1110 668 1129 l 543 1158 l 756 1365 z "},"Č":{"ha":867,"x_min":47,"x_max":915,"o":"m 686 944 q 588 964 644 964 q 403 885 478 964 q 294 685 329 806 q 261 443 258 565 q 476 85 272 85 q 566 97 521 85 q 642 140 611 108 q 692 281 664 176 l 806 281 l 776 78 q 444 -11 644 -11 q 217 50 306 -11 q 88 212 128 111 q 47 436 47 313 q 119 760 47 622 q 321 971 192 897 q 617 1044 450 1044 q 742 1038 696 1044 q 818 1023 789 1031 q 858 1013 847 1015 l 883 1006 l 842 742 l 706 742 l 686 944 m 503 1363 l 644 1214 l 856 1363 l 915 1326 l 683 1096 l 578 1096 l 433 1326 l 503 1363 z "},"Ç":{"ha":867,"x_min":47,"x_max":883,"o":"m 47 436 q 119 760 47 622 q 321 971 192 897 q 617 1044 450 1044 q 742 1038 696 1044 q 818 1023 789 1031 q 858 1013 847 1015 l 883 1006 l 842 742 l 706 742 l 686 944 q 588 964 644 964 q 403 885 478 964 q 294 685 329 806 q 261 443 258 565 q 476 85 272 85 q 566 97 521 85 q 642 140 611 108 q 692 281 664 176 l 806 281 l 776 78 q 499 -10 661 1 q 517 -129 517 -57 q 465 -271 517 -219 q 315 -322 414 -322 q 258 -315 288 -322 q 211 -296 228 -308 l 233 -193 q 293 -203 249 -203 q 385 -170 360 -203 q 407 -61 410 -137 q 400 -8 406 -37 q 133 130 219 4 q 47 436 47 256 z "},"Ĉ":{"ha":867,"x_min":47,"x_max":883,"o":"m 686 944 q 588 964 644 964 q 403 885 478 964 q 294 685 329 806 q 261 443 258 565 q 476 85 272 85 q 566 97 521 85 q 642 140 611 108 q 692 281 664 176 l 806 281 l 776 78 q 444 -11 644 -11 q 217 50 306 -11 q 88 212 128 111 q 47 436 47 313 q 119 760 47 622 q 321 971 192 897 q 617 1044 450 1044 q 742 1038 696 1044 q 818 1023 789 1031 q 858 1013 847 1015 l 883 1006 l 842 742 l 706 742 l 686 944 m 606 1363 l 717 1363 l 861 1128 l 793 1090 l 649 1242 l 426 1092 l 367 1128 l 606 1363 z "},"Ċ":{"ha":867,"x_min":47,"x_max":883,"o":"m 686 944 q 588 964 644 964 q 403 885 478 964 q 294 685 329 806 q 261 443 258 565 q 476 85 272 85 q 566 97 521 85 q 642 140 611 108 q 692 281 664 176 l 806 281 l 776 78 q 444 -11 644 -11 q 217 50 306 -11 q 88 212 128 111 q 47 436 47 313 q 119 760 47 622 q 321 971 192 897 q 617 1044 450 1044 q 742 1038 696 1044 q 818 1023 789 1031 q 858 1013 847 1015 l 883 1006 l 842 742 l 706 742 l 686 944 m 635 1126 q 569 1154 599 1126 q 540 1217 540 1182 q 574 1299 540 1265 q 656 1333 607 1333 q 726 1307 697 1333 q 756 1246 756 1281 q 723 1160 756 1194 q 635 1126 690 1126 z "},"D":{"ha":1003,"x_min":-10,"x_max":985,"o":"m 331 1032 q 433 1038 364 1032 q 561 1043 517 1043 q 882 931 781 1043 q 983 625 983 818 q 920 294 985 438 q 726 70 856 151 q 407 -11 597 -11 q 343 -6 379 -11 q 208 0 282 0 l -10 0 l -3 64 l 101 83 l 215 947 l 121 964 l 126 1032 l 331 1032 m 297 85 q 361 73 325 78 q 421 68 397 68 q 622 149 542 69 q 739 349 701 228 q 776 601 776 469 q 719 880 776 796 q 533 964 663 964 q 463 959 497 964 q 410 949 429 954 l 297 85 z "},"Ǳ":{"ha":1828,"x_min":-10,"x_max":1865,"o":"m 331 1032 q 433 1038 364 1032 q 561 1043 517 1043 q 882 931 781 1043 q 983 625 983 818 q 920 294 985 438 q 726 70 856 151 q 407 -11 597 -11 q 343 -6 379 -11 q 208 0 282 0 l -10 0 l -3 64 l 101 83 l 215 947 l 121 964 l 126 1032 l 331 1032 m 297 85 q 361 73 325 78 q 421 68 397 68 q 622 149 542 69 q 739 349 701 228 q 776 601 776 469 q 719 880 776 796 q 533 964 663 964 q 463 959 497 964 q 410 949 429 954 l 297 85 m 1847 1032 l 1865 978 l 1285 168 l 1201 82 l 1583 97 l 1700 306 l 1800 276 l 1733 0 l 999 0 l 979 57 l 1560 861 l 1654 953 l 1307 943 l 1222 761 l 1122 776 l 1164 1032 l 1847 1032 z "},"Ǆ":{"ha":1828,"x_min":-10,"x_max":1865,"o":"m 331 1032 q 433 1038 364 1032 q 561 1043 517 1043 q 882 931 781 1043 q 983 625 983 818 q 920 294 985 438 q 726 70 856 151 q 407 -11 597 -11 q 343 -6 379 -11 q 208 0 282 0 l -10 0 l -3 64 l 101 83 l 215 947 l 121 964 l 126 1032 l 331 1032 m 297 85 q 361 73 325 78 q 421 68 397 68 q 622 149 542 69 q 739 349 701 228 q 776 601 776 469 q 719 880 776 796 q 533 964 663 964 q 463 959 497 964 q 410 949 429 954 l 297 85 m 1847 1032 l 1865 978 l 1285 168 l 1201 82 l 1583 97 l 1700 306 l 1800 276 l 1733 0 l 999 0 l 979 57 l 1560 861 l 1654 953 l 1307 943 l 1222 761 l 1122 776 l 1164 1032 l 1847 1032 m 1383 1401 l 1525 1253 l 1736 1401 l 1796 1365 l 1564 1135 l 1458 1135 l 1314 1365 l 1383 1401 z "},"Ð":{"ha":1007,"x_min":-7,"x_max":988,"o":"m 326 1033 q 443 1039 363 1033 q 565 1044 524 1044 q 887 931 786 1044 q 988 622 988 817 q 923 294 988 436 q 729 71 858 151 q 410 -10 600 -10 q 346 -4 382 -10 q 200 1 279 1 l -7 1 l 0 65 l 106 85 l 158 483 l 60 483 l 75 583 l 171 583 l 219 949 l 124 965 l 131 1033 l 326 1033 m 300 86 q 365 74 329 79 q 424 69 401 69 q 625 151 544 71 q 743 353 706 231 q 781 608 781 476 q 722 882 779 799 q 536 965 665 965 q 413 950 464 965 l 365 583 l 594 583 l 581 483 l 351 483 l 300 86 z "},"Ď":{"ha":1003,"x_min":-10,"x_max":983,"o":"m 331 1032 q 433 1038 364 1032 q 561 1043 517 1043 q 882 931 781 1043 q 983 625 983 818 q 920 294 985 438 q 726 70 856 151 q 407 -11 597 -11 q 343 -6 379 -11 q 208 0 282 0 l -10 0 l -3 64 l 101 83 l 215 947 l 121 964 l 126 1032 l 331 1032 m 297 85 q 361 73 325 78 q 421 68 397 68 q 622 149 542 69 q 739 349 701 228 q 776 601 776 469 q 719 880 776 796 q 533 964 663 964 q 463 959 497 964 q 410 949 429 954 l 297 85 m 440 1363 l 582 1214 l 793 1363 l 853 1326 l 621 1096 l 515 1096 l 371 1326 l 440 1363 z "},"Đ":{"ha":1007,"x_min":-7,"x_max":988,"o":"m 326 1033 q 443 1039 363 1033 q 565 1044 524 1044 q 887 931 786 1044 q 988 622 988 817 q 923 294 988 436 q 729 71 858 151 q 410 -10 600 -10 q 346 -4 382 -10 q 200 1 279 1 l -7 1 l 0 65 l 106 85 l 158 483 l 60 483 l 75 583 l 171 583 l 219 949 l 124 965 l 131 1033 l 326 1033 m 300 86 q 365 74 329 79 q 424 69 401 69 q 625 151 544 71 q 743 353 706 231 q 781 608 781 476 q 722 882 779 799 q 536 965 665 965 q 413 950 464 965 l 365 583 l 594 583 l 581 483 l 351 483 l 300 86 z "},"Ḋ":{"ha":1006,"x_min":-11,"x_max":982,"o":"m 574 1126 q 508 1154 538 1126 q 479 1217 479 1182 q 513 1299 479 1265 q 594 1333 546 1333 q 665 1307 636 1333 q 694 1246 694 1281 q 662 1160 694 1194 q 574 1126 629 1126 m 329 1032 q 432 1038 363 1032 q 560 1043 515 1043 q 881 931 779 1043 q 982 625 982 818 q 919 294 983 438 q 725 70 854 151 q 406 -11 596 -11 q 342 -6 378 -11 q 207 0 281 0 l -11 0 l -4 64 l 100 83 l 214 947 l 119 964 l 125 1032 l 329 1032 m 296 85 q 360 73 324 78 q 419 68 396 68 q 620 149 540 69 q 738 349 700 228 q 775 601 775 469 q 718 880 775 796 q 532 964 661 964 q 462 959 496 964 q 408 949 428 954 l 296 85 z "},"Ḍ":{"ha":1003,"x_min":-10,"x_max":983,"o":"m 331 1032 q 433 1038 364 1032 q 561 1043 517 1043 q 882 931 781 1043 q 983 625 983 818 q 920 294 985 438 q 726 70 856 151 q 407 -11 597 -11 q 343 -6 379 -11 q 208 0 282 0 l -10 0 l -3 64 l 101 83 l 215 947 l 121 964 l 126 1032 l 331 1032 m 297 85 q 361 73 325 78 q 421 68 397 68 q 622 149 542 69 q 739 349 701 228 q 776 601 776 469 q 719 880 776 796 q 533 964 663 964 q 463 959 497 964 q 410 949 429 954 l 297 85 m 357 -329 q 291 -301 315 -329 q 267 -231 267 -274 q 301 -144 267 -179 q 386 -110 335 -110 q 456 -135 432 -110 q 479 -204 479 -161 q 447 -293 479 -257 q 357 -329 414 -329 z "},"ǲ":{"ha":1694,"x_min":-10,"x_max":1714,"o":"m 331 1032 q 433 1038 364 1032 q 561 1043 517 1043 q 882 931 781 1043 q 983 625 983 818 q 920 294 985 438 q 726 70 856 151 q 407 -11 597 -11 q 343 -6 379 -11 q 208 0 282 0 l -10 0 l -3 64 l 101 83 l 215 947 l 121 964 l 126 1032 l 331 1032 m 297 85 q 361 73 325 78 q 421 68 397 68 q 622 149 542 69 q 739 349 701 228 q 776 601 776 469 q 719 880 776 796 q 533 964 663 964 q 463 959 497 964 q 410 949 429 954 l 297 85 m 1401 628 q 1258 629 1289 631 q 1184 595 1213 628 q 1153 515 1156 563 l 1097 515 q 1094 578 1094 546 q 1106 703 1094 646 q 1146 774 1118 760 q 1211 788 1169 788 q 1428 775 1285 788 q 1519 769 1460 774 q 1606 765 1578 765 q 1679 788 1653 765 l 1714 750 l 1310 242 l 1207 146 l 1457 143 q 1542 176 1511 143 q 1579 263 1572 208 l 1633 263 q 1635 214 1635 249 q 1623 78 1635 140 q 1582 -1 1611 17 q 1513 -15 1564 -15 q 1283 -3 1433 -15 q 1187 3 1249 -1 q 1099 7 1125 7 q 1060 1 1081 7 q 1028 -15 1040 -4 l 988 24 l 1432 567 l 1507 626 l 1401 628 z "},"ǅ":{"ha":1694,"x_min":-10,"x_max":1714,"o":"m 331 1032 q 433 1038 364 1032 q 561 1043 517 1043 q 882 931 781 1043 q 983 625 983 818 q 920 294 985 438 q 726 70 856 151 q 407 -11 597 -11 q 343 -6 379 -11 q 208 0 282 0 l -10 0 l -3 64 l 101 83 l 215 947 l 121 964 l 126 1032 l 331 1032 m 297 85 q 361 73 325 78 q 421 68 397 68 q 622 149 542 69 q 739 349 701 228 q 776 601 776 469 q 719 880 776 796 q 533 964 663 964 q 463 959 497 964 q 410 949 429 954 l 297 85 m 1401 628 q 1258 629 1289 631 q 1184 595 1213 628 q 1153 515 1156 563 l 1097 515 q 1094 578 1094 546 q 1106 703 1094 646 q 1146 774 1118 760 q 1211 788 1169 788 q 1428 775 1285 788 q 1519 769 1460 774 q 1606 765 1578 765 q 1679 788 1653 765 l 1714 750 l 1310 242 l 1207 146 l 1457 143 q 1542 176 1511 143 q 1579 263 1572 208 l 1633 263 q 1635 214 1635 249 q 1623 78 1635 140 q 1582 -1 1611 17 q 1513 -15 1564 -15 q 1283 -3 1433 -15 q 1187 3 1249 -1 q 1099 7 1125 7 q 1060 1 1081 7 q 1028 -15 1040 -4 l 988 24 l 1432 567 l 1507 626 l 1401 628 m 1292 1165 l 1432 1008 l 1651 1165 l 1713 1128 l 1472 882 l 1363 882 l 1221 1128 l 1292 1165 z "},"E":{"ha":867,"x_min":-11,"x_max":839,"o":"m 839 1032 l 822 794 l 708 794 l 682 943 l 411 958 l 363 589 l 678 610 l 660 476 l 350 493 l 300 90 l 649 110 l 722 290 l 838 278 l 786 0 l -11 0 l -3 64 l 103 82 l 215 947 l 118 964 l 126 1032 l 839 1032 z "},"É":{"ha":867,"x_min":-11,"x_max":839,"o":"m 685 1365 l 789 1278 q 678 1183 758 1236 q 546 1110 597 1129 l 472 1158 l 685 1365 m 839 1032 l 822 794 l 708 794 l 682 943 l 411 958 l 363 589 l 678 610 l 660 476 l 350 493 l 300 90 l 649 110 l 722 290 l 838 278 l 786 0 l -11 0 l -3 64 l 103 82 l 215 947 l 118 964 l 126 1032 l 839 1032 z "},"Ĕ":{"ha":867,"x_min":-11,"x_max":839,"o":"m 839 1032 l 822 794 l 708 794 l 682 943 l 411 958 l 363 589 l 678 610 l 660 476 l 350 493 l 300 90 l 649 110 l 722 290 l 838 278 l 786 0 l -11 0 l -3 64 l 103 82 l 215 947 l 118 964 l 126 1032 l 839 1032 m 532 1107 q 370 1169 415 1107 q 325 1318 325 1231 q 328 1358 325 1346 l 431 1358 q 451 1266 432 1299 q 535 1233 471 1233 q 631 1271 603 1233 q 664 1358 660 1308 l 764 1358 q 735 1231 764 1289 q 653 1140 706 1174 q 532 1107 600 1107 z "},"Ě":{"ha":867,"x_min":-11,"x_max":839,"o":"m 839 1032 l 822 794 l 708 794 l 682 943 l 411 958 l 363 589 l 678 610 l 660 476 l 350 493 l 300 90 l 649 110 l 722 290 l 838 278 l 786 0 l -11 0 l -3 64 l 103 82 l 215 947 l 118 964 l 126 1032 l 839 1032 m 397 1363 l 539 1214 l 750 1363 l 810 1326 l 578 1096 l 472 1096 l 328 1326 l 397 1363 z "},"Ȩ":{"ha":867,"x_min":-11,"x_max":839,"o":"m -3 64 l 103 82 l 215 947 l 118 964 l 126 1032 l 839 1032 l 822 794 l 708 794 l 682 943 l 411 958 l 363 589 l 678 610 l 660 476 l 350 493 l 300 90 l 649 110 l 722 290 l 838 278 l 786 0 l 494 0 q 517 -129 517 -51 q 465 -271 517 -219 q 315 -322 414 -322 q 258 -315 288 -322 q 211 -296 228 -308 l 233 -193 q 293 -203 249 -203 q 382 -173 357 -203 q 407 -75 407 -143 q 399 0 407 -29 l -11 0 l -3 64 z "},"Ê":{"ha":867,"x_min":-11,"x_max":839,"o":"m 839 1032 l 822 794 l 708 794 l 682 943 l 411 958 l 363 589 l 678 610 l 660 476 l 350 493 l 300 90 l 649 110 l 722 290 l 838 278 l 786 0 l -11 0 l -3 64 l 103 82 l 215 947 l 118 964 l 126 1032 l 839 1032 m 500 1363 l 611 1363 l 756 1128 l 688 1090 l 543 1242 l 321 1092 l 261 1128 l 500 1363 z "},"Ế":{"ha":867,"x_min":-11,"x_max":1001,"o":"m 839 1032 l 822 794 l 708 794 l 682 943 l 411 958 l 363 589 l 678 610 l 660 476 l 350 493 l 300 90 l 649 110 l 722 290 l 838 278 l 786 0 l -11 0 l -3 64 l 103 82 l 215 947 l 118 964 l 126 1032 l 839 1032 m 769 1224 l 919 1365 l 1001 1288 q 927 1222 974 1256 q 822 1160 881 1188 l 769 1224 m 624 1335 l 772 1129 l 704 1072 l 539 1213 l 328 1071 l 279 1129 l 494 1335 l 624 1335 z "},"Ệ":{"ha":867,"x_min":-11,"x_max":839,"o":"m 839 1032 l 822 794 l 708 794 l 682 943 l 411 958 l 363 589 l 678 610 l 660 476 l 350 493 l 300 90 l 649 110 l 722 290 l 838 278 l 786 0 l -11 0 l -3 64 l 103 82 l 215 947 l 118 964 l 126 1032 l 839 1032 m 357 -329 q 291 -301 315 -329 q 267 -231 267 -274 q 301 -144 267 -179 q 386 -110 335 -110 q 456 -135 432 -110 q 479 -204 479 -161 q 447 -293 479 -257 q 357 -329 414 -329 m 500 1363 l 611 1363 l 756 1128 l 688 1090 l 543 1242 l 321 1092 l 261 1128 l 500 1363 z "},"Ề":{"ha":867,"x_min":-11,"x_max":928,"o":"m 839 1032 l 822 794 l 708 794 l 682 943 l 411 958 l 363 589 l 678 610 l 660 476 l 350 493 l 300 90 l 649 110 l 722 290 l 838 278 l 786 0 l -11 0 l -3 64 l 103 82 l 215 947 l 118 964 l 126 1032 l 839 1032 m 883 1129 q 795 1212 846 1153 q 721 1314 744 1271 l 797 1365 l 928 1161 l 883 1129 m 618 1333 l 767 1117 l 700 1067 l 536 1213 l 321 1065 l 272 1117 l 493 1333 l 618 1333 z "},"Ể":{"ha":867,"x_min":-11,"x_max":1003,"o":"m 839 1032 l 822 794 l 708 794 l 682 943 l 411 958 l 363 589 l 678 610 l 660 476 l 350 493 l 300 90 l 649 110 l 722 290 l 838 278 l 786 0 l -11 0 l -3 64 l 103 82 l 215 947 l 118 964 l 126 1032 l 839 1032 m 824 1082 q 812 1111 815 1100 q 810 1133 808 1122 q 824 1162 814 1151 q 851 1185 833 1172 q 880 1208 869 1197 q 893 1236 890 1219 q 885 1267 896 1254 q 846 1281 874 1279 q 783 1267 810 1281 l 793 1356 q 824 1363 796 1360 q 869 1365 851 1365 q 1003 1279 1003 1365 q 985 1210 1003 1233 q 933 1160 968 1186 l 907 1139 q 890 1096 889 1122 l 824 1082 m 618 1307 l 771 1122 l 701 1065 l 535 1189 l 325 1065 l 276 1122 l 488 1307 l 618 1307 z "},"Ễ":{"ha":867,"x_min":-11,"x_max":839,"o":"m 839 1032 l 822 794 l 708 794 l 682 943 l 411 958 l 363 589 l 678 610 l 660 476 l 350 493 l 300 90 l 649 110 l 722 290 l 838 278 l 786 0 l -11 0 l -3 64 l 103 82 l 215 947 l 118 964 l 126 1032 l 839 1032 m 339 1343 q 364 1397 343 1368 q 417 1444 385 1425 q 489 1464 450 1464 q 540 1453 518 1464 q 592 1419 563 1442 q 630 1393 614 1401 q 664 1385 646 1385 q 712 1395 696 1385 q 754 1435 728 1406 l 796 1401 q 736 1320 779 1353 q 635 1288 693 1288 q 585 1299 607 1288 q 536 1332 564 1310 q 498 1358 514 1350 q 464 1367 482 1367 q 422 1352 442 1367 q 379 1311 403 1338 l 339 1343 m 608 1253 l 774 1125 l 717 1067 l 528 1153 l 310 1065 l 274 1125 l 481 1253 l 608 1253 z "},"Ë":{"ha":867,"x_min":-11,"x_max":839,"o":"m 839 1032 l 822 794 l 708 794 l 682 943 l 411 958 l 363 589 l 678 610 l 660 476 l 350 493 l 300 90 l 649 110 l 722 290 l 838 278 l 786 0 l -11 0 l -3 64 l 103 82 l 215 947 l 118 964 l 126 1032 l 839 1032 m 372 1142 q 314 1166 338 1142 q 290 1228 290 1190 q 319 1308 290 1276 q 393 1339 349 1339 q 455 1315 432 1339 q 478 1256 478 1292 q 451 1172 478 1203 q 372 1142 424 1142 m 690 1142 q 633 1166 656 1142 q 610 1228 610 1190 q 638 1308 610 1278 q 711 1339 667 1339 q 773 1315 750 1339 q 796 1256 796 1292 q 768 1173 796 1204 q 690 1142 740 1142 z "},"Ė":{"ha":867,"x_min":-11,"x_max":839,"o":"m 839 1032 l 822 794 l 708 794 l 682 943 l 411 958 l 363 589 l 678 610 l 660 476 l 350 493 l 300 90 l 649 110 l 722 290 l 838 278 l 786 0 l -11 0 l -3 64 l 103 82 l 215 947 l 118 964 l 126 1032 l 839 1032 m 529 1126 q 464 1154 493 1126 q 435 1217 435 1182 q 468 1299 435 1265 q 550 1333 501 1333 q 621 1307 592 1333 q 650 1246 650 1281 q 617 1160 650 1194 q 529 1126 585 1126 z "},"Ẹ":{"ha":867,"x_min":-11,"x_max":839,"o":"m 839 1032 l 822 794 l 708 794 l 682 943 l 411 958 l 363 589 l 678 610 l 660 476 l 350 493 l 300 90 l 649 110 l 722 290 l 838 278 l 786 0 l -11 0 l -3 64 l 103 82 l 215 947 l 118 964 l 126 1032 l 839 1032 m 357 -329 q 291 -301 315 -329 q 267 -231 267 -274 q 301 -144 267 -179 q 386 -110 335 -110 q 456 -135 432 -110 q 479 -204 479 -161 q 447 -293 479 -257 q 357 -329 414 -329 z "},"È":{"ha":867,"x_min":-11,"x_max":839,"o":"m 839 1032 l 822 794 l 708 794 l 682 943 l 411 958 l 363 589 l 678 610 l 660 476 l 350 493 l 300 90 l 649 110 l 722 290 l 838 278 l 786 0 l -11 0 l -3 64 l 103 82 l 215 947 l 118 964 l 126 1032 l 839 1032 m 547 1099 q 424 1172 494 1118 q 325 1278 354 1226 l 428 1356 l 615 1143 l 547 1099 z "},"Ẻ":{"ha":867,"x_min":-11,"x_max":839,"o":"m 839 1032 l 822 794 l 708 794 l 682 943 l 411 958 l 363 589 l 678 610 l 660 476 l 350 493 l 300 90 l 649 110 l 722 290 l 838 278 l 786 0 l -11 0 l -3 64 l 103 82 l 215 947 l 118 964 l 126 1032 l 839 1032 m 476 1082 q 465 1118 465 1096 q 478 1152 465 1140 q 517 1176 490 1164 q 551 1197 539 1188 q 564 1224 563 1207 q 501 1274 567 1272 q 458 1271 465 1274 l 469 1357 q 492 1363 474 1360 q 526 1365 511 1365 q 660 1338 621 1365 q 696 1249 700 1311 q 669 1197 693 1219 q 594 1140 646 1175 q 565 1114 575 1126 q 556 1082 554 1101 l 476 1082 z "},"Ē":{"ha":867,"x_min":-11,"x_max":839,"o":"m 839 1032 l 822 794 l 708 794 l 682 943 l 411 958 l 363 589 l 678 610 l 660 476 l 350 493 l 300 90 l 649 110 l 722 290 l 838 278 l 786 0 l -11 0 l -3 64 l 103 82 l 215 947 l 118 964 l 126 1032 l 839 1032 m 733 1289 l 719 1165 l 346 1165 l 360 1289 l 733 1289 z "},"Ę":{"ha":875,"x_min":-11,"x_max":839,"o":"m 728 0 q 631 -81 665 -44 q 596 -149 596 -117 q 640 -200 594 -200 q 691 -187 667 -200 q 746 -151 715 -175 l 767 -219 q 672 -286 726 -261 q 554 -311 618 -311 q 465 -282 496 -311 q 433 -206 433 -253 q 442 -164 433 -187 q 461 -122 450 -140 q 527 -51 492 -78 q 607 0 563 -24 l -11 0 l -3 64 l 103 82 l 215 947 l 118 964 l 126 1032 l 839 1032 l 822 794 l 701 794 l 679 943 l 411 958 l 361 582 l 676 604 l 658 471 l 350 488 l 296 83 l 643 103 l 722 290 l 838 278 l 786 0 l 728 0 z "},"Ẽ":{"ha":867,"x_min":-11,"x_max":839,"o":"m 839 1032 l 822 794 l 708 794 l 682 943 l 411 958 l 363 589 l 678 610 l 660 476 l 350 493 l 300 90 l 649 110 l 722 290 l 838 278 l 786 0 l -11 0 l -3 64 l 103 82 l 215 947 l 118 964 l 126 1032 l 839 1032 m 285 1228 q 347 1308 303 1275 q 450 1342 392 1342 q 511 1327 486 1342 q 564 1285 536 1313 q 603 1252 588 1263 q 640 1242 619 1242 q 700 1261 675 1242 q 746 1310 725 1281 l 794 1246 q 731 1163 776 1200 q 632 1126 686 1126 q 567 1140 592 1126 q 511 1182 542 1154 q 470 1215 489 1204 q 425 1226 451 1226 q 375 1212 396 1226 q 328 1168 354 1197 l 285 1228 z "},"F":{"ha":814,"x_min":0,"x_max":857,"o":"m 857 1032 l 833 789 l 711 789 l 693 943 l 411 957 l 361 578 l 693 593 l 676 461 l 350 482 l 299 83 l 478 64 l 472 0 l 0 0 l 7 64 l 103 83 l 215 947 l 118 964 l 126 1032 l 857 1032 z "},"Ḟ":{"ha":814,"x_min":0,"x_max":857,"o":"m 857 1032 l 833 789 l 711 789 l 693 943 l 411 957 l 361 578 l 693 593 l 676 461 l 350 482 l 299 83 l 478 64 l 472 0 l 0 0 l 7 64 l 103 83 l 215 947 l 118 964 l 126 1032 l 857 1032 m 532 1126 q 467 1154 496 1126 q 438 1217 438 1182 q 471 1299 438 1265 q 553 1333 504 1333 q 624 1307 594 1333 q 653 1246 653 1281 q 620 1160 653 1194 q 532 1126 588 1126 z "},"G":{"ha":943,"x_min":49,"x_max":919,"o":"m 829 60 q 714 38 774 54 q 566 1 628 14 q 425 -11 504 -11 q 212 51 296 -11 q 88 216 128 114 q 49 439 49 318 q 115 758 49 621 q 304 969 181 894 q 596 1044 428 1044 q 744 1035 688 1044 q 837 1017 801 1026 q 883 1006 872 1008 l 919 997 l 878 781 l 746 781 l 740 929 q 594 964 682 964 q 335 815 417 964 q 256 443 254 667 q 308 183 256 286 q 467 79 361 79 q 643 114 583 79 l 682 406 l 526 417 l 538 504 l 890 504 l 829 60 z "},"Ǵ":{"ha":943,"x_min":49,"x_max":919,"o":"m 829 60 q 714 38 774 54 q 566 1 628 14 q 425 -11 504 -11 q 212 51 296 -11 q 88 216 128 114 q 49 439 49 318 q 115 758 49 621 q 304 969 181 894 q 596 1044 428 1044 q 744 1035 688 1044 q 837 1017 801 1026 q 883 1006 872 1008 l 919 997 l 878 781 l 746 781 l 740 929 q 594 964 682 964 q 335 815 417 964 q 256 443 254 667 q 308 183 256 286 q 467 79 361 79 q 643 114 583 79 l 682 406 l 526 417 l 538 504 l 890 504 l 829 60 m 732 1365 l 836 1278 q 725 1183 806 1236 q 593 1110 644 1129 l 519 1158 l 732 1365 z "},"Ğ":{"ha":943,"x_min":49,"x_max":919,"o":"m 829 60 q 714 38 774 54 q 566 1 628 14 q 425 -11 504 -11 q 212 51 296 -11 q 88 216 128 114 q 49 439 49 318 q 115 758 49 621 q 304 969 181 894 q 596 1044 428 1044 q 744 1035 688 1044 q 837 1017 801 1026 q 883 1006 872 1008 l 919 997 l 878 781 l 746 781 l 740 929 q 594 964 682 964 q 335 815 417 964 q 256 443 254 667 q 308 183 256 286 q 467 79 361 79 q 643 114 583 79 l 682 406 l 526 417 l 538 504 l 890 504 l 829 60 m 614 1107 q 452 1169 497 1107 q 407 1318 407 1231 q 410 1358 407 1346 l 513 1358 q 533 1266 514 1299 q 617 1233 553 1233 q 713 1271 685 1233 q 746 1358 742 1308 l 846 1358 q 817 1231 846 1289 q 735 1140 788 1174 q 614 1107 682 1107 z "},"Ǧ":{"ha":943,"x_min":49,"x_max":919,"o":"m 829 60 q 714 38 774 54 q 566 1 628 14 q 425 -11 504 -11 q 212 51 296 -11 q 88 216 128 114 q 49 439 49 318 q 115 758 49 621 q 304 969 181 894 q 596 1044 428 1044 q 744 1035 688 1044 q 837 1017 801 1026 q 883 1006 872 1008 l 919 997 l 878 781 l 746 781 l 740 929 q 594 964 682 964 q 335 815 417 964 q 256 443 254 667 q 308 183 256 286 q 467 79 361 79 q 643 114 583 79 l 682 406 l 526 417 l 538 504 l 890 504 l 829 60 m 479 1363 l 621 1214 l 832 1363 l 892 1326 l 660 1096 l 554 1096 l 410 1326 l 479 1363 z "},"Ĝ":{"ha":943,"x_min":49,"x_max":919,"o":"m 829 60 q 714 38 774 54 q 566 1 628 14 q 425 -11 504 -11 q 212 51 296 -11 q 88 216 128 114 q 49 439 49 318 q 115 758 49 621 q 304 969 181 894 q 596 1044 428 1044 q 744 1035 688 1044 q 837 1017 801 1026 q 883 1006 872 1008 l 919 997 l 878 781 l 746 781 l 740 929 q 594 964 682 964 q 335 815 417 964 q 256 443 254 667 q 308 183 256 286 q 467 79 361 79 q 643 114 583 79 l 682 406 l 526 417 l 538 504 l 890 504 l 829 60 m 582 1363 l 693 1363 l 838 1128 l 769 1090 l 625 1242 l 403 1092 l 343 1128 l 582 1363 z "},"Ģ":{"ha":943,"x_min":49,"x_max":919,"o":"m 829 60 q 714 38 774 54 q 566 1 628 14 q 425 -11 504 -11 q 212 51 296 -11 q 88 216 128 114 q 49 439 49 318 q 115 758 49 621 q 304 969 181 894 q 596 1044 428 1044 q 744 1035 688 1044 q 837 1017 801 1026 q 883 1006 872 1008 l 919 997 l 878 781 l 746 781 l 740 929 q 594 964 682 964 q 335 815 417 964 q 256 443 254 667 q 308 183 256 286 q 467 79 361 79 q 643 114 583 79 l 682 406 l 526 417 l 538 504 l 890 504 l 829 60 m 325 -335 q 352 -292 342 -322 q 361 -228 363 -262 q 350 -181 361 -203 q 321 -156 339 -160 l 321 -106 l 431 -51 q 491 -110 471 -69 q 511 -199 511 -150 q 493 -282 511 -243 q 447 -346 475 -321 q 393 -378 419 -371 l 325 -350 l 325 -335 z "},"Ġ":{"ha":943,"x_min":49,"x_max":919,"o":"m 829 60 q 714 38 774 54 q 566 1 628 14 q 425 -11 504 -11 q 212 51 296 -11 q 88 216 128 114 q 49 439 49 318 q 115 758 49 621 q 304 969 181 894 q 596 1044 428 1044 q 744 1035 688 1044 q 837 1017 801 1026 q 883 1006 872 1008 l 919 997 l 878 781 l 746 781 l 740 929 q 594 964 682 964 q 335 815 417 964 q 256 443 254 667 q 308 183 256 286 q 467 79 361 79 q 643 114 583 79 l 682 406 l 526 417 l 538 504 l 890 504 l 829 60 m 611 1126 q 546 1154 575 1126 q 517 1217 517 1182 q 550 1299 517 1265 q 632 1333 583 1333 q 703 1307 674 1333 q 732 1246 732 1281 q 699 1160 732 1194 q 611 1126 667 1126 z "},"Ḡ":{"ha":943,"x_min":49,"x_max":919,"o":"m 829 60 q 714 38 774 54 q 566 1 628 14 q 425 -11 504 -11 q 212 51 296 -11 q 88 216 128 114 q 49 439 49 318 q 115 758 49 621 q 304 969 181 894 q 596 1044 428 1044 q 744 1035 688 1044 q 837 1017 801 1026 q 883 1006 872 1008 l 919 997 l 878 781 l 746 781 l 740 929 q 594 964 682 964 q 335 815 417 964 q 256 443 254 667 q 308 183 256 286 q 467 79 361 79 q 643 114 583 79 l 682 406 l 526 417 l 538 504 l 890 504 l 829 60 m 815 1289 l 801 1165 l 428 1165 l 442 1289 l 815 1289 z "},"H":{"ha":1093,"x_min":1,"x_max":1128,"o":"m 536 1032 l 528 964 l 413 947 l 364 569 l 775 569 l 824 947 l 711 964 l 718 1032 l 1128 1032 l 1119 964 l 1018 947 l 907 83 l 1013 64 l 1006 0 l 582 0 l 589 64 l 713 83 l 764 482 l 351 482 l 300 83 l 414 64 l 408 0 l 1 0 l 8 64 l 106 83 l 218 947 l 121 964 l 129 1032 l 536 1032 z "},"Ħ":{"ha":1081,"x_min":1,"x_max":1125,"o":"m 532 1036 l 525 968 l 410 951 l 386 769 l 797 769 l 821 951 l 707 968 l 714 1036 l 1125 1036 l 1117 968 l 1015 951 l 992 769 l 1121 769 l 1113 682 l 982 682 l 907 83 l 1011 64 l 1004 0 l 581 0 l 589 64 l 711 83 l 756 429 l 343 429 l 300 83 l 413 64 l 408 0 l 1 0 l 8 64 l 104 83 l 179 682 l 56 682 l 64 769 l 190 769 l 214 951 l 118 968 l 126 1036 l 532 1036 m 354 517 l 765 517 l 788 682 l 375 682 l 354 517 z "},"Ĥ":{"ha":1093,"x_min":1,"x_max":1128,"o":"m 536 1032 l 528 964 l 413 947 l 364 569 l 775 569 l 824 947 l 711 964 l 718 1032 l 1128 1032 l 1119 964 l 1018 947 l 907 83 l 1013 64 l 1006 0 l 582 0 l 589 64 l 713 83 l 764 482 l 351 482 l 300 83 l 414 64 l 408 0 l 1 0 l 8 64 l 106 83 l 218 947 l 121 964 l 129 1032 l 536 1032 m 617 1363 l 728 1363 l 872 1128 l 804 1090 l 660 1242 l 438 1092 l 378 1128 l 617 1363 z "},"Ḥ":{"ha":1093,"x_min":1,"x_max":1128,"o":"m 536 1032 l 528 964 l 413 947 l 364 569 l 775 569 l 824 947 l 711 964 l 718 1032 l 1128 1032 l 1119 964 l 1018 947 l 907 83 l 1013 64 l 1006 0 l 582 0 l 589 64 l 713 83 l 764 482 l 351 482 l 300 83 l 414 64 l 408 0 l 1 0 l 8 64 l 106 83 l 218 947 l 121 964 l 129 1032 l 536 1032 m 453 -329 q 387 -301 411 -329 q 363 -231 363 -274 q 397 -144 363 -179 q 482 -110 431 -110 q 551 -135 528 -110 q 575 -204 575 -161 q 542 -293 575 -257 q 453 -329 510 -329 z "},"I":{"ha":504,"x_min":1,"x_max":538,"o":"m 538 1032 l 531 964 l 418 947 l 306 83 l 421 64 l 417 0 l 1 0 l 10 64 l 111 83 l 224 947 l 126 964 l 133 1032 l 538 1032 z "},"Ĳ":{"ha":996,"x_min":1,"x_max":1036,"o":"m 538 1032 l 531 964 l 418 947 l 306 83 l 421 64 l 417 0 l 1 0 l 10 64 l 111 83 l 224 947 l 126 964 l 133 1032 l 538 1032 m 913 850 q 842 277 867 464 q 806 51 818 90 q 659 -141 765 -68 q 414 -233 553 -214 l 383 -169 q 540 -79 483 -140 q 613 60 597 -18 q 673 443 644 226 q 732 947 701 660 l 629 964 l 638 1032 l 1036 1032 l 1029 964 l 925 949 l 913 850 z "},"Í":{"ha":504,"x_min":1,"x_max":576,"o":"m 538 1032 l 531 964 l 418 947 l 306 83 l 421 64 l 417 0 l 1 0 l 10 64 l 111 83 l 224 947 l 126 964 l 133 1032 l 538 1032 m 472 1365 l 576 1278 q 465 1183 546 1236 q 333 1110 385 1129 l 260 1158 l 472 1365 z "},"Ĭ":{"ha":504,"x_min":1,"x_max":586,"o":"m 538 1032 l 531 964 l 418 947 l 306 83 l 421 64 l 417 0 l 1 0 l 10 64 l 111 83 l 224 947 l 126 964 l 133 1032 l 538 1032 m 354 1107 q 192 1169 238 1107 q 147 1318 147 1231 q 150 1358 147 1346 l 253 1358 q 274 1266 254 1299 q 357 1233 293 1233 q 453 1271 425 1233 q 486 1358 482 1308 l 586 1358 q 557 1231 586 1289 q 475 1140 528 1174 q 354 1107 422 1107 z "},"Ǐ":{"ha":504,"x_min":1,"x_max":632,"o":"m 538 1032 l 531 964 l 418 947 l 306 83 l 421 64 l 417 0 l 1 0 l 10 64 l 111 83 l 224 947 l 126 964 l 133 1032 l 538 1032 m 219 1363 l 361 1214 l 572 1363 l 632 1326 l 400 1096 l 294 1096 l 150 1326 l 219 1363 z "},"Î":{"ha":504,"x_min":1,"x_max":578,"o":"m 538 1032 l 531 964 l 418 947 l 306 83 l 421 64 l 417 0 l 1 0 l 10 64 l 111 83 l 224 947 l 126 964 l 133 1032 l 538 1032 m 322 1363 l 433 1363 l 578 1128 l 510 1090 l 365 1242 l 143 1092 l 83 1128 l 322 1363 z "},"Ï":{"ha":504,"x_min":1,"x_max":618,"o":"m 538 1032 l 531 964 l 418 947 l 306 83 l 421 64 l 417 0 l 1 0 l 10 64 l 111 83 l 224 947 l 126 964 l 133 1032 l 538 1032 m 194 1142 q 136 1166 160 1142 q 113 1228 113 1190 q 142 1308 113 1276 q 215 1339 171 1339 q 277 1315 254 1339 q 300 1256 300 1292 q 273 1172 300 1203 q 194 1142 246 1142 m 513 1142 q 455 1166 478 1142 q 432 1228 432 1190 q 460 1308 432 1278 q 533 1339 489 1339 q 595 1315 572 1339 q 618 1256 618 1292 q 590 1173 618 1204 q 513 1142 563 1142 z "},"İ":{"ha":504,"x_min":1,"x_max":538,"o":"m 538 1032 l 531 964 l 418 947 l 306 83 l 421 64 l 417 0 l 1 0 l 10 64 l 111 83 l 224 947 l 126 964 l 133 1032 l 538 1032 m 351 1126 q 286 1154 315 1126 q 257 1217 257 1182 q 290 1299 257 1265 q 372 1333 324 1333 q 443 1307 414 1333 q 472 1246 472 1281 q 440 1160 472 1194 q 351 1126 407 1126 z "},"Ị":{"ha":504,"x_min":1,"x_max":538,"o":"m 538 1032 l 531 964 l 418 947 l 306 83 l 421 64 l 417 0 l 1 0 l 10 64 l 111 83 l 224 947 l 126 964 l 133 1032 l 538 1032 m 153 -329 q 87 -301 111 -329 q 63 -231 63 -274 q 97 -144 63 -179 q 182 -110 131 -110 q 251 -135 228 -110 q 275 -204 275 -161 q 242 -293 275 -257 q 153 -329 210 -329 z "},"Ì":{"ha":504,"x_min":1,"x_max":538,"o":"m 538 1032 l 531 964 l 418 947 l 306 83 l 421 64 l 417 0 l 1 0 l 10 64 l 111 83 l 224 947 l 126 964 l 133 1032 l 538 1032 m 369 1099 q 247 1172 317 1118 q 147 1278 176 1226 l 250 1356 l 438 1143 l 369 1099 z "},"Ỉ":{"ha":504,"x_min":1,"x_max":538,"o":"m 538 1032 l 531 964 l 418 947 l 306 83 l 421 64 l 417 0 l 1 0 l 10 64 l 111 83 l 224 947 l 126 964 l 133 1032 l 538 1032 m 299 1082 q 288 1118 288 1096 q 300 1152 288 1140 q 339 1176 313 1164 q 373 1197 361 1188 q 386 1224 385 1207 q 324 1274 389 1272 q 281 1271 288 1274 l 292 1357 q 315 1363 296 1360 q 349 1365 333 1365 q 483 1338 443 1365 q 518 1249 522 1311 q 492 1197 515 1219 q 417 1140 468 1175 q 387 1114 397 1126 q 378 1082 376 1101 l 299 1082 z "},"Ī":{"ha":504,"x_min":1,"x_max":556,"o":"m 538 1032 l 531 964 l 418 947 l 306 83 l 421 64 l 417 0 l 1 0 l 10 64 l 111 83 l 224 947 l 126 964 l 133 1032 l 538 1032 m 556 1289 l 542 1165 l 168 1165 l 182 1289 l 556 1289 z "},"Į":{"ha":504,"x_min":1,"x_max":538,"o":"m 310 0 q 213 -79 249 -43 q 176 -149 178 -115 q 222 -200 176 -200 q 285 -187 250 -200 q 346 -151 319 -174 l 367 -219 q 268 -285 329 -258 q 140 -311 207 -311 q 48 -281 81 -311 q 15 -203 15 -250 q 23 -161 15 -185 q 43 -119 31 -137 q 110 -49 75 -76 q 186 0 144 -21 l 1 0 l 10 64 l 111 83 l 224 947 l 126 964 l 133 1032 l 538 1032 l 531 964 l 418 947 l 306 83 l 421 64 l 417 0 l 310 0 z "},"Ĩ":{"ha":504,"x_min":1,"x_max":617,"o":"m 538 1032 l 531 964 l 418 947 l 306 83 l 421 64 l 417 0 l 1 0 l 10 64 l 111 83 l 224 947 l 126 964 l 133 1032 l 538 1032 m 107 1228 q 169 1308 125 1275 q 272 1342 214 1342 q 333 1327 308 1342 q 386 1285 358 1313 q 426 1252 410 1263 q 463 1242 442 1242 q 522 1261 497 1242 q 568 1310 547 1281 l 617 1246 q 553 1163 599 1200 q 454 1126 508 1126 q 389 1140 414 1126 q 333 1182 364 1154 q 292 1215 311 1204 q 247 1226 274 1226 q 197 1212 218 1226 q 150 1168 176 1197 l 107 1228 z "},"J":{"ha":492,"x_min":-121,"x_max":532,"o":"m 408 850 q 338 277 363 464 q 301 51 314 90 q 155 -141 261 -68 q -90 -233 49 -214 l -121 -169 q 36 -79 -21 -140 q 108 60 93 -18 q 169 443 140 226 q 228 947 197 660 l 125 964 l 133 1032 l 532 1032 l 525 964 l 421 949 l 408 850 z "},"Ĵ":{"ha":492,"x_min":-121,"x_max":575,"o":"m 408 850 q 338 277 363 464 q 301 51 314 90 q 155 -141 261 -68 q -90 -233 49 -214 l -121 -169 q 36 -79 -21 -140 q 108 60 93 -18 q 169 443 140 226 q 228 947 197 660 l 125 964 l 133 1032 l 532 1032 l 525 964 l 421 949 l 408 850 m 319 1363 l 431 1363 l 575 1128 l 507 1090 l 363 1242 l 140 1092 l 81 1128 l 319 1363 z "},"K":{"ha":978,"x_min":-4,"x_max":1024,"o":"m 594 603 q 688 428 621 560 q 719 367 697 408 q 753 303 740 325 l 769 272 q 846 138 821 178 q 890 86 871 97 l 974 65 l 967 0 l 713 0 q 663 42 686 3 q 597 172 639 81 q 547 288 596 174 q 465 472 497 407 l 331 333 l 299 83 l 413 64 l 406 0 l -4 0 l 4 64 l 103 83 l 215 947 l 119 964 l 126 1032 l 533 1032 l 525 964 l 410 947 l 347 471 l 789 947 l 696 965 l 703 1032 l 1024 1032 l 1015 964 l 931 949 l 594 603 z "},"Ķ":{"ha":978,"x_min":-4,"x_max":1024,"o":"m 594 603 q 688 428 621 560 q 719 367 697 408 q 753 303 740 325 l 769 272 q 846 138 821 178 q 890 86 871 97 l 974 65 l 967 0 l 713 0 q 663 42 686 3 q 597 172 639 81 q 547 288 596 174 q 465 472 497 407 l 331 333 l 299 83 l 413 64 l 406 0 l -4 0 l 4 64 l 103 83 l 215 947 l 119 964 l 126 1032 l 533 1032 l 525 964 l 410 947 l 347 471 l 789 947 l 696 965 l 703 1032 l 1024 1032 l 1015 964 l 931 949 l 594 603 m 406 -335 q 433 -292 422 -322 q 442 -228 443 -262 q 431 -181 442 -203 q 401 -156 419 -160 l 401 -106 l 511 -51 q 572 -110 551 -69 q 592 -199 592 -150 q 574 -282 592 -243 q 528 -346 556 -321 q 474 -378 500 -371 l 406 -350 l 406 -335 z "},"L":{"ha":839,"x_min":0,"x_max":808,"o":"m 539 1032 l 532 964 l 410 947 l 297 81 l 582 92 l 706 374 l 808 360 l 739 0 l 0 0 l 7 64 l 103 83 l 215 947 l 118 964 l 126 1032 l 539 1032 z "},"Ǉ":{"ha":1331,"x_min":0,"x_max":1371,"o":"m 539 1032 l 532 964 l 410 947 l 297 81 l 582 92 l 706 374 l 808 360 l 739 0 l 0 0 l 7 64 l 103 83 l 215 947 l 118 964 l 126 1032 l 539 1032 m 1247 850 q 1177 277 1201 464 q 1140 51 1153 90 q 994 -141 1100 -68 q 749 -233 888 -214 l 718 -169 q 875 -79 818 -140 q 947 60 932 -18 q 1008 443 979 226 q 1067 947 1036 660 l 964 964 l 972 1032 l 1371 1032 l 1364 964 l 1260 949 l 1247 850 z "},"Ĺ":{"ha":839,"x_min":0,"x_max":808,"o":"m 539 1032 l 532 964 l 410 947 l 297 81 l 582 92 l 706 374 l 808 360 l 739 0 l 0 0 l 7 64 l 103 83 l 215 947 l 118 964 l 126 1032 l 539 1032 m 474 1365 l 578 1278 q 467 1183 547 1236 q 335 1110 386 1129 l 261 1158 l 474 1365 z "},"Ľ":{"ha":839,"x_min":0,"x_max":819,"o":"m 539 1032 l 532 964 l 410 947 l 297 81 l 582 92 l 706 374 l 808 360 l 739 0 l 0 0 l 7 64 l 103 83 l 215 947 l 118 964 l 126 1032 l 539 1032 m 654 786 l 649 800 q 658 949 658 861 q 640 1074 658 1028 l 646 1103 l 807 1103 q 819 997 819 1069 q 806 884 819 940 q 772 785 792 828 l 654 786 z "},"Ļ":{"ha":839,"x_min":0,"x_max":808,"o":"m 539 1032 l 532 964 l 410 947 l 297 81 l 582 92 l 706 374 l 808 360 l 739 0 l 0 0 l 7 64 l 103 83 l 215 947 l 118 964 l 126 1032 l 539 1032 m 279 -335 q 306 -292 296 -322 q 315 -228 317 -262 q 304 -181 315 -203 q 275 -156 293 -160 l 275 -106 l 385 -51 q 445 -110 425 -69 q 465 -199 465 -150 q 447 -282 465 -243 q 401 -346 429 -321 q 347 -378 374 -371 l 279 -350 l 279 -335 z "},"Ŀ":{"ha":931,"x_min":0,"x_max":990,"o":"m 539 1032 l 532 964 l 410 947 l 297 81 l 582 92 l 706 338 l 808 322 l 739 0 l 0 0 l 7 64 l 103 83 l 215 947 l 118 964 l 126 1032 l 539 1032 m 783 581 q 817 672 783 636 q 896 708 851 708 q 965 681 939 708 q 990 614 990 653 q 955 518 990 551 q 869 485 919 485 q 809 512 835 485 q 783 581 783 539 z "},"Ḷ":{"ha":839,"x_min":0,"x_max":808,"o":"m 539 1032 l 532 964 l 410 947 l 297 81 l 582 92 l 706 374 l 808 360 l 739 0 l 0 0 l 7 64 l 103 83 l 215 947 l 118 964 l 126 1032 l 539 1032 m 343 -329 q 277 -301 301 -329 q 253 -231 253 -274 q 287 -144 253 -179 q 372 -110 321 -110 q 442 -135 418 -110 q 465 -204 465 -161 q 433 -293 465 -257 q 343 -329 400 -329 z "},"ǈ":{"ha":1281,"x_min":0,"x_max":1243,"o":"m 539 1032 l 532 964 l 410 947 l 297 81 l 582 92 l 706 374 l 808 360 l 739 0 l 0 0 l 7 64 l 103 83 l 215 947 l 118 964 l 126 1032 l 539 1032 m 1119 0 q 1060 -191 1106 -111 q 947 -313 1015 -271 q 797 -356 878 -356 q 724 -349 757 -356 q 678 -331 690 -343 l 704 -256 q 732 -262 714 -260 q 767 -265 750 -265 q 885 -185 849 -265 q 938 43 921 -104 l 1010 672 l 903 704 l 917 756 l 1179 788 l 1211 772 l 1119 0 m 1121 921 q 1056 949 1083 921 q 1029 1015 1029 978 q 1063 1101 1029 1067 q 1150 1136 1097 1136 q 1218 1109 1193 1136 q 1243 1044 1243 1082 q 1211 956 1243 992 q 1121 921 1179 921 z "},"Ł":{"ha":839,"x_min":0,"x_max":808,"o":"m 539 1033 l 532 965 l 410 949 l 374 672 l 611 771 l 633 690 l 361 581 l 297 82 l 582 93 l 706 375 l 808 361 l 739 1 l 0 1 l 7 65 l 103 85 l 156 497 l 56 457 l 32 531 l 168 588 l 215 949 l 118 965 l 126 1033 l 539 1033 z "},"M":{"ha":1339,"x_min":-51,"x_max":1344,"o":"m 722 413 q 853 722 778 551 q 982 1032 953 960 l 1344 1032 l 1336 964 l 1215 947 l 1189 83 l 1308 64 l 1304 0 l 865 0 l 871 65 l 999 82 l 1033 676 l 1049 951 l 949 710 l 640 -1 l 543 -12 l 442 693 l 401 951 l 343 686 l 199 83 l 346 64 l 340 0 l -51 0 l -44 64 l 68 83 l 290 947 l 160 964 l 169 1032 l 574 1032 l 658 414 l 675 288 l 722 413 z "},"Ḿ":{"ha":1339,"x_min":-51,"x_max":1344,"o":"m 722 413 q 853 722 778 551 q 982 1032 953 960 l 1344 1032 l 1336 964 l 1215 947 l 1189 83 l 1308 64 l 1304 0 l 865 0 l 871 65 l 999 82 l 1033 676 l 1049 951 l 949 710 l 640 -1 l 543 -12 l 442 693 l 401 951 l 343 686 l 199 83 l 346 64 l 340 0 l -51 0 l -44 64 l 68 83 l 290 947 l 160 964 l 169 1032 l 574 1032 l 658 414 l 675 288 l 722 413 m 897 1365 l 1001 1278 q 890 1183 971 1236 q 758 1110 810 1129 l 685 1158 l 897 1365 z "},"Ṁ":{"ha":1339,"x_min":-51,"x_max":1344,"o":"m 722 413 q 853 722 778 551 q 982 1032 953 960 l 1344 1032 l 1336 964 l 1215 947 l 1189 83 l 1308 64 l 1304 0 l 865 0 l 871 65 l 999 82 l 1033 676 l 1049 951 l 949 710 l 640 -1 l 543 -12 l 442 693 l 401 951 l 343 686 l 199 83 l 346 64 l 340 0 l -51 0 l -44 64 l 68 83 l 290 947 l 160 964 l 169 1032 l 574 1032 l 658 414 l 675 288 l 722 413 m 776 1126 q 711 1154 740 1126 q 682 1217 682 1182 q 715 1299 682 1265 q 797 1333 749 1333 q 868 1307 839 1333 q 897 1246 897 1281 q 865 1160 897 1194 q 776 1126 832 1126 z "},"N":{"ha":1044,"x_min":-1,"x_max":1096,"o":"m 446 1032 l 729 328 l 782 172 l 879 949 l 764 964 l 771 1032 l 1096 1032 l 1090 964 l 1000 947 l 860 0 l 663 0 l 371 718 l 318 883 l 229 83 l 354 64 l 349 0 l -1 0 l 3 64 l 101 82 l 225 947 l 115 964 l 125 1032 l 446 1032 z "},"Ǌ":{"ha":1536,"x_min":-1,"x_max":1576,"o":"m 446 1032 l 729 328 l 782 172 l 879 949 l 764 964 l 771 1032 l 1096 1032 l 1090 964 l 1000 947 l 860 0 l 663 0 l 371 718 l 318 883 l 229 83 l 354 64 l 349 0 l -1 0 l 3 64 l 101 82 l 225 947 l 115 964 l 125 1032 l 446 1032 m 1453 850 q 1383 277 1407 464 q 1346 51 1358 90 q 1199 -141 1306 -68 q 954 -233 1093 -214 l 924 -169 q 1081 -79 1024 -140 q 1153 60 1138 -18 q 1213 443 1185 226 q 1272 947 1242 660 l 1169 964 l 1178 1032 l 1576 1032 l 1569 964 l 1465 949 l 1453 850 z "},"Ń":{"ha":1044,"x_min":-1,"x_max":1096,"o":"m 446 1032 l 729 328 l 782 172 l 879 949 l 764 964 l 771 1032 l 1096 1032 l 1090 964 l 1000 947 l 860 0 l 663 0 l 371 718 l 318 883 l 229 83 l 354 64 l 349 0 l -1 0 l 3 64 l 101 82 l 225 947 l 115 964 l 125 1032 l 446 1032 m 761 1365 l 865 1278 q 754 1183 835 1236 q 622 1110 674 1129 l 549 1158 l 761 1365 z "},"Ň":{"ha":1044,"x_min":-1,"x_max":1096,"o":"m 446 1032 l 729 328 l 782 172 l 879 949 l 764 964 l 771 1032 l 1096 1032 l 1090 964 l 1000 947 l 860 0 l 663 0 l 371 718 l 318 883 l 229 83 l 354 64 l 349 0 l -1 0 l 3 64 l 101 82 l 225 947 l 115 964 l 125 1032 l 446 1032 m 508 1363 l 650 1214 l 861 1363 l 921 1326 l 689 1096 l 583 1096 l 439 1326 l 508 1363 z "},"Ņ":{"ha":1044,"x_min":-1,"x_max":1096,"o":"m 446 1032 l 729 328 l 782 172 l 879 949 l 764 964 l 771 1032 l 1096 1032 l 1090 964 l 1000 947 l 860 0 l 663 0 l 371 718 l 318 883 l 229 83 l 354 64 l 349 0 l -1 0 l 3 64 l 101 82 l 225 947 l 115 964 l 125 1032 l 446 1032 m 383 -335 q 410 -292 400 -322 q 419 -228 421 -262 q 408 -181 419 -203 q 379 -156 397 -160 l 379 -106 l 489 -51 q 549 -110 529 -69 q 569 -199 569 -150 q 551 -282 569 -243 q 506 -346 533 -321 q 451 -378 478 -371 l 383 -350 l 383 -335 z "},"Ṅ":{"ha":1044,"x_min":-1,"x_max":1096,"o":"m 446 1032 l 729 328 l 782 172 l 879 949 l 764 964 l 771 1032 l 1096 1032 l 1090 964 l 1000 947 l 860 0 l 663 0 l 371 718 l 318 883 l 229 83 l 354 64 l 349 0 l -1 0 l 3 64 l 101 82 l 225 947 l 115 964 l 125 1032 l 446 1032 m 640 1126 q 575 1154 604 1126 q 546 1217 546 1182 q 579 1299 546 1265 q 661 1333 613 1333 q 732 1307 703 1333 q 761 1246 761 1281 q 728 1160 761 1194 q 640 1126 696 1126 z "},"Ṇ":{"ha":1044,"x_min":-1,"x_max":1096,"o":"m 446 1032 l 729 328 l 782 172 l 879 949 l 764 964 l 771 1032 l 1096 1032 l 1090 964 l 1000 947 l 860 0 l 663 0 l 371 718 l 318 883 l 229 83 l 354 64 l 349 0 l -1 0 l 3 64 l 101 82 l 225 947 l 115 964 l 125 1032 l 446 1032 m 447 -329 q 381 -301 406 -329 q 357 -231 357 -274 q 391 -144 357 -179 q 476 -110 425 -110 q 546 -135 522 -110 q 569 -204 569 -161 q 537 -293 569 -257 q 447 -329 504 -329 z "},"Ŋ":{"ha":1049,"x_min":0,"x_max":1096,"o":"m 489 -233 q 587 -190 539 -222 q 667 -110 635 -158 q 699 -1 699 -61 l 371 718 l 318 878 l 233 83 l 357 64 l 350 0 l 0 0 l 6 64 l 104 82 l 226 953 l 115 968 l 125 1036 l 446 1036 l 740 367 l 789 208 l 876 953 l 764 968 l 771 1036 l 1096 1036 l 1089 968 l 999 953 l 863 0 q 803 -147 851 -81 q 681 -253 756 -212 q 517 -303 607 -294 l 489 -233 z "},"ǋ":{"ha":1486,"x_min":-1,"x_max":1449,"o":"m 446 1032 l 729 328 l 782 172 l 879 949 l 764 964 l 771 1032 l 1096 1032 l 1090 964 l 1000 947 l 860 0 l 663 0 l 371 718 l 318 883 l 229 83 l 354 64 l 349 0 l -1 0 l 3 64 l 101 82 l 225 947 l 115 964 l 125 1032 l 446 1032 m 1325 0 q 1266 -191 1311 -111 q 1152 -313 1221 -271 q 1003 -356 1083 -356 q 929 -349 963 -356 q 883 -331 896 -343 l 910 -256 q 938 -262 919 -260 q 972 -265 956 -265 q 1090 -185 1054 -265 q 1143 43 1126 -104 l 1215 672 l 1108 704 l 1122 756 l 1385 788 l 1417 772 l 1325 0 m 1326 921 q 1262 949 1289 921 q 1235 1015 1235 978 q 1269 1101 1235 1067 q 1356 1136 1303 1136 q 1424 1109 1399 1136 q 1449 1044 1449 1082 q 1417 956 1449 992 q 1326 921 1385 921 z "},"Ñ":{"ha":1044,"x_min":-1,"x_max":1096,"o":"m 446 1032 l 729 328 l 782 172 l 879 949 l 764 964 l 771 1032 l 1096 1032 l 1090 964 l 1000 947 l 860 0 l 663 0 l 371 718 l 318 883 l 229 83 l 354 64 l 349 0 l -1 0 l 3 64 l 101 82 l 225 947 l 115 964 l 125 1032 l 446 1032 m 396 1228 q 458 1308 414 1275 q 561 1342 503 1342 q 622 1327 597 1342 q 675 1285 647 1313 q 715 1252 699 1263 q 751 1242 731 1242 q 811 1261 786 1242 q 857 1310 836 1281 l 906 1246 q 842 1163 888 1200 q 743 1126 797 1126 q 678 1140 703 1126 q 622 1182 653 1154 q 581 1215 600 1204 q 536 1226 563 1226 q 486 1212 507 1226 q 439 1168 465 1197 l 396 1228 z "},"O":{"ha":974,"x_min":54,"x_max":943,"o":"m 568 1046 q 781 986 697 1046 q 904 826 865 926 q 943 600 943 725 q 885 295 943 435 q 710 71 826 156 q 429 -14 594 -14 q 148 110 242 -14 q 54 435 54 233 q 115 741 54 601 q 292 963 175 881 q 568 1046 408 1046 m 550 967 q 398 894 464 967 q 297 701 332 822 q 263 439 261 581 q 306 170 263 276 q 447 64 350 64 q 601 133 536 64 q 699 320 665 201 q 733 586 733 439 q 689 867 733 768 q 550 967 644 967 z "},"Ó":{"ha":974,"x_min":56,"x_max":944,"o":"m 715 1365 l 819 1278 q 708 1183 789 1236 q 576 1110 628 1129 l 503 1158 l 715 1365 m 569 1046 q 783 986 699 1046 q 906 826 867 926 q 944 600 944 725 q 886 295 944 435 q 712 71 828 156 q 431 -14 596 -14 q 149 110 243 -14 q 56 435 56 233 q 116 741 56 601 q 293 963 176 881 q 569 1046 410 1046 m 551 967 q 399 894 465 967 q 298 701 333 822 q 264 439 263 581 q 308 170 264 276 q 449 64 351 64 q 602 133 538 64 q 701 320 667 201 q 735 586 735 439 q 690 867 735 768 q 551 967 646 967 z "},"Ŏ":{"ha":974,"x_min":54,"x_max":943,"o":"m 568 1046 q 781 986 697 1046 q 904 826 865 926 q 943 600 943 725 q 885 295 943 435 q 710 71 826 156 q 429 -14 594 -14 q 148 110 242 -14 q 54 435 54 233 q 115 741 54 601 q 292 963 175 881 q 568 1046 408 1046 m 550 967 q 398 894 464 967 q 297 701 332 822 q 263 439 261 581 q 306 170 263 276 q 447 64 350 64 q 601 133 536 64 q 699 320 665 201 q 733 586 733 439 q 689 867 733 768 q 550 967 644 967 m 610 1107 q 448 1169 493 1107 q 403 1318 403 1231 q 406 1358 403 1346 l 508 1358 q 529 1266 510 1299 q 613 1233 549 1233 q 709 1271 681 1233 q 742 1358 738 1308 l 842 1358 q 813 1231 842 1289 q 731 1140 783 1174 q 610 1107 678 1107 z "},"Ǒ":{"ha":974,"x_min":54,"x_max":943,"o":"m 568 1046 q 781 986 697 1046 q 904 826 865 926 q 943 600 943 725 q 885 295 943 435 q 710 71 826 156 q 429 -14 594 -14 q 148 110 242 -14 q 54 435 54 233 q 115 741 54 601 q 292 963 175 881 q 568 1046 408 1046 m 550 967 q 398 894 464 967 q 297 701 332 822 q 263 439 261 581 q 306 170 263 276 q 447 64 350 64 q 601 133 536 64 q 699 320 665 201 q 733 586 733 439 q 689 867 733 768 q 550 967 644 967 m 475 1363 l 617 1214 l 828 1363 l 888 1326 l 656 1096 l 550 1096 l 406 1326 l 475 1363 z "},"Ô":{"ha":974,"x_min":54,"x_max":943,"o":"m 568 1046 q 781 986 697 1046 q 904 826 865 926 q 943 600 943 725 q 885 295 943 435 q 710 71 826 156 q 429 -14 594 -14 q 148 110 242 -14 q 54 435 54 233 q 115 741 54 601 q 292 963 175 881 q 568 1046 408 1046 m 550 967 q 398 894 464 967 q 297 701 332 822 q 263 439 261 581 q 306 170 263 276 q 447 64 350 64 q 601 133 536 64 q 699 320 665 201 q 733 586 733 439 q 689 867 733 768 q 550 967 644 967 m 578 1363 l 689 1363 l 833 1128 l 765 1090 l 621 1242 l 399 1092 l 339 1128 l 578 1363 z "},"Ố":{"ha":974,"x_min":54,"x_max":1079,"o":"m 568 1046 q 781 986 697 1046 q 904 826 865 926 q 943 600 943 725 q 885 295 943 435 q 710 71 826 156 q 429 -14 594 -14 q 148 110 242 -14 q 54 435 54 233 q 115 741 54 601 q 292 963 175 881 q 568 1046 408 1046 m 550 967 q 398 894 464 967 q 297 701 332 822 q 263 439 261 581 q 306 170 263 276 q 447 64 350 64 q 601 133 536 64 q 699 320 665 201 q 733 586 733 439 q 689 867 733 768 q 550 967 644 967 m 847 1224 l 997 1365 l 1079 1288 q 1005 1222 1051 1256 q 900 1160 958 1188 l 847 1224 m 701 1335 l 850 1129 l 782 1072 l 617 1213 l 406 1071 l 357 1129 l 572 1335 l 701 1335 z "},"Ộ":{"ha":974,"x_min":54,"x_max":943,"o":"m 568 1046 q 781 986 697 1046 q 904 826 865 926 q 943 600 943 725 q 885 295 943 435 q 710 71 826 156 q 429 -14 594 -14 q 148 110 242 -14 q 54 435 54 233 q 115 741 54 601 q 292 963 175 881 q 568 1046 408 1046 m 550 967 q 398 894 464 967 q 297 701 332 822 q 263 439 261 581 q 306 170 263 276 q 447 64 350 64 q 601 133 536 64 q 699 320 665 201 q 733 586 733 439 q 689 867 733 768 q 550 967 644 967 m 386 -329 q 320 -301 344 -329 q 296 -231 296 -274 q 330 -144 296 -179 q 415 -110 364 -110 q 485 -135 461 -110 q 508 -204 508 -161 q 476 -293 508 -257 q 386 -329 443 -329 m 578 1363 l 689 1363 l 833 1128 l 765 1090 l 621 1242 l 399 1092 l 339 1128 l 578 1363 z "},"Ồ":{"ha":974,"x_min":54,"x_max":1006,"o":"m 568 1046 q 781 986 697 1046 q 904 826 865 926 q 943 600 943 725 q 885 295 943 435 q 710 71 826 156 q 429 -14 594 -14 q 148 110 242 -14 q 54 435 54 233 q 115 741 54 601 q 292 963 175 881 q 568 1046 408 1046 m 550 967 q 398 894 464 967 q 297 701 332 822 q 263 439 261 581 q 306 170 263 276 q 447 64 350 64 q 601 133 536 64 q 699 320 665 201 q 733 586 733 439 q 689 867 733 768 q 550 967 644 967 m 961 1129 q 873 1212 924 1153 q 799 1314 822 1271 l 875 1365 l 1006 1161 l 961 1129 m 696 1333 l 844 1117 l 778 1067 l 614 1213 l 399 1065 l 350 1117 l 571 1333 l 696 1333 z "},"Ổ":{"ha":974,"x_min":54,"x_max":1081,"o":"m 568 1046 q 781 986 697 1046 q 904 826 865 926 q 943 600 943 725 q 885 295 943 435 q 710 71 826 156 q 429 -14 594 -14 q 148 110 242 -14 q 54 435 54 233 q 115 741 54 601 q 292 963 175 881 q 568 1046 408 1046 m 550 967 q 398 894 464 967 q 297 701 332 822 q 263 439 261 581 q 306 170 263 276 q 447 64 350 64 q 601 133 536 64 q 699 320 665 201 q 733 586 733 439 q 689 867 733 768 q 550 967 644 967 m 901 1082 q 890 1111 893 1100 q 888 1133 886 1122 q 901 1162 892 1151 q 929 1185 911 1172 q 958 1208 947 1197 q 971 1236 968 1219 q 963 1267 974 1254 q 924 1281 951 1279 q 861 1267 888 1281 l 871 1356 q 901 1363 874 1360 q 947 1365 929 1365 q 1081 1279 1081 1365 q 1063 1210 1081 1233 q 1011 1160 1046 1186 l 985 1139 q 968 1096 967 1122 l 901 1082 m 696 1307 l 849 1122 l 779 1065 l 613 1189 l 403 1065 l 354 1122 l 565 1307 l 696 1307 z "},"Ỗ":{"ha":974,"x_min":54,"x_max":943,"o":"m 568 1046 q 781 986 697 1046 q 904 826 865 926 q 943 600 943 725 q 885 295 943 435 q 710 71 826 156 q 429 -14 594 -14 q 148 110 242 -14 q 54 435 54 233 q 115 741 54 601 q 292 963 175 881 q 568 1046 408 1046 m 550 967 q 398 894 464 967 q 297 701 332 822 q 263 439 261 581 q 306 170 263 276 q 447 64 350 64 q 601 133 536 64 q 699 320 665 201 q 733 586 733 439 q 689 867 733 768 q 550 967 644 967 m 417 1343 q 442 1397 421 1368 q 495 1444 463 1425 q 567 1464 528 1464 q 618 1453 596 1464 q 669 1419 640 1442 q 708 1393 692 1401 q 742 1385 724 1385 q 790 1395 774 1385 q 832 1435 806 1406 l 874 1401 q 814 1320 857 1353 q 713 1288 771 1288 q 663 1299 685 1288 q 614 1332 642 1310 q 576 1358 592 1350 q 542 1367 560 1367 q 500 1352 519 1367 q 457 1311 481 1338 l 417 1343 m 686 1253 l 851 1125 l 794 1067 l 606 1153 l 388 1065 l 351 1125 l 558 1253 l 686 1253 z "},"Ö":{"ha":974,"x_min":54,"x_max":943,"o":"m 568 1046 q 781 986 697 1046 q 904 826 865 926 q 943 600 943 725 q 885 295 943 435 q 710 71 826 156 q 429 -14 594 -14 q 148 110 242 -14 q 54 435 54 233 q 115 741 54 601 q 292 963 175 881 q 568 1046 408 1046 m 550 967 q 398 894 464 967 q 297 701 332 822 q 263 439 261 581 q 306 170 263 276 q 447 64 350 64 q 601 133 536 64 q 699 320 665 201 q 733 586 733 439 q 689 867 733 768 q 550 967 644 967 m 450 1142 q 392 1166 415 1142 q 368 1228 368 1190 q 397 1308 368 1276 q 471 1339 426 1339 q 533 1315 510 1339 q 556 1256 556 1292 q 528 1172 556 1203 q 450 1142 501 1142 m 768 1142 q 710 1166 733 1142 q 688 1228 688 1190 q 716 1308 688 1278 q 789 1339 744 1339 q 851 1315 828 1339 q 874 1256 874 1292 q 846 1173 874 1204 q 768 1142 818 1142 z "},"Ọ":{"ha":974,"x_min":54,"x_max":943,"o":"m 568 1046 q 781 986 697 1046 q 904 826 865 926 q 943 600 943 725 q 885 295 943 435 q 710 71 826 156 q 429 -14 594 -14 q 148 110 242 -14 q 54 435 54 233 q 115 741 54 601 q 292 963 175 881 q 568 1046 408 1046 m 550 967 q 398 894 464 967 q 297 701 332 822 q 263 439 261 581 q 306 170 263 276 q 447 64 350 64 q 601 133 536 64 q 699 320 665 201 q 733 586 733 439 q 689 867 733 768 q 550 967 644 967 m 386 -329 q 320 -301 344 -329 q 296 -231 296 -274 q 330 -144 296 -179 q 415 -110 364 -110 q 485 -135 461 -110 q 508 -204 508 -161 q 476 -293 508 -257 q 386 -329 443 -329 z "},"Ò":{"ha":974,"x_min":54,"x_max":943,"o":"m 568 1046 q 781 986 697 1046 q 904 826 865 926 q 943 600 943 725 q 885 295 943 435 q 710 71 826 156 q 429 -14 594 -14 q 148 110 242 -14 q 54 435 54 233 q 115 741 54 601 q 292 963 175 881 q 568 1046 408 1046 m 550 967 q 398 894 464 967 q 297 701 332 822 q 263 439 261 581 q 306 170 263 276 q 447 64 350 64 q 601 133 536 64 q 699 320 665 201 q 733 586 733 439 q 689 867 733 768 q 550 967 644 967 m 625 1099 q 502 1172 572 1118 q 403 1278 432 1226 l 506 1356 l 693 1143 l 625 1099 z "},"Ỏ":{"ha":974,"x_min":54,"x_max":943,"o":"m 568 1046 q 781 986 697 1046 q 904 826 865 926 q 943 600 943 725 q 885 295 943 435 q 710 71 826 156 q 429 -14 594 -14 q 148 110 242 -14 q 54 435 54 233 q 115 741 54 601 q 292 963 175 881 q 568 1046 408 1046 m 550 967 q 398 894 464 967 q 297 701 332 822 q 263 439 261 581 q 306 170 263 276 q 447 64 350 64 q 601 133 536 64 q 699 320 665 201 q 733 586 733 439 q 689 867 733 768 q 550 967 644 967 m 554 1082 q 543 1118 543 1096 q 556 1152 543 1140 q 594 1176 568 1164 q 628 1197 617 1188 q 642 1224 640 1207 q 579 1274 644 1272 q 536 1271 543 1274 l 547 1357 q 570 1363 551 1360 q 604 1365 589 1365 q 738 1338 699 1365 q 774 1249 778 1311 q 747 1197 771 1219 q 672 1140 724 1175 q 642 1114 653 1126 q 633 1082 632 1101 l 554 1082 z "},"Ơ":{"ha":978,"x_min":54,"x_max":1072,"o":"m 54 435 q 115 741 54 601 q 292 963 175 881 q 568 1046 408 1046 q 731 1014 660 1046 q 875 1065 824 1019 q 926 1167 926 1110 q 922 1201 926 1176 l 1068 1201 q 1072 1172 1072 1188 q 1006 1013 1072 1071 q 839 936 940 954 q 917 792 892 876 q 943 608 943 707 q 887 299 944 442 q 713 72 829 157 q 429 -14 596 -14 q 148 110 242 -14 q 54 435 54 233 m 263 439 q 306 170 263 276 q 447 64 350 64 q 601 133 536 64 q 699 320 665 201 q 733 586 733 439 q 689 867 733 768 q 550 967 644 967 q 398 894 464 967 q 297 701 332 822 q 263 439 261 581 z "},"Ớ":{"ha":978,"x_min":54,"x_max":1072,"o":"m 54 435 q 115 741 54 601 q 292 963 175 881 q 568 1046 408 1046 q 731 1014 660 1046 q 875 1065 824 1019 q 926 1167 926 1110 q 922 1201 926 1176 l 1068 1201 q 1072 1172 1072 1188 q 1006 1013 1072 1071 q 839 936 940 954 q 917 792 892 876 q 943 608 943 707 q 887 299 944 442 q 713 72 829 157 q 429 -14 596 -14 q 148 110 242 -14 q 54 435 54 233 m 263 439 q 306 170 263 276 q 447 64 350 64 q 601 133 536 64 q 699 320 665 201 q 733 586 733 439 q 689 867 733 768 q 550 967 644 967 q 398 894 464 967 q 297 701 332 822 q 263 439 261 581 m 700 1365 l 804 1278 q 693 1183 774 1236 q 561 1110 613 1129 l 488 1158 l 700 1365 z "},"Ợ":{"ha":978,"x_min":54,"x_max":1072,"o":"m 54 435 q 115 741 54 601 q 292 963 175 881 q 568 1046 408 1046 q 731 1014 660 1046 q 875 1065 824 1019 q 926 1167 926 1110 q 922 1201 926 1176 l 1068 1201 q 1072 1172 1072 1188 q 1006 1013 1072 1071 q 839 936 940 954 q 917 792 892 876 q 943 608 943 707 q 887 299 944 442 q 713 72 829 157 q 429 -14 596 -14 q 148 110 242 -14 q 54 435 54 233 m 263 439 q 306 170 263 276 q 447 64 350 64 q 601 133 536 64 q 699 320 665 201 q 733 586 733 439 q 689 867 733 768 q 550 967 644 967 q 398 894 464 967 q 297 701 332 822 q 263 439 261 581 m 389 -329 q 323 -301 347 -329 q 299 -231 299 -274 q 333 -144 299 -179 q 418 -110 367 -110 q 488 -135 464 -110 q 511 -204 511 -161 q 478 -293 511 -257 q 389 -329 446 -329 z "},"Ờ":{"ha":978,"x_min":54,"x_max":1072,"o":"m 54 435 q 115 741 54 601 q 292 963 175 881 q 568 1046 408 1046 q 731 1014 660 1046 q 875 1065 824 1019 q 926 1167 926 1110 q 922 1201 926 1176 l 1068 1201 q 1072 1172 1072 1188 q 1006 1013 1072 1071 q 839 936 940 954 q 917 792 892 876 q 943 608 943 707 q 887 299 944 442 q 713 72 829 157 q 429 -14 596 -14 q 148 110 242 -14 q 54 435 54 233 m 263 439 q 306 170 263 276 q 447 64 350 64 q 601 133 536 64 q 699 320 665 201 q 733 586 733 439 q 689 867 733 768 q 550 967 644 967 q 398 894 464 967 q 297 701 332 822 q 263 439 261 581 m 597 1099 q 474 1172 544 1118 q 375 1278 404 1226 l 478 1356 l 665 1143 l 597 1099 z "},"Ở":{"ha":978,"x_min":54,"x_max":1072,"o":"m 54 435 q 115 741 54 601 q 292 963 175 881 q 568 1046 408 1046 q 731 1014 660 1046 q 875 1065 824 1019 q 926 1167 926 1110 q 922 1201 926 1176 l 1068 1201 q 1072 1172 1072 1188 q 1006 1013 1072 1071 q 839 936 940 954 q 917 792 892 876 q 943 608 943 707 q 887 299 944 442 q 713 72 829 157 q 429 -14 596 -14 q 148 110 242 -14 q 54 435 54 233 m 263 439 q 306 170 263 276 q 447 64 350 64 q 601 133 536 64 q 699 320 665 201 q 733 586 733 439 q 689 867 733 768 q 550 967 644 967 q 398 894 464 967 q 297 701 332 822 q 263 439 261 581 m 525 1119 q 510 1149 517 1131 q 504 1183 503 1168 q 517 1208 507 1199 q 550 1233 528 1218 q 584 1257 571 1246 q 603 1285 597 1268 l 603 1290 q 590 1329 606 1314 q 540 1346 575 1344 q 499 1343 504 1346 l 515 1456 q 538 1461 519 1458 q 572 1464 557 1464 q 699 1433 653 1464 q 744 1342 744 1403 q 740 1307 744 1326 q 712 1252 735 1274 q 650 1206 689 1231 q 625 1189 625 1189 q 604 1165 611 1178 q 599 1128 597 1151 l 525 1119 z "},"Ỡ":{"ha":978,"x_min":54,"x_max":1072,"o":"m 54 435 q 115 741 54 601 q 292 963 175 881 q 568 1046 408 1046 q 731 1014 660 1046 q 875 1065 824 1019 q 926 1167 926 1110 q 922 1201 926 1176 l 1068 1201 q 1072 1172 1072 1188 q 1006 1013 1072 1071 q 839 936 940 954 q 917 792 892 876 q 943 608 943 707 q 887 299 944 442 q 713 72 829 157 q 429 -14 596 -14 q 148 110 242 -14 q 54 435 54 233 m 263 439 q 306 170 263 276 q 447 64 350 64 q 601 133 536 64 q 699 320 665 201 q 733 586 733 439 q 689 867 733 768 q 550 967 644 967 q 398 894 464 967 q 297 701 332 822 q 263 439 261 581 m 335 1228 q 397 1308 353 1275 q 500 1342 442 1342 q 561 1327 536 1342 q 614 1285 586 1313 q 653 1252 638 1263 q 690 1242 669 1242 q 750 1261 725 1242 q 796 1310 775 1281 l 844 1246 q 781 1163 826 1200 q 682 1126 736 1126 q 617 1140 642 1126 q 561 1182 592 1154 q 520 1215 539 1204 q 475 1226 501 1226 q 425 1212 446 1226 q 378 1168 404 1197 l 335 1228 z "},"Ő":{"ha":974,"x_min":54,"x_max":951,"o":"m 568 1046 q 781 986 697 1046 q 904 826 865 926 q 943 600 943 725 q 885 295 943 435 q 710 71 826 156 q 429 -14 594 -14 q 148 110 242 -14 q 54 435 54 233 q 115 741 54 601 q 292 963 175 881 q 568 1046 408 1046 m 550 967 q 398 894 464 967 q 297 701 332 822 q 263 439 261 581 q 306 170 263 276 q 447 64 350 64 q 601 133 536 64 q 699 320 665 201 q 733 586 733 439 q 689 867 733 768 q 550 967 644 967 m 513 1361 l 619 1299 q 519 1182 594 1244 q 383 1093 444 1119 l 325 1138 l 513 1361 m 844 1361 l 951 1299 q 845 1178 915 1240 q 715 1093 775 1117 l 658 1138 l 844 1361 z "},"Ō":{"ha":974,"x_min":54,"x_max":943,"o":"m 568 1046 q 781 986 697 1046 q 904 826 865 926 q 943 600 943 725 q 885 295 943 435 q 710 71 826 156 q 429 -14 594 -14 q 148 110 242 -14 q 54 435 54 233 q 115 741 54 601 q 292 963 175 881 q 568 1046 408 1046 m 550 967 q 398 894 464 967 q 297 701 332 822 q 263 439 261 581 q 306 170 263 276 q 447 64 350 64 q 601 133 536 64 q 699 320 665 201 q 733 586 733 439 q 689 867 733 768 q 550 967 644 967 m 811 1289 l 797 1165 l 424 1165 l 438 1289 l 811 1289 z "},"Ø":{"ha":975,"x_min":56,"x_max":946,"o":"m 810 967 q 912 815 878 908 q 946 606 946 721 q 888 298 946 439 q 714 72 831 157 q 432 -12 597 -12 q 229 40 315 -12 l 140 -96 l 83 -62 l 178 81 q 86 230 117 139 q 56 433 56 321 q 116 740 56 600 q 292 964 176 881 q 569 1047 408 1047 q 757 1004 678 1047 l 847 1142 l 903 1108 l 810 967 m 678 882 q 551 968 638 968 q 399 896 465 968 q 298 703 333 824 q 264 440 263 582 q 292 231 264 322 l 678 882 m 315 161 q 450 65 361 65 q 603 135 539 65 q 702 324 668 204 q 736 593 736 444 q 703 817 736 725 l 315 161 z "},"Ǿ":{"ha":975,"x_min":56,"x_max":946,"o":"m 810 967 q 912 815 878 908 q 946 606 946 721 q 888 298 946 439 q 714 72 831 157 q 432 -12 597 -12 q 229 40 315 -12 l 140 -96 l 83 -62 l 178 81 q 86 230 117 139 q 56 433 56 321 q 116 740 56 600 q 292 964 176 881 q 569 1047 408 1047 q 757 1004 678 1047 l 847 1142 l 903 1108 l 810 967 m 678 882 q 551 968 638 968 q 399 896 465 968 q 298 703 333 824 q 264 440 263 582 q 292 231 264 322 l 678 882 m 315 161 q 450 65 361 65 q 603 135 539 65 q 702 324 668 204 q 736 593 736 444 q 703 817 736 725 l 315 161 m 704 1365 l 808 1278 q 697 1183 778 1236 q 565 1110 617 1129 l 492 1158 l 704 1365 z "},"Õ":{"ha":974,"x_min":54,"x_max":943,"o":"m 568 1046 q 781 986 697 1046 q 904 826 865 926 q 943 600 943 725 q 885 295 943 435 q 710 71 826 156 q 429 -14 594 -14 q 148 110 242 -14 q 54 435 54 233 q 115 741 54 601 q 292 963 175 881 q 568 1046 408 1046 m 550 967 q 398 894 464 967 q 297 701 332 822 q 263 439 261 581 q 306 170 263 276 q 447 64 350 64 q 601 133 536 64 q 699 320 665 201 q 733 586 733 439 q 689 867 733 768 q 550 967 644 967 m 363 1228 q 425 1308 381 1275 q 528 1342 469 1342 q 589 1327 564 1342 q 642 1285 614 1313 q 681 1252 665 1263 q 718 1242 697 1242 q 778 1261 753 1242 q 824 1310 803 1281 l 872 1246 q 809 1163 854 1200 q 710 1126 764 1126 q 644 1140 669 1126 q 589 1182 619 1154 q 548 1215 567 1204 q 503 1226 529 1226 q 453 1212 474 1226 q 406 1168 432 1197 l 363 1228 z "},"Œ":{"ha":1521,"x_min":50,"x_max":1497,"o":"m 778 144 q 631 28 717 69 q 435 -14 544 -14 q 148 108 246 -14 q 50 432 50 229 q 111 740 50 600 q 290 963 172 879 q 571 1046 408 1046 q 756 998 682 1046 q 868 865 829 950 l 888 1032 l 1497 1032 l 1479 799 l 1365 799 l 1338 943 l 1075 958 l 1026 588 l 1335 613 l 1315 476 l 1017 496 l 964 89 l 1306 108 l 1378 286 l 1493 275 l 1444 0 l 760 0 l 778 144 m 554 967 q 397 895 465 967 q 291 705 328 824 q 254 450 254 586 q 453 64 257 64 q 611 133 544 64 q 713 322 678 203 q 747 590 747 442 q 701 871 747 775 q 554 967 654 967 z "},"P":{"ha":883,"x_min":0,"x_max":896,"o":"m 322 1032 q 436 1038 364 1032 q 539 1043 506 1043 q 811 972 726 1043 q 896 757 896 901 q 838 540 896 631 q 674 403 779 450 q 432 356 569 356 q 333 358 375 356 l 301 83 l 468 64 l 464 0 l 0 0 l 7 64 l 103 83 l 215 947 l 118 964 l 126 1032 l 322 1032 m 344 444 q 439 436 383 436 q 627 525 561 438 q 694 765 693 613 q 507 964 694 964 q 413 956 461 964 l 344 444 z "},"Ṗ":{"ha":883,"x_min":0,"x_max":896,"o":"m 322 1032 q 436 1038 364 1032 q 539 1043 506 1043 q 811 972 726 1043 q 896 757 896 901 q 838 540 896 631 q 674 403 779 450 q 432 356 569 356 q 333 358 375 356 l 301 83 l 468 64 l 464 0 l 0 0 l 7 64 l 103 83 l 215 947 l 118 964 l 126 1032 l 322 1032 m 344 444 q 439 436 383 436 q 627 525 561 438 q 694 765 693 613 q 507 964 694 964 q 413 956 461 964 l 344 444 m 553 1126 q 488 1154 517 1126 q 458 1217 458 1182 q 492 1299 458 1265 q 574 1333 525 1333 q 644 1307 615 1333 q 674 1246 674 1281 q 641 1160 674 1194 q 553 1126 608 1126 z "},"Þ":{"ha":869,"x_min":1,"x_max":874,"o":"m 393 793 q 543 801 464 801 q 796 738 718 801 q 874 567 874 674 q 767 324 874 421 q 422 226 661 226 q 321 231 346 226 l 300 83 l 417 64 l 411 0 l 1 0 l 8 64 l 106 83 l 218 950 l 121 965 l 129 1033 l 536 1033 l 528 965 l 413 950 l 393 793 m 331 313 q 429 310 392 310 q 603 369 538 310 q 669 538 669 428 q 485 721 669 721 q 382 711 436 721 l 331 313 z "},"Q":{"ha":976,"x_min":53,"x_max":943,"o":"m 906 -211 q 808 -258 872 -236 q 667 -279 744 -279 q 484 -228 549 -279 q 419 -82 419 -178 q 426 -14 419 -43 q 147 110 242 -10 q 53 432 53 229 q 113 739 53 599 q 290 962 174 879 q 568 1044 407 1044 q 781 985 696 1044 q 904 828 865 926 q 943 606 943 729 q 895 324 943 454 q 753 106 847 194 q 524 -6 658 18 q 574 -106 524 -82 q 722 -131 625 -131 q 814 -123 760 -131 q 904 -101 868 -115 l 906 -211 m 550 967 q 399 895 464 967 q 297 703 333 824 q 261 443 261 583 q 305 170 261 278 q 449 63 349 63 q 601 132 538 63 q 699 322 665 201 q 733 592 733 442 q 689 869 733 771 q 550 967 644 967 z "},"R":{"ha":957,"x_min":4,"x_max":933,"o":"m 322 1032 q 421 1038 357 1032 q 547 1043 493 1043 q 817 981 738 1043 q 899 793 897 919 q 834 594 899 678 q 656 474 769 510 q 709 390 682 447 q 775 243 736 333 q 790 210 786 221 q 835 119 819 146 q 872 80 850 93 q 933 67 894 67 l 929 0 l 697 0 q 663 33 681 0 q 618 142 646 65 l 606 174 q 528 366 560 294 q 475 451 497 438 l 393 451 l 340 451 l 296 83 l 421 64 l 417 0 l 4 0 l 8 64 l 103 83 l 215 947 l 119 964 l 126 1032 l 322 1032 m 351 536 q 476 533 378 533 q 636 603 576 536 q 696 785 696 669 q 649 920 696 876 q 504 964 603 964 q 408 957 454 964 l 351 536 z "},"Ŕ":{"ha":957,"x_min":4,"x_max":933,"o":"m 322 1032 q 421 1038 357 1032 q 547 1043 493 1043 q 817 981 738 1043 q 899 793 897 919 q 834 594 899 678 q 656 474 769 510 q 709 390 682 447 q 775 243 736 333 q 790 210 786 221 q 835 119 819 146 q 872 80 850 93 q 933 67 894 67 l 929 0 l 697 0 q 663 33 681 0 q 618 142 646 65 l 606 174 q 528 366 560 294 q 475 451 497 438 l 393 451 l 340 451 l 296 83 l 421 64 l 417 0 l 4 0 l 8 64 l 103 83 l 215 947 l 119 964 l 126 1032 l 322 1032 m 351 536 q 476 533 378 533 q 636 603 576 536 q 696 785 696 669 q 649 920 696 876 q 504 964 603 964 q 408 957 454 964 l 351 536 m 664 1365 l 768 1278 q 657 1183 738 1236 q 525 1110 576 1129 l 451 1158 l 664 1365 z "},"Ř":{"ha":957,"x_min":4,"x_max":933,"o":"m 322 1032 q 421 1038 357 1032 q 547 1043 493 1043 q 817 981 738 1043 q 899 793 897 919 q 834 594 899 678 q 656 474 769 510 q 709 390 682 447 q 775 243 736 333 q 790 210 786 221 q 835 119 819 146 q 872 80 850 93 q 933 67 894 67 l 929 0 l 697 0 q 663 33 681 0 q 618 142 646 65 l 606 174 q 528 366 560 294 q 475 451 497 438 l 393 451 l 340 451 l 296 83 l 421 64 l 417 0 l 4 0 l 8 64 l 103 83 l 215 947 l 119 964 l 126 1032 l 322 1032 m 351 536 q 476 533 378 533 q 636 603 576 536 q 696 785 696 669 q 649 920 696 876 q 504 964 603 964 q 408 957 454 964 l 351 536 m 411 1363 l 553 1214 l 764 1363 l 824 1326 l 592 1096 l 486 1096 l 342 1326 l 411 1363 z "},"Ŗ":{"ha":957,"x_min":4,"x_max":933,"o":"m 322 1032 q 421 1038 357 1032 q 547 1043 493 1043 q 817 981 738 1043 q 899 793 897 919 q 834 594 899 678 q 656 474 769 510 q 709 390 682 447 q 775 243 736 333 q 790 210 786 221 q 835 119 819 146 q 872 80 850 93 q 933 67 894 67 l 929 0 l 697 0 q 663 33 681 0 q 618 142 646 65 l 606 174 q 528 366 560 294 q 475 451 497 438 l 393 451 l 340 451 l 296 83 l 421 64 l 417 0 l 4 0 l 8 64 l 103 83 l 215 947 l 119 964 l 126 1032 l 322 1032 m 351 536 q 476 533 378 533 q 636 603 576 536 q 696 785 696 669 q 649 920 696 876 q 504 964 603 964 q 408 957 454 964 l 351 536 m 371 -335 q 398 -292 388 -322 q 407 -228 408 -262 q 396 -181 407 -203 q 367 -156 385 -160 l 367 -106 l 476 -51 q 537 -110 517 -69 q 557 -199 557 -150 q 539 -282 557 -243 q 493 -346 521 -321 q 439 -378 465 -371 l 371 -350 l 371 -335 z "},"S":{"ha":768,"x_min":18,"x_max":747,"o":"m 590 932 q 469 967 547 967 q 345 930 393 967 q 297 831 297 893 q 342 706 297 757 q 492 590 388 656 q 649 460 592 528 q 707 296 707 392 q 664 138 708 208 q 533 26 619 67 q 325 -15 446 -15 q 136 6 226 -15 q 18 49 46 28 l 54 256 l 169 256 l 176 107 q 240 76 201 88 q 322 65 278 65 q 470 108 417 65 q 524 222 524 150 q 482 337 524 289 q 346 444 440 385 q 181 582 242 510 q 119 751 121 654 q 167 908 119 842 q 297 1010 214 975 q 483 1044 379 1044 q 747 992 660 1044 l 713 797 l 607 797 l 590 932 z "},"Ś":{"ha":768,"x_min":18,"x_max":747,"o":"m 590 932 q 469 967 547 967 q 345 930 393 967 q 297 831 297 893 q 342 706 297 757 q 492 590 388 656 q 649 460 592 528 q 707 296 707 392 q 664 138 708 208 q 533 26 619 67 q 325 -15 446 -15 q 136 6 226 -15 q 18 49 46 28 l 54 256 l 169 256 l 176 107 q 240 76 201 88 q 322 65 278 65 q 470 108 417 65 q 524 222 524 150 q 482 337 524 289 q 346 444 440 385 q 181 582 242 510 q 119 751 121 654 q 167 908 119 842 q 297 1010 214 975 q 483 1044 379 1044 q 747 992 660 1044 l 713 797 l 607 797 l 590 932 m 618 1365 l 722 1278 q 611 1183 692 1236 q 479 1110 531 1129 l 406 1158 l 618 1365 z "},"Š":{"ha":768,"x_min":18,"x_max":778,"o":"m 590 932 q 469 967 547 967 q 345 930 393 967 q 297 831 297 893 q 342 706 297 757 q 492 590 388 656 q 649 460 592 528 q 707 296 707 392 q 664 138 708 208 q 533 26 619 67 q 325 -15 446 -15 q 136 6 226 -15 q 18 49 46 28 l 54 256 l 169 256 l 176 107 q 240 76 201 88 q 322 65 278 65 q 470 108 417 65 q 524 222 524 150 q 482 337 524 289 q 346 444 440 385 q 181 582 242 510 q 119 751 121 654 q 167 908 119 842 q 297 1010 214 975 q 483 1044 379 1044 q 747 992 660 1044 l 713 797 l 607 797 l 590 932 m 365 1363 l 507 1214 l 718 1363 l 778 1326 l 546 1096 l 440 1096 l 296 1326 l 365 1363 z "},"Ş":{"ha":768,"x_min":18,"x_max":747,"o":"m 54 256 l 169 256 l 176 107 q 240 76 201 88 q 322 65 278 65 q 470 108 417 65 q 524 222 524 150 q 482 337 524 289 q 346 444 440 385 q 181 582 242 510 q 119 751 121 654 q 167 908 119 842 q 297 1010 214 975 q 483 1044 379 1044 q 747 992 660 1044 l 713 797 l 607 797 l 590 932 q 469 967 547 967 q 345 930 393 967 q 297 831 297 893 q 342 706 297 757 q 492 590 388 656 q 649 460 592 528 q 707 296 707 392 q 669 148 708 215 q 556 38 631 81 q 376 -14 481 -6 q 390 -74 385 -39 q 396 -139 396 -110 q 347 -276 396 -229 q 200 -324 299 -324 q 131 -318 171 -324 q 79 -306 90 -312 l 100 -208 q 157 -219 122 -219 q 247 -187 214 -219 q 282 -89 281 -156 q 278 -14 285 -46 q 117 10 192 -10 q 18 49 42 31 l 54 256 z "},"Ŝ":{"ha":768,"x_min":18,"x_max":747,"o":"m 590 932 q 469 967 547 967 q 345 930 393 967 q 297 831 297 893 q 342 706 297 757 q 492 590 388 656 q 649 460 592 528 q 707 296 707 392 q 664 138 708 208 q 533 26 619 67 q 325 -15 446 -15 q 136 6 226 -15 q 18 49 46 28 l 54 256 l 169 256 l 176 107 q 240 76 201 88 q 322 65 278 65 q 470 108 417 65 q 524 222 524 150 q 482 337 524 289 q 346 444 440 385 q 181 582 242 510 q 119 751 121 654 q 167 908 119 842 q 297 1010 214 975 q 483 1044 379 1044 q 747 992 660 1044 l 713 797 l 607 797 l 590 932 m 468 1363 l 579 1363 l 724 1128 l 656 1090 l 511 1242 l 289 1092 l 229 1128 l 468 1363 z "},"Ș":{"ha":768,"x_min":18,"x_max":747,"o":"m 590 932 q 469 967 547 967 q 345 930 393 967 q 297 831 297 893 q 342 706 297 757 q 492 590 388 656 q 649 460 592 528 q 707 296 707 392 q 664 138 708 208 q 533 26 619 67 q 325 -15 446 -15 q 136 6 226 -15 q 18 49 46 28 l 54 256 l 169 256 l 176 107 q 240 76 201 88 q 322 65 278 65 q 470 108 417 65 q 524 222 524 150 q 482 337 524 289 q 346 444 440 385 q 181 582 242 510 q 119 751 121 654 q 167 908 119 842 q 297 1010 214 975 q 483 1044 379 1044 q 747 992 660 1044 l 713 797 l 607 797 l 590 932 m 219 -335 q 247 -292 236 -322 q 256 -228 257 -262 q 244 -181 256 -203 q 215 -156 233 -160 l 215 -106 l 325 -51 q 385 -110 365 -69 q 406 -199 406 -150 q 388 -282 406 -243 q 342 -346 369 -321 q 288 -378 314 -371 l 219 -350 l 219 -335 z "},"Ṡ":{"ha":768,"x_min":18,"x_max":747,"o":"m 590 932 q 469 967 547 967 q 345 930 393 967 q 297 831 297 893 q 342 706 297 757 q 492 590 388 656 q 649 460 592 528 q 707 296 707 392 q 664 138 708 208 q 533 26 619 67 q 325 -15 446 -15 q 136 6 226 -15 q 18 49 46 28 l 54 256 l 169 256 l 176 107 q 240 76 201 88 q 322 65 278 65 q 470 108 417 65 q 524 222 524 150 q 482 337 524 289 q 346 444 440 385 q 181 582 242 510 q 119 751 121 654 q 167 908 119 842 q 297 1010 214 975 q 483 1044 379 1044 q 747 992 660 1044 l 713 797 l 607 797 l 590 932 m 497 1126 q 432 1154 461 1126 q 403 1217 403 1182 q 436 1299 403 1265 q 518 1333 469 1333 q 589 1307 560 1333 q 618 1246 618 1281 q 585 1160 618 1194 q 497 1126 553 1126 z "},"Ṣ":{"ha":768,"x_min":18,"x_max":747,"o":"m 590 932 q 469 967 547 967 q 345 930 393 967 q 297 831 297 893 q 342 706 297 757 q 492 590 388 656 q 649 460 592 528 q 707 296 707 392 q 664 138 708 208 q 533 26 619 67 q 325 -15 446 -15 q 136 6 226 -15 q 18 49 46 28 l 54 256 l 169 256 l 176 107 q 240 76 201 88 q 322 65 278 65 q 470 108 417 65 q 524 222 524 150 q 482 337 524 289 q 346 444 440 385 q 181 582 242 510 q 119 751 121 654 q 167 908 119 842 q 297 1010 214 975 q 483 1044 379 1044 q 747 992 660 1044 l 713 797 l 607 797 l 590 932 m 283 -329 q 217 -301 242 -329 q 193 -231 193 -274 q 227 -144 193 -179 q 313 -110 261 -110 q 382 -135 358 -110 q 406 -204 406 -161 q 373 -293 406 -257 q 283 -329 340 -329 z "},"ẞ":{"ha":992,"x_min":-24,"x_max":967,"o":"m 139 625 q 217 838 153 742 q 388 989 282 933 q 625 1044 494 1044 q 922 951 835 1044 l 917 904 l 699 624 q 890 514 813 586 q 967 319 967 442 q 920 147 967 221 q 794 32 874 72 q 619 -8 714 -8 q 532 0 572 -8 q 444 24 492 8 q 415 32 435 26 q 383 39 396 38 l 408 231 l 503 231 l 521 117 q 559 78 531 92 q 628 64 588 64 q 729 122 693 64 q 765 282 765 179 q 698 440 765 372 q 547 549 631 507 l 553 588 l 744 849 q 730 904 747 876 q 679 950 713 932 q 599 968 646 968 q 342 651 383 968 l 256 -3 l -24 -3 l -18 64 l 68 82 l 139 625 z "},"Ə":{"ha":918,"x_min":49,"x_max":868,"o":"m 156 985 q 203 992 178 985 q 236 1001 228 999 q 359 1032 296 1021 q 521 1043 422 1043 q 705 992 626 1043 q 826 846 783 940 q 868 628 868 751 q 801 299 868 446 q 619 68 733 151 q 371 -15 504 -15 q 134 74 219 -15 q 49 325 49 164 q 58 438 49 381 q 78 525 67 494 l 668 526 l 669 571 q 623 864 676 757 q 461 971 569 971 q 285 901 331 971 l 228 768 l 125 768 l 156 985 m 258 443 q 242 366 247 396 q 238 303 238 336 q 278 131 238 194 q 403 67 318 67 q 567 158 499 67 q 660 443 635 249 l 258 443 z "},"T":{"ha":933,"x_min":51,"x_max":990,"o":"m 990 1032 l 938 667 l 836 665 l 832 943 l 639 958 l 524 83 l 708 65 l 701 0 l 153 0 l 160 65 l 329 83 l 443 958 l 251 943 l 156 667 l 51 667 l 113 1032 l 990 1032 z "},"Ŧ":{"ha":935,"x_min":51,"x_max":990,"o":"m 990 1032 l 938 667 l 836 665 l 832 943 l 639 958 l 586 564 l 765 564 l 756 472 l 574 472 l 524 83 l 708 65 l 701 0 l 153 0 l 160 65 l 329 83 l 379 472 l 211 472 l 221 564 l 392 564 l 443 958 l 251 943 l 156 667 l 51 667 l 113 1032 l 990 1032 z "},"Ť":{"ha":933,"x_min":51,"x_max":990,"o":"m 990 1032 l 938 667 l 836 665 l 832 943 l 639 958 l 524 83 l 708 65 l 701 0 l 153 0 l 160 65 l 329 83 l 443 958 l 251 943 l 156 667 l 51 667 l 113 1032 l 990 1032 m 438 1363 l 579 1214 l 790 1363 l 850 1326 l 618 1096 l 513 1096 l 368 1326 l 438 1363 z "},"Ţ":{"ha":933,"x_min":51,"x_max":990,"o":"m 113 1032 l 990 1032 l 938 667 l 836 665 l 832 943 l 639 958 l 524 83 l 708 65 l 701 0 l 472 0 q 488 -57 482 -24 q 494 -122 494 -90 q 442 -269 494 -214 q 292 -324 389 -324 q 231 -317 265 -324 q 185 -303 196 -310 l 206 -208 q 263 -219 228 -219 q 355 -183 324 -219 q 386 -78 386 -146 q 381 0 386 -26 l 153 0 l 160 65 l 329 83 l 443 958 l 251 943 l 156 667 l 51 667 l 113 1032 z "},"Ț":{"ha":933,"x_min":51,"x_max":990,"o":"m 990 1032 l 938 667 l 836 665 l 832 943 l 639 958 l 524 83 l 708 65 l 701 0 l 153 0 l 160 65 l 329 83 l 443 958 l 251 943 l 156 667 l 51 667 l 113 1032 l 990 1032 m 310 -335 q 337 -292 326 -322 q 346 -228 347 -262 q 335 -181 346 -203 q 306 -156 324 -160 l 306 -106 l 415 -51 q 476 -110 456 -69 q 496 -199 496 -150 q 478 -282 496 -243 q 432 -346 460 -321 q 378 -378 404 -371 l 310 -350 l 310 -335 z "},"Ṫ":{"ha":933,"x_min":51,"x_max":990,"o":"m 990 1032 l 938 667 l 836 665 l 832 943 l 639 958 l 524 83 l 708 65 l 701 0 l 153 0 l 160 65 l 329 83 l 443 958 l 251 943 l 156 667 l 51 667 l 113 1032 l 990 1032 m 569 1126 q 504 1154 533 1126 q 475 1217 475 1182 q 508 1299 475 1265 q 590 1333 542 1333 q 661 1307 632 1333 q 690 1246 690 1281 q 658 1160 690 1194 q 569 1126 625 1126 z "},"Ṭ":{"ha":933,"x_min":51,"x_max":990,"o":"m 990 1032 l 938 667 l 836 665 l 832 943 l 639 958 l 524 83 l 708 65 l 701 0 l 153 0 l 160 65 l 329 83 l 443 958 l 251 943 l 156 667 l 51 667 l 113 1032 l 990 1032 m 374 -329 q 308 -301 332 -329 q 283 -231 283 -274 q 317 -144 283 -179 q 403 -110 351 -110 q 472 -135 449 -110 q 496 -204 496 -161 q 463 -293 496 -257 q 374 -329 431 -329 z "},"U":{"ha":974,"x_min":85,"x_max":1040,"o":"m 876 425 q 742 88 846 190 q 451 -14 639 -14 q 192 69 278 -14 q 106 290 107 151 q 111 403 106 363 l 182 949 l 85 964 l 93 1032 l 508 1032 l 501 965 l 376 947 l 307 418 q 297 285 297 328 q 347 122 299 181 q 486 64 394 64 q 672 153 608 64 q 760 425 736 242 l 831 947 l 733 965 l 739 1032 l 1040 1032 l 1032 965 l 944 949 l 876 425 z "},"Ú":{"ha":974,"x_min":85,"x_max":1040,"o":"m 876 425 q 742 88 846 190 q 451 -14 639 -14 q 192 69 278 -14 q 106 290 107 151 q 111 403 106 363 l 182 949 l 85 964 l 93 1032 l 508 1032 l 501 965 l 376 947 l 307 418 q 297 285 297 328 q 347 122 299 181 q 486 64 394 64 q 672 153 608 64 q 760 425 736 242 l 831 947 l 733 965 l 739 1032 l 1040 1032 l 1032 965 l 944 949 l 876 425 m 736 1365 l 840 1278 q 729 1183 810 1236 q 597 1110 649 1129 l 524 1158 l 736 1365 z "},"Ŭ":{"ha":974,"x_min":85,"x_max":1040,"o":"m 876 425 q 742 88 846 190 q 451 -14 639 -14 q 192 69 278 -14 q 106 290 107 151 q 111 403 106 363 l 182 949 l 85 964 l 93 1032 l 508 1032 l 501 965 l 376 947 l 307 418 q 297 285 297 328 q 347 122 299 181 q 486 64 394 64 q 672 153 608 64 q 760 425 736 242 l 831 947 l 733 965 l 739 1032 l 1040 1032 l 1032 965 l 944 949 l 876 425 m 618 1107 q 456 1169 501 1107 q 411 1318 411 1231 q 414 1358 411 1346 l 517 1358 q 538 1266 518 1299 q 621 1233 557 1233 q 717 1271 689 1233 q 750 1358 746 1308 l 850 1358 q 821 1231 850 1289 q 739 1140 792 1174 q 618 1107 686 1107 z "},"Ǔ":{"ha":974,"x_min":85,"x_max":1040,"o":"m 876 425 q 742 88 846 190 q 451 -14 639 -14 q 192 69 278 -14 q 106 290 107 151 q 111 403 106 363 l 182 949 l 85 964 l 93 1032 l 508 1032 l 501 965 l 376 947 l 307 418 q 297 285 297 328 q 347 122 299 181 q 486 64 394 64 q 672 153 608 64 q 760 425 736 242 l 831 947 l 733 965 l 739 1032 l 1040 1032 l 1032 965 l 944 949 l 876 425 m 483 1363 l 625 1214 l 836 1363 l 896 1326 l 664 1096 l 558 1096 l 414 1326 l 483 1363 z "},"Û":{"ha":974,"x_min":85,"x_max":1040,"o":"m 876 425 q 742 88 846 190 q 451 -14 639 -14 q 192 69 278 -14 q 106 290 107 151 q 111 403 106 363 l 182 949 l 85 964 l 93 1032 l 508 1032 l 501 965 l 376 947 l 307 418 q 297 285 297 328 q 347 122 299 181 q 486 64 394 64 q 672 153 608 64 q 760 425 736 242 l 831 947 l 733 965 l 739 1032 l 1040 1032 l 1032 965 l 944 949 l 876 425 m 586 1363 l 697 1363 l 842 1128 l 774 1090 l 629 1242 l 407 1092 l 347 1128 l 586 1363 z "},"Ü":{"ha":974,"x_min":85,"x_max":1040,"o":"m 876 425 q 742 88 846 190 q 451 -14 639 -14 q 192 69 278 -14 q 106 290 107 151 q 111 403 106 363 l 182 949 l 85 964 l 93 1032 l 508 1032 l 501 965 l 376 947 l 307 418 q 297 285 297 328 q 347 122 299 181 q 486 64 394 64 q 672 153 608 64 q 760 425 736 242 l 831 947 l 733 965 l 739 1032 l 1040 1032 l 1032 965 l 944 949 l 876 425 m 458 1142 q 400 1166 424 1142 q 376 1228 376 1190 q 406 1308 376 1276 q 479 1339 435 1339 q 541 1315 518 1339 q 564 1256 564 1292 q 537 1172 564 1203 q 458 1142 510 1142 m 776 1142 q 719 1166 742 1142 q 696 1228 696 1190 q 724 1308 696 1278 q 797 1339 753 1339 q 859 1315 836 1339 q 882 1256 882 1292 q 854 1173 882 1204 q 776 1142 826 1142 z "},"Ụ":{"ha":974,"x_min":85,"x_max":1040,"o":"m 876 425 q 742 88 846 190 q 451 -14 639 -14 q 192 69 278 -14 q 106 290 107 151 q 111 403 106 363 l 182 949 l 85 964 l 93 1032 l 508 1032 l 501 965 l 376 947 l 307 418 q 297 285 297 328 q 347 122 299 181 q 486 64 394 64 q 672 153 608 64 q 760 425 736 242 l 831 947 l 733 965 l 739 1032 l 1040 1032 l 1032 965 l 944 949 l 876 425 m 413 -329 q 347 -301 371 -329 q 322 -231 322 -274 q 356 -144 322 -179 q 442 -110 390 -110 q 511 -135 488 -110 q 535 -204 535 -161 q 502 -293 535 -257 q 413 -329 469 -329 z "},"Ù":{"ha":974,"x_min":85,"x_max":1040,"o":"m 876 425 q 742 88 846 190 q 451 -14 639 -14 q 192 69 278 -14 q 106 290 107 151 q 111 403 106 363 l 182 949 l 85 964 l 93 1032 l 508 1032 l 501 965 l 376 947 l 307 418 q 297 285 297 328 q 347 122 299 181 q 486 64 394 64 q 672 153 608 64 q 760 425 736 242 l 831 947 l 733 965 l 739 1032 l 1040 1032 l 1032 965 l 944 949 l 876 425 m 633 1099 q 510 1172 581 1118 q 411 1278 440 1226 l 514 1356 l 701 1143 l 633 1099 z "},"Ủ":{"ha":974,"x_min":85,"x_max":1040,"o":"m 876 425 q 742 88 846 190 q 451 -14 639 -14 q 192 69 278 -14 q 106 290 107 151 q 111 403 106 363 l 182 949 l 85 964 l 93 1032 l 508 1032 l 501 965 l 376 947 l 307 418 q 297 285 297 328 q 347 122 299 181 q 486 64 394 64 q 672 153 608 64 q 760 425 736 242 l 831 947 l 733 965 l 739 1032 l 1040 1032 l 1032 965 l 944 949 l 876 425 m 563 1082 q 551 1118 551 1096 q 564 1152 551 1140 q 603 1176 576 1164 q 637 1197 625 1188 q 650 1224 649 1207 q 588 1274 653 1272 q 544 1271 551 1274 l 556 1357 q 578 1363 560 1360 q 613 1365 597 1365 q 747 1338 707 1365 q 782 1249 786 1311 q 756 1197 779 1219 q 681 1140 732 1175 q 651 1114 661 1126 q 642 1082 640 1101 l 563 1082 z "},"Ư":{"ha":1061,"x_min":85,"x_max":1169,"o":"m 93 1032 l 508 1032 l 501 965 l 376 947 l 307 418 q 297 285 297 328 q 347 122 299 181 q 486 64 394 64 q 672 153 608 64 q 760 425 736 242 l 831 947 l 733 965 l 739 1032 l 876 1032 q 985 1074 954 1032 q 1017 1178 1017 1115 q 1015 1201 1017 1196 l 1164 1201 q 1167 1171 1167 1179 q 1119 1019 1169 1071 q 944 949 1068 968 l 876 425 q 742 88 846 190 q 451 -14 639 -14 q 192 69 278 -14 q 106 290 107 151 q 111 403 106 363 l 182 949 l 85 964 l 93 1032 z "},"Ứ":{"ha":1061,"x_min":85,"x_max":1167,"o":"m 93 1032 l 508 1032 l 501 965 l 376 947 l 307 418 q 297 285 297 328 q 347 122 299 181 q 486 64 394 64 q 672 153 608 64 q 760 425 736 242 l 831 947 l 733 965 l 739 1032 l 876 1032 q 985 1074 954 1032 q 1017 1178 1017 1115 q 1015 1201 1017 1196 l 1164 1201 q 1167 1171 1167 1179 q 1119 1019 1169 1071 q 944 949 1068 968 l 876 425 q 742 88 846 190 q 451 -14 639 -14 q 192 69 278 -14 q 106 290 107 151 q 111 403 106 363 l 182 949 l 85 964 l 93 1032 m 736 1365 l 840 1278 q 729 1183 810 1236 q 597 1110 649 1129 l 524 1158 l 736 1365 z "},"Ự":{"ha":1061,"x_min":85,"x_max":1167,"o":"m 93 1032 l 508 1032 l 501 965 l 376 947 l 307 418 q 297 285 297 328 q 347 122 299 181 q 486 64 394 64 q 672 153 608 64 q 760 425 736 242 l 831 947 l 733 965 l 739 1032 l 876 1032 q 985 1074 954 1032 q 1017 1178 1017 1115 q 1015 1201 1017 1196 l 1164 1201 q 1167 1171 1167 1179 q 1119 1019 1169 1071 q 944 949 1068 968 l 876 425 q 742 88 846 190 q 451 -14 639 -14 q 192 69 278 -14 q 106 290 107 151 q 111 403 106 363 l 182 949 l 85 964 l 93 1032 m 406 -329 q 340 -301 364 -329 q 315 -231 315 -274 q 349 -144 315 -179 q 435 -110 383 -110 q 504 -135 481 -110 q 528 -204 528 -161 q 495 -293 528 -257 q 406 -329 463 -329 z "},"Ừ":{"ha":1061,"x_min":85,"x_max":1167,"o":"m 93 1032 l 508 1032 l 501 965 l 376 947 l 307 418 q 297 285 297 328 q 347 122 299 181 q 486 64 394 64 q 672 153 608 64 q 760 425 736 242 l 831 947 l 733 965 l 739 1032 l 876 1032 q 985 1074 954 1032 q 1017 1178 1017 1115 q 1015 1201 1017 1196 l 1164 1201 q 1167 1171 1167 1179 q 1119 1019 1169 1071 q 944 949 1068 968 l 876 425 q 742 88 846 190 q 451 -14 639 -14 q 192 69 278 -14 q 106 290 107 151 q 111 403 106 363 l 182 949 l 85 964 l 93 1032 m 633 1099 q 510 1172 581 1118 q 411 1278 440 1226 l 514 1356 l 701 1143 l 633 1099 z "},"Ử":{"ha":1061,"x_min":85,"x_max":1167,"o":"m 93 1032 l 508 1032 l 501 965 l 376 947 l 307 418 q 297 285 297 328 q 347 122 299 181 q 486 64 394 64 q 672 153 608 64 q 760 425 736 242 l 831 947 l 733 965 l 739 1032 l 876 1032 q 985 1074 954 1032 q 1017 1178 1017 1115 q 1015 1201 1017 1196 l 1164 1201 q 1167 1171 1167 1179 q 1119 1019 1169 1071 q 944 949 1068 968 l 876 425 q 742 88 846 190 q 451 -14 639 -14 q 192 69 278 -14 q 106 290 107 151 q 111 403 106 363 l 182 949 l 85 964 l 93 1032 m 561 1119 q 546 1149 553 1131 q 540 1183 539 1168 q 553 1208 543 1199 q 586 1233 564 1218 q 620 1257 607 1246 q 639 1285 633 1268 l 639 1290 q 626 1329 642 1314 q 576 1346 611 1344 q 535 1343 540 1346 l 551 1456 q 574 1461 556 1458 q 608 1464 593 1464 q 735 1433 689 1464 q 781 1342 781 1403 q 776 1307 781 1326 q 748 1252 771 1274 q 686 1206 725 1231 q 661 1189 661 1189 q 640 1165 647 1178 q 635 1128 633 1151 l 561 1119 z "},"Ữ":{"ha":1061,"x_min":85,"x_max":1167,"o":"m 93 1032 l 508 1032 l 501 965 l 376 947 l 307 418 q 297 285 297 328 q 347 122 299 181 q 486 64 394 64 q 672 153 608 64 q 760 425 736 242 l 831 947 l 733 965 l 739 1032 l 876 1032 q 985 1074 954 1032 q 1017 1178 1017 1115 q 1015 1201 1017 1196 l 1164 1201 q 1167 1171 1167 1179 q 1119 1019 1169 1071 q 944 949 1068 968 l 876 425 q 742 88 846 190 q 451 -14 639 -14 q 192 69 278 -14 q 106 290 107 151 q 111 403 106 363 l 182 949 l 85 964 l 93 1032 m 371 1228 q 433 1308 389 1275 q 536 1342 478 1342 q 597 1327 572 1342 q 650 1285 622 1313 q 690 1252 674 1263 q 726 1242 706 1242 q 786 1261 761 1242 q 832 1310 811 1281 l 881 1246 q 817 1163 863 1200 q 718 1126 772 1126 q 653 1140 678 1126 q 597 1182 628 1154 q 556 1215 575 1204 q 511 1226 538 1226 q 461 1212 482 1226 q 414 1168 440 1197 l 371 1228 z "},"Ű":{"ha":974,"x_min":85,"x_max":1040,"o":"m 876 425 q 742 88 846 190 q 451 -14 639 -14 q 192 69 278 -14 q 106 290 107 151 q 111 403 106 363 l 182 949 l 85 964 l 93 1032 l 508 1032 l 501 965 l 376 947 l 307 418 q 297 285 297 328 q 347 122 299 181 q 486 64 394 64 q 672 153 608 64 q 760 425 736 242 l 831 947 l 733 965 l 739 1032 l 1040 1032 l 1032 965 l 944 949 l 876 425 m 521 1361 l 628 1299 q 528 1182 603 1244 q 392 1093 453 1119 l 333 1138 l 521 1361 m 853 1361 l 960 1299 q 853 1178 924 1240 q 724 1093 783 1117 l 667 1138 l 853 1361 z "},"Ū":{"ha":974,"x_min":85,"x_max":1040,"o":"m 876 425 q 742 88 846 190 q 451 -14 639 -14 q 192 69 278 -14 q 106 290 107 151 q 111 403 106 363 l 182 949 l 85 964 l 93 1032 l 508 1032 l 501 965 l 376 947 l 307 418 q 297 285 297 328 q 347 122 299 181 q 486 64 394 64 q 672 153 608 64 q 760 425 736 242 l 831 947 l 733 965 l 739 1032 l 1040 1032 l 1032 965 l 944 949 l 876 425 m 819 1289 l 806 1165 l 432 1165 l 446 1289 l 819 1289 z "},"Ų":{"ha":974,"x_min":85,"x_max":1040,"o":"m 876 425 q 783 139 853 240 q 596 4 714 38 q 524 -75 551 -36 q 497 -143 497 -114 q 510 -186 497 -172 q 543 -200 522 -200 q 647 -151 592 -200 l 669 -219 q 577 -285 632 -260 q 456 -311 522 -311 q 366 -281 396 -311 q 336 -203 336 -251 q 342 -163 336 -185 q 360 -126 349 -142 q 469 -14 397 -65 l 451 -14 q 192 69 278 -14 q 106 290 107 151 q 111 403 106 363 l 182 949 l 85 964 l 93 1032 l 508 1032 l 501 965 l 376 947 l 307 418 q 297 285 297 328 q 347 122 299 181 q 486 64 394 64 q 672 153 608 64 q 760 425 736 242 l 831 947 l 733 965 l 739 1032 l 1040 1032 l 1032 965 l 944 949 l 876 425 z "},"Ů":{"ha":974,"x_min":85,"x_max":1040,"o":"m 876 425 q 742 88 846 190 q 451 -14 639 -14 q 192 69 278 -14 q 106 290 107 151 q 111 403 106 363 l 182 949 l 85 964 l 93 1032 l 508 1032 l 501 965 l 376 947 l 307 418 q 297 285 297 328 q 347 122 299 181 q 486 64 394 64 q 672 153 608 64 q 760 425 736 242 l 831 947 l 733 965 l 739 1032 l 1040 1032 l 1032 965 l 944 949 l 876 425 m 601 1049 q 450 1087 510 1049 q 390 1196 390 1125 q 431 1294 390 1256 q 529 1349 471 1332 q 646 1365 588 1365 q 790 1331 732 1365 q 849 1232 849 1296 q 775 1094 849 1139 q 601 1049 701 1049 m 608 1126 q 738 1222 738 1126 q 707 1272 738 1254 q 632 1289 676 1289 q 540 1270 578 1289 q 503 1204 503 1251 q 534 1147 503 1168 q 608 1126 565 1126 z "},"Ũ":{"ha":974,"x_min":85,"x_max":1040,"o":"m 876 425 q 742 88 846 190 q 451 -14 639 -14 q 192 69 278 -14 q 106 290 107 151 q 111 403 106 363 l 182 949 l 85 964 l 93 1032 l 508 1032 l 501 965 l 376 947 l 307 418 q 297 285 297 328 q 347 122 299 181 q 486 64 394 64 q 672 153 608 64 q 760 425 736 242 l 831 947 l 733 965 l 739 1032 l 1040 1032 l 1032 965 l 944 949 l 876 425 m 371 1228 q 433 1308 389 1275 q 536 1342 478 1342 q 597 1327 572 1342 q 650 1285 622 1313 q 690 1252 674 1263 q 726 1242 706 1242 q 786 1261 761 1242 q 832 1310 811 1281 l 881 1246 q 817 1163 863 1200 q 718 1126 772 1126 q 653 1140 678 1126 q 597 1182 628 1154 q 556 1215 575 1204 q 511 1226 538 1226 q 461 1212 482 1226 q 414 1168 440 1197 l 371 1228 z "},"V":{"ha":836,"x_min":3,"x_max":971,"o":"m 421 1032 l 414 964 l 300 947 l 381 332 l 399 160 l 465 332 l 744 947 l 631 964 l 636 1032 l 971 1032 l 960 964 l 864 949 l 421 -7 l 253 -10 l 97 947 l 3 965 l 11 1032 l 421 1032 z "},"W":{"ha":1290,"x_min":-3,"x_max":1467,"o":"m 399 1032 l 393 964 l 290 947 l 361 329 l 381 168 l 436 317 l 653 850 l 643 947 l 539 965 l 546 1032 l 951 1032 l 944 964 l 836 947 l 897 329 l 904 168 l 965 321 l 1232 947 l 1094 964 l 1101 1032 l 1467 1032 l 1458 965 l 1356 947 l 919 -7 l 743 -7 l 678 657 l 406 -7 l 232 -7 l 92 947 l -3 965 l 6 1032 l 399 1032 z "},"Ẃ":{"ha":1290,"x_min":-3,"x_max":1467,"o":"m 399 1032 l 393 964 l 290 947 l 361 329 l 381 168 l 436 317 l 653 850 l 643 947 l 539 965 l 546 1032 l 951 1032 l 944 964 l 836 947 l 897 329 l 904 168 l 965 321 l 1232 947 l 1094 964 l 1101 1032 l 1467 1032 l 1458 965 l 1356 947 l 919 -7 l 743 -7 l 678 657 l 406 -7 l 232 -7 l 92 947 l -3 965 l 6 1032 l 399 1032 m 903 1365 l 1007 1278 q 896 1183 976 1236 q 764 1110 815 1129 l 690 1158 l 903 1365 z "},"Ŵ":{"ha":1290,"x_min":-3,"x_max":1467,"o":"m 399 1032 l 393 964 l 290 947 l 361 329 l 381 168 l 436 317 l 653 850 l 643 947 l 539 965 l 546 1032 l 951 1032 l 944 964 l 836 947 l 897 329 l 904 168 l 965 321 l 1232 947 l 1094 964 l 1101 1032 l 1467 1032 l 1458 965 l 1356 947 l 919 -7 l 743 -7 l 678 657 l 406 -7 l 232 -7 l 92 947 l -3 965 l 6 1032 l 399 1032 m 753 1363 l 864 1363 l 1008 1128 l 940 1090 l 796 1242 l 574 1092 l 514 1128 l 753 1363 z "},"Ẅ":{"ha":1290,"x_min":-3,"x_max":1467,"o":"m 399 1032 l 393 964 l 290 947 l 361 329 l 381 168 l 436 317 l 653 850 l 643 947 l 539 965 l 546 1032 l 951 1032 l 944 964 l 836 947 l 897 329 l 904 168 l 965 321 l 1232 947 l 1094 964 l 1101 1032 l 1467 1032 l 1458 965 l 1356 947 l 919 -7 l 743 -7 l 678 657 l 406 -7 l 232 -7 l 92 947 l -3 965 l 6 1032 l 399 1032 m 625 1142 q 567 1166 590 1142 q 543 1228 543 1190 q 572 1308 543 1276 q 646 1339 601 1339 q 708 1315 685 1339 q 731 1256 731 1292 q 703 1172 731 1203 q 625 1142 676 1142 m 943 1142 q 885 1166 908 1142 q 863 1228 863 1190 q 891 1308 863 1278 q 964 1339 919 1339 q 1026 1315 1003 1339 q 1049 1256 1049 1292 q 1021 1173 1049 1204 q 943 1142 993 1142 z "},"Ẁ":{"ha":1290,"x_min":-3,"x_max":1467,"o":"m 399 1032 l 393 964 l 290 947 l 361 329 l 381 168 l 436 317 l 653 850 l 643 947 l 539 965 l 546 1032 l 951 1032 l 944 964 l 836 947 l 897 329 l 904 168 l 965 321 l 1232 947 l 1094 964 l 1101 1032 l 1467 1032 l 1458 965 l 1356 947 l 919 -7 l 743 -7 l 678 657 l 406 -7 l 232 -7 l 92 947 l -3 965 l 6 1032 l 399 1032 m 800 1099 q 677 1172 747 1118 q 578 1278 607 1226 l 681 1356 l 868 1143 l 800 1099 z "},"X":{"ha":917,"x_min":-49,"x_max":989,"o":"m 506 1032 l 500 965 l 394 949 l 522 624 l 743 947 l 644 964 l 649 1032 l 989 1032 l 985 964 l 889 949 l 565 535 l 792 83 l 886 64 l 881 0 l 449 0 l 454 64 l 560 82 l 422 415 l 192 83 l 301 64 l 294 0 l -49 0 l -42 64 l 40 82 l 379 510 l 172 947 l 85 964 l 92 1032 l 506 1032 z "},"Y":{"ha":854,"x_min":22,"x_max":981,"o":"m 457 1032 l 447 964 l 328 947 l 456 596 l 488 499 l 533 585 l 751 947 l 642 964 l 649 1032 l 981 1032 l 972 964 l 888 949 l 536 406 l 493 83 l 654 64 l 649 0 l 136 0 l 143 64 l 301 83 l 342 406 l 108 947 l 22 964 l 29 1032 l 457 1032 z "},"Ý":{"ha":854,"x_min":22,"x_max":981,"o":"m 457 1032 l 447 964 l 328 947 l 456 596 l 488 499 l 533 585 l 751 947 l 642 964 l 649 1032 l 981 1032 l 972 964 l 888 949 l 536 406 l 493 83 l 654 64 l 649 0 l 136 0 l 143 64 l 301 83 l 342 406 l 108 947 l 22 964 l 29 1032 l 457 1032 m 692 1365 l 796 1278 q 685 1183 765 1236 q 553 1110 604 1129 l 479 1158 l 692 1365 z "},"Ŷ":{"ha":854,"x_min":22,"x_max":981,"o":"m 457 1032 l 447 964 l 328 947 l 456 596 l 488 499 l 533 585 l 751 947 l 642 964 l 649 1032 l 981 1032 l 972 964 l 888 949 l 536 406 l 493 83 l 654 64 l 649 0 l 136 0 l 143 64 l 301 83 l 342 406 l 108 947 l 22 964 l 29 1032 l 457 1032 m 542 1363 l 653 1363 l 797 1128 l 729 1090 l 585 1242 l 363 1092 l 303 1128 l 542 1363 z "},"Ÿ":{"ha":854,"x_min":22,"x_max":981,"o":"m 457 1032 l 447 964 l 328 947 l 456 596 l 488 499 l 533 585 l 751 947 l 642 964 l 649 1032 l 981 1032 l 972 964 l 888 949 l 536 406 l 493 83 l 654 64 l 649 0 l 136 0 l 143 64 l 301 83 l 342 406 l 108 947 l 22 964 l 29 1032 l 457 1032 m 414 1142 q 356 1166 379 1142 q 332 1228 332 1190 q 361 1308 332 1276 q 435 1339 390 1339 q 497 1315 474 1339 q 519 1256 519 1292 q 492 1172 519 1203 q 414 1142 465 1142 m 732 1142 q 674 1166 697 1142 q 651 1228 651 1190 q 680 1308 651 1278 q 753 1339 708 1339 q 815 1315 792 1339 q 838 1256 838 1292 q 810 1173 838 1204 q 732 1142 782 1142 z "},"Ẏ":{"ha":854,"x_min":22,"x_max":981,"o":"m 457 1032 l 447 964 l 328 947 l 456 596 l 488 499 l 533 585 l 751 947 l 642 964 l 649 1032 l 981 1032 l 972 964 l 888 949 l 536 406 l 493 83 l 654 64 l 649 0 l 136 0 l 143 64 l 301 83 l 342 406 l 108 947 l 22 964 l 29 1032 l 457 1032 m 571 1126 q 506 1154 535 1126 q 476 1217 476 1182 q 510 1299 476 1265 q 592 1333 543 1333 q 663 1307 633 1333 q 692 1246 692 1281 q 659 1160 692 1194 q 571 1126 626 1126 z "},"Ỵ":{"ha":854,"x_min":22,"x_max":981,"o":"m 457 1032 l 447 964 l 328 947 l 456 596 l 488 499 l 533 585 l 751 947 l 642 964 l 649 1032 l 981 1032 l 972 964 l 888 949 l 536 406 l 493 83 l 654 64 l 649 0 l 136 0 l 143 64 l 301 83 l 342 406 l 108 947 l 22 964 l 29 1032 l 457 1032 m 328 -329 q 262 -301 286 -329 q 238 -231 238 -274 q 272 -144 238 -179 q 357 -110 306 -110 q 426 -135 403 -110 q 450 -204 450 -161 q 417 -293 450 -257 q 328 -329 385 -329 z "},"Ỳ":{"ha":854,"x_min":22,"x_max":981,"o":"m 457 1032 l 447 964 l 328 947 l 456 596 l 488 499 l 533 585 l 751 947 l 642 964 l 649 1032 l 981 1032 l 972 964 l 888 949 l 536 406 l 493 83 l 654 64 l 649 0 l 136 0 l 143 64 l 301 83 l 342 406 l 108 947 l 22 964 l 29 1032 l 457 1032 m 589 1099 q 466 1172 536 1118 q 367 1278 396 1226 l 469 1356 l 657 1143 l 589 1099 z "},"Ỷ":{"ha":854,"x_min":22,"x_max":981,"o":"m 457 1032 l 447 964 l 328 947 l 456 596 l 488 499 l 533 585 l 751 947 l 642 964 l 649 1032 l 981 1032 l 972 964 l 888 949 l 536 406 l 493 83 l 654 64 l 649 0 l 136 0 l 143 64 l 301 83 l 342 406 l 108 947 l 22 964 l 29 1032 l 457 1032 m 518 1082 q 507 1118 507 1096 q 519 1152 507 1140 q 558 1176 532 1164 q 592 1197 581 1188 q 606 1224 604 1207 q 543 1274 608 1272 q 500 1271 507 1274 l 511 1357 q 534 1363 515 1360 q 568 1365 553 1365 q 702 1338 663 1365 q 738 1249 742 1311 q 711 1197 735 1219 q 636 1140 688 1175 q 606 1114 617 1126 q 597 1082 596 1101 l 518 1082 z "},"Ỹ":{"ha":854,"x_min":22,"x_max":981,"o":"m 457 1032 l 447 964 l 328 947 l 456 596 l 488 499 l 533 585 l 751 947 l 642 964 l 649 1032 l 981 1032 l 972 964 l 888 949 l 536 406 l 493 83 l 654 64 l 649 0 l 136 0 l 143 64 l 301 83 l 342 406 l 108 947 l 22 964 l 29 1032 l 457 1032 m 326 1228 q 389 1308 344 1275 q 492 1342 433 1342 q 553 1327 528 1342 q 606 1285 578 1313 q 645 1252 629 1263 q 682 1242 661 1242 q 742 1261 717 1242 q 788 1310 767 1281 l 836 1246 q 773 1163 818 1200 q 674 1126 728 1126 q 608 1140 633 1126 q 553 1182 583 1154 q 512 1215 531 1204 q 467 1226 493 1226 q 417 1212 438 1226 q 369 1168 396 1197 l 326 1228 z "},"Z":{"ha":825,"x_min":-24,"x_max":863,"o":"m 844 1032 l 863 978 l 282 168 l 199 82 l 581 97 l 697 306 l 797 276 l 731 0 l -4 0 l -24 57 l 557 861 l 651 953 l 304 943 l 219 761 l 119 776 l 161 1032 l 844 1032 z "},"Ź":{"ha":825,"x_min":-24,"x_max":863,"o":"m 844 1032 l 863 978 l 282 168 l 199 82 l 581 97 l 697 306 l 797 276 l 731 0 l -4 0 l -24 57 l 557 861 l 651 953 l 304 943 l 219 761 l 119 776 l 161 1032 l 844 1032 m 633 1404 l 738 1317 q 626 1222 707 1275 q 494 1149 546 1168 l 421 1197 l 633 1404 z "},"Ž":{"ha":825,"x_min":-24,"x_max":863,"o":"m 844 1032 l 863 978 l 282 168 l 199 82 l 581 97 l 697 306 l 797 276 l 731 0 l -4 0 l -24 57 l 557 861 l 651 953 l 304 943 l 219 761 l 119 776 l 161 1032 l 844 1032 m 381 1401 l 522 1253 l 733 1401 l 793 1365 l 561 1135 l 456 1135 l 311 1365 l 381 1401 z "},"Ż":{"ha":825,"x_min":-24,"x_max":863,"o":"m 844 1032 l 863 978 l 282 168 l 199 82 l 581 97 l 697 306 l 797 276 l 731 0 l -4 0 l -24 57 l 557 861 l 651 953 l 304 943 l 219 761 l 119 776 l 161 1032 l 844 1032 m 513 1165 q 447 1193 476 1165 q 418 1256 418 1221 q 451 1338 418 1304 q 533 1372 485 1372 q 604 1346 575 1372 q 633 1285 633 1319 q 601 1199 633 1233 q 513 1165 568 1165 z "},"Ẓ":{"ha":825,"x_min":-24,"x_max":863,"o":"m 844 1032 l 863 978 l 282 168 l 199 82 l 581 97 l 697 306 l 797 276 l 731 0 l -4 0 l -24 57 l 557 861 l 651 953 l 304 943 l 219 761 l 119 776 l 161 1032 l 844 1032 m 318 -329 q 252 -301 276 -329 q 228 -231 228 -274 q 262 -144 228 -179 q 347 -110 296 -110 q 417 -135 393 -110 q 440 -204 440 -161 q 408 -293 440 -257 q 318 -329 375 -329 z "},"a":{"ha":815,"x_min":47,"x_max":769,"o":"m 661 142 q 660 125 660 136 q 688 89 660 89 q 750 122 710 89 l 769 79 q 705 19 751 51 q 597 -14 658 -14 q 522 7 550 -14 q 493 71 494 28 l 496 94 q 401 17 457 49 q 279 -14 346 -14 q 105 66 163 -14 q 47 275 47 146 q 101 521 47 403 q 257 714 154 639 q 501 789 360 789 q 580 781 538 789 q 654 761 622 772 l 750 789 l 661 142 m 554 690 q 486 703 528 703 q 347 640 403 703 q 266 480 292 576 q 240 285 240 383 q 268 142 240 193 q 350 92 296 92 q 420 115 385 92 q 483 171 456 139 l 554 690 z "},"á":{"ha":815,"x_min":47,"x_max":769,"o":"m 661 142 q 660 125 660 136 q 688 89 660 89 q 750 122 710 89 l 769 79 q 705 19 751 51 q 597 -14 658 -14 q 522 7 550 -14 q 493 71 494 28 l 496 94 q 401 17 457 49 q 279 -14 346 -14 q 105 66 163 -14 q 47 275 47 146 q 101 521 47 403 q 257 714 154 639 q 501 789 360 789 q 580 781 538 789 q 654 761 622 772 l 750 789 l 661 142 m 554 690 q 486 703 528 703 q 347 640 403 703 q 266 480 292 576 q 240 285 240 383 q 268 142 240 193 q 350 92 296 92 q 420 115 385 92 q 483 171 456 139 l 554 690 m 646 1222 l 758 1113 q 693 1041 746 1090 q 579 944 640 992 q 479 881 518 897 l 426 932 l 646 1222 z "},"ă":{"ha":815,"x_min":47,"x_max":769,"o":"m 661 142 q 660 125 660 136 q 688 89 660 89 q 750 122 710 89 l 769 79 q 705 19 751 51 q 597 -14 658 -14 q 522 7 550 -14 q 493 71 494 28 l 496 94 q 401 17 457 49 q 279 -14 346 -14 q 105 66 163 -14 q 47 275 47 146 q 101 521 47 403 q 257 714 154 639 q 501 789 360 789 q 580 781 538 789 q 654 761 622 772 l 750 789 l 661 142 m 554 690 q 486 703 528 703 q 347 640 403 703 q 266 480 292 576 q 240 285 240 383 q 268 142 240 193 q 350 92 296 92 q 420 115 385 92 q 483 171 456 139 l 554 690 m 518 888 q 367 949 421 888 q 313 1097 313 1010 q 315 1135 313 1113 l 417 1135 l 418 1107 q 448 1040 421 1068 q 528 1013 475 1013 q 621 1047 596 1013 q 651 1135 646 1081 l 751 1135 l 751 1113 q 722 1005 749 1057 q 644 920 696 953 q 518 888 592 888 z "},"ắ":{"ha":815,"x_min":47,"x_max":769,"o":"m 661 142 q 660 125 660 136 q 688 89 660 89 q 750 122 710 89 l 769 79 q 705 19 751 51 q 597 -14 658 -14 q 522 7 550 -14 q 493 71 494 28 l 496 94 q 401 17 457 49 q 279 -14 346 -14 q 105 66 163 -14 q 47 275 47 146 q 101 521 47 403 q 257 714 154 639 q 501 789 360 789 q 580 781 538 789 q 654 761 622 772 l 750 789 l 661 142 m 554 690 q 486 703 528 703 q 347 640 403 703 q 266 480 292 576 q 240 285 240 383 q 268 142 240 193 q 350 92 296 92 q 420 115 385 92 q 483 171 456 139 l 554 690 m 454 1169 l 635 1364 l 725 1274 q 622 1182 689 1236 q 519 1111 554 1128 l 454 1169 m 510 890 q 374 929 428 890 q 319 1040 319 968 q 321 1067 319 1057 q 331 1114 324 1094 l 424 1114 q 418 1085 422 1110 q 442 1028 414 1047 q 529 1010 471 1010 q 622 1028 590 1010 q 663 1083 654 1046 q 665 1114 665 1103 l 757 1113 q 754 1068 757 1085 q 670 937 743 983 q 510 890 597 890 z "},"ặ":{"ha":815,"x_min":47,"x_max":769,"o":"m 661 142 q 660 125 660 136 q 688 89 660 89 q 750 122 710 89 l 769 79 q 705 19 751 51 q 597 -14 658 -14 q 522 7 550 -14 q 493 71 494 28 l 496 94 q 401 17 457 49 q 279 -14 346 -14 q 105 66 163 -14 q 47 275 47 146 q 101 521 47 403 q 257 714 154 639 q 501 789 360 789 q 580 781 538 789 q 654 761 622 772 l 750 789 l 661 142 m 554 690 q 486 703 528 703 q 347 640 403 703 q 266 480 292 576 q 240 285 240 383 q 268 142 240 193 q 350 92 296 92 q 420 115 385 92 q 483 171 456 139 l 554 690 m 315 -329 q 249 -301 274 -329 q 225 -231 225 -274 q 259 -144 225 -179 q 344 -110 293 -110 q 414 -135 390 -110 q 438 -204 438 -161 q 405 -293 438 -257 q 315 -329 372 -329 m 518 888 q 367 949 421 888 q 313 1097 313 1010 q 315 1135 313 1113 l 417 1135 l 418 1107 q 448 1040 421 1068 q 528 1013 475 1013 q 621 1047 596 1013 q 651 1135 646 1081 l 751 1135 l 751 1113 q 722 1005 749 1057 q 644 920 696 953 q 518 888 592 888 z "},"ằ":{"ha":815,"x_min":47,"x_max":769,"o":"m 661 142 q 660 125 660 136 q 688 89 660 89 q 750 122 710 89 l 769 79 q 705 19 751 51 q 597 -14 658 -14 q 522 7 550 -14 q 493 71 494 28 l 496 94 q 401 17 457 49 q 279 -14 346 -14 q 105 66 163 -14 q 47 275 47 146 q 101 521 47 403 q 257 714 154 639 q 501 789 360 789 q 580 781 538 789 q 654 761 622 772 l 750 789 l 661 142 m 554 690 q 486 703 528 703 q 347 640 403 703 q 266 480 292 576 q 240 285 240 383 q 268 142 240 193 q 350 92 296 92 q 420 115 385 92 q 483 171 456 139 l 554 690 m 557 1111 q 476 1182 526 1128 q 401 1274 425 1236 l 522 1364 l 640 1169 l 557 1111 m 510 890 q 374 929 428 890 q 319 1040 319 968 q 321 1067 319 1057 q 331 1114 324 1094 l 424 1114 q 418 1085 422 1110 q 442 1028 414 1047 q 529 1010 471 1010 q 622 1028 590 1010 q 663 1083 654 1046 q 665 1114 665 1103 l 757 1113 q 754 1068 757 1085 q 670 937 743 983 q 510 890 597 890 z "},"ẳ":{"ha":815,"x_min":47,"x_max":769,"o":"m 661 142 q 660 125 660 136 q 688 89 660 89 q 750 122 710 89 l 769 79 q 705 19 751 51 q 597 -14 658 -14 q 522 7 550 -14 q 493 71 494 28 l 496 94 q 401 17 457 49 q 279 -14 346 -14 q 105 66 163 -14 q 47 275 47 146 q 101 521 47 403 q 257 714 154 639 q 501 789 360 789 q 580 781 538 789 q 654 761 622 772 l 750 789 l 661 142 m 554 690 q 486 703 528 703 q 347 640 403 703 q 266 480 292 576 q 240 285 240 383 q 268 142 240 193 q 350 92 296 92 q 420 115 385 92 q 483 171 456 139 l 554 690 m 511 1074 q 499 1097 504 1081 q 496 1126 493 1113 q 510 1158 499 1146 q 544 1182 522 1169 q 574 1203 564 1194 q 585 1226 583 1213 q 521 1271 592 1269 q 492 1269 508 1272 q 467 1264 475 1267 l 482 1357 q 510 1361 483 1358 q 551 1364 536 1364 q 662 1339 622 1364 q 701 1263 701 1314 q 700 1239 701 1247 q 674 1187 696 1207 q 601 1133 651 1167 q 574 1074 569 1113 l 511 1074 m 511 890 q 375 929 429 890 q 321 1040 321 968 q 322 1067 321 1057 q 332 1114 325 1094 l 425 1114 q 419 1085 424 1110 q 444 1028 415 1047 q 531 1010 472 1010 q 624 1028 592 1010 q 664 1083 656 1046 q 667 1114 667 1103 l 758 1113 q 756 1068 758 1085 q 672 937 744 983 q 511 890 599 890 z "},"ẵ":{"ha":815,"x_min":47,"x_max":783,"o":"m 661 142 q 660 125 660 136 q 688 89 660 89 q 750 122 710 89 l 769 79 q 705 19 751 51 q 597 -14 658 -14 q 522 7 550 -14 q 493 71 494 28 l 496 94 q 401 17 457 49 q 279 -14 346 -14 q 105 66 163 -14 q 47 275 47 146 q 101 521 47 403 q 257 714 154 639 q 501 789 360 789 q 580 781 538 789 q 654 761 622 772 l 750 789 l 661 142 m 554 690 q 486 703 528 703 q 347 640 403 703 q 266 480 292 576 q 240 285 240 383 q 268 142 240 193 q 350 92 296 92 q 420 115 385 92 q 483 171 456 139 l 554 690 m 346 1226 q 413 1317 371 1282 q 508 1353 454 1353 q 556 1343 538 1353 q 600 1313 575 1333 q 633 1289 621 1296 q 663 1282 644 1282 q 701 1293 686 1282 q 729 1326 715 1304 l 783 1297 q 717 1206 757 1240 q 625 1171 678 1171 q 577 1181 596 1171 q 535 1210 558 1190 q 502 1233 517 1225 q 469 1242 488 1242 q 433 1231 446 1242 q 399 1197 419 1221 l 346 1226 m 510 890 q 374 929 428 890 q 319 1040 319 968 q 321 1067 319 1057 q 331 1114 324 1094 l 424 1114 q 418 1085 422 1110 q 442 1028 414 1047 q 529 1010 471 1010 q 622 1028 590 1010 q 663 1083 654 1046 q 665 1114 665 1103 l 757 1113 q 754 1068 757 1085 q 670 937 743 983 q 510 890 597 890 z "},"ǎ":{"ha":815,"x_min":47,"x_max":814,"o":"m 661 142 q 660 125 660 136 q 688 89 660 89 q 750 122 710 89 l 769 79 q 705 19 751 51 q 597 -14 658 -14 q 522 7 550 -14 q 493 71 494 28 l 496 94 q 401 17 457 49 q 279 -14 346 -14 q 105 66 163 -14 q 47 275 47 146 q 101 521 47 403 q 257 714 154 639 q 501 789 360 789 q 580 781 538 789 q 654 761 622 772 l 750 789 l 661 142 m 554 690 q 486 703 528 703 q 347 640 403 703 q 266 480 292 576 q 240 285 240 383 q 268 142 240 193 q 350 92 296 92 q 420 115 385 92 q 483 171 456 139 l 554 690 m 393 1164 l 533 1007 l 753 1164 l 814 1126 l 574 881 l 464 881 l 322 1126 l 393 1164 z "},"â":{"ha":815,"x_min":47,"x_max":769,"o":"m 661 142 q 660 125 660 136 q 688 89 660 89 q 750 122 710 89 l 769 79 q 705 19 751 51 q 597 -14 658 -14 q 522 7 550 -14 q 493 71 494 28 l 496 94 q 401 17 457 49 q 279 -14 346 -14 q 105 66 163 -14 q 47 275 47 146 q 101 521 47 403 q 257 714 154 639 q 501 789 360 789 q 580 781 538 789 q 654 761 622 772 l 750 789 l 661 142 m 554 690 q 486 703 528 703 q 347 640 403 703 q 266 480 292 576 q 240 285 240 383 q 268 142 240 193 q 350 92 296 92 q 420 115 385 92 q 483 171 456 139 l 554 690 m 544 1178 l 654 1111 l 738 904 l 633 926 l 474 989 l 314 886 l 331 981 l 544 1178 z "},"ấ":{"ha":815,"x_min":47,"x_max":1025,"o":"m 661 142 q 660 125 660 136 q 688 89 660 89 q 750 122 710 89 l 769 79 q 705 19 751 51 q 597 -14 658 -14 q 522 7 550 -14 q 493 71 494 28 l 496 94 q 401 17 457 49 q 279 -14 346 -14 q 105 66 163 -14 q 47 275 47 146 q 101 521 47 403 q 257 714 154 639 q 501 789 360 789 q 580 781 538 789 q 654 761 622 772 l 750 789 l 661 142 m 554 690 q 486 703 528 703 q 347 640 403 703 q 266 480 292 576 q 240 285 240 383 q 268 142 240 193 q 350 92 296 92 q 420 115 385 92 q 483 171 456 139 l 554 690 m 719 1146 l 933 1363 l 1025 1271 q 906 1166 989 1229 q 774 1085 824 1103 l 719 1146 m 613 1139 l 772 924 l 692 875 l 536 1011 l 331 875 l 274 921 l 501 1139 l 613 1139 z "},"ậ":{"ha":815,"x_min":47,"x_max":769,"o":"m 661 142 q 660 125 660 136 q 688 89 660 89 q 750 122 710 89 l 769 79 q 705 19 751 51 q 597 -14 658 -14 q 522 7 550 -14 q 493 71 494 28 l 496 94 q 401 17 457 49 q 279 -14 346 -14 q 105 66 163 -14 q 47 275 47 146 q 101 521 47 403 q 257 714 154 639 q 501 789 360 789 q 580 781 538 789 q 654 761 622 772 l 750 789 l 661 142 m 554 690 q 486 703 528 703 q 347 640 403 703 q 266 480 292 576 q 240 285 240 383 q 268 142 240 193 q 350 92 296 92 q 420 115 385 92 q 483 171 456 139 l 554 690 m 315 -329 q 249 -301 274 -329 q 225 -231 225 -274 q 259 -144 225 -179 q 344 -110 293 -110 q 414 -135 390 -110 q 438 -204 438 -161 q 405 -293 438 -257 q 315 -329 372 -329 m 544 1178 l 654 1111 l 738 904 l 633 926 l 474 989 l 314 886 l 331 981 l 544 1178 z "},"ầ":{"ha":815,"x_min":47,"x_max":914,"o":"m 661 142 q 660 125 660 136 q 688 89 660 89 q 750 122 710 89 l 769 79 q 705 19 751 51 q 597 -14 658 -14 q 522 7 550 -14 q 493 71 494 28 l 496 94 q 401 17 457 49 q 279 -14 346 -14 q 105 66 163 -14 q 47 275 47 146 q 101 521 47 403 q 257 714 154 639 q 501 789 360 789 q 580 781 538 789 q 654 761 622 772 l 750 789 l 661 142 m 554 690 q 486 703 528 703 q 347 640 403 703 q 266 480 292 576 q 240 285 240 383 q 268 142 240 193 q 350 92 296 92 q 420 115 385 92 q 483 171 456 139 l 554 690 m 842 1100 q 743 1172 799 1118 q 657 1274 688 1225 l 779 1364 l 914 1160 l 842 1100 m 610 1139 l 769 924 l 689 875 l 535 1011 l 328 875 l 271 921 l 500 1139 l 610 1139 z "},"ẩ":{"ha":815,"x_min":47,"x_max":972,"o":"m 661 142 q 660 125 660 136 q 688 89 660 89 q 750 122 710 89 l 769 79 q 705 19 751 51 q 597 -14 658 -14 q 522 7 550 -14 q 493 71 494 28 l 496 94 q 401 17 457 49 q 279 -14 346 -14 q 105 66 163 -14 q 47 275 47 146 q 101 521 47 403 q 257 714 154 639 q 501 789 360 789 q 580 781 538 789 q 654 761 622 772 l 750 789 l 661 142 m 554 690 q 486 703 528 703 q 347 640 403 703 q 266 480 292 576 q 240 285 240 383 q 268 142 240 193 q 350 92 296 92 q 420 115 385 92 q 483 171 456 139 l 554 690 m 779 1017 q 764 1072 761 1049 q 777 1094 767 1085 q 806 1114 788 1103 q 836 1135 825 1125 q 853 1158 847 1144 l 853 1163 q 801 1210 853 1208 l 792 1210 q 764 1207 772 1210 l 783 1303 q 802 1307 786 1304 q 831 1310 818 1310 q 935 1285 897 1310 q 972 1211 972 1260 q 968 1176 972 1196 q 942 1131 961 1149 q 890 1092 922 1113 q 880 1085 886 1089 q 867 1076 874 1082 q 848 1055 854 1067 q 843 1024 842 1043 l 779 1017 m 608 1139 l 768 924 l 688 875 l 533 1011 l 326 875 l 269 921 l 499 1139 l 608 1139 z "},"ẫ":{"ha":815,"x_min":47,"x_max":788,"o":"m 661 142 q 660 125 660 136 q 688 89 660 89 q 750 122 710 89 l 769 79 q 705 19 751 51 q 597 -14 658 -14 q 522 7 550 -14 q 493 71 494 28 l 496 94 q 401 17 457 49 q 279 -14 346 -14 q 105 66 163 -14 q 47 275 47 146 q 101 521 47 403 q 257 714 154 639 q 501 789 360 789 q 580 781 538 789 q 654 761 622 772 l 750 789 l 661 142 m 554 690 q 486 703 528 703 q 347 640 403 703 q 266 480 292 576 q 240 285 240 383 q 268 142 240 193 q 350 92 296 92 q 420 115 385 92 q 483 171 456 139 l 554 690 m 350 1235 q 418 1325 375 1289 q 515 1361 461 1361 q 564 1351 544 1361 q 606 1321 583 1340 q 637 1298 625 1306 q 667 1290 649 1290 q 705 1301 690 1290 q 735 1335 719 1313 l 788 1306 q 721 1215 761 1249 q 626 1181 681 1181 q 580 1190 599 1181 q 538 1219 561 1200 q 505 1244 518 1236 q 474 1251 492 1251 q 437 1241 450 1251 q 403 1207 424 1231 l 350 1235 m 611 1139 l 771 924 l 690 875 l 536 1011 l 329 875 l 272 921 l 501 1139 l 611 1139 z "},"ä":{"ha":815,"x_min":47,"x_max":781,"o":"m 661 142 q 660 125 660 136 q 688 89 660 89 q 750 122 710 89 l 769 79 q 705 19 751 51 q 597 -14 658 -14 q 522 7 550 -14 q 493 71 494 28 l 496 94 q 401 17 457 49 q 279 -14 346 -14 q 105 66 163 -14 q 47 275 47 146 q 101 521 47 403 q 257 714 154 639 q 501 789 360 789 q 580 781 538 789 q 654 761 622 772 l 750 789 l 661 142 m 554 690 q 486 703 528 703 q 347 640 403 703 q 266 480 292 576 q 240 285 240 383 q 268 142 240 193 q 350 92 296 92 q 420 115 385 92 q 483 171 456 139 l 554 690 m 371 910 q 312 938 338 910 q 286 1004 286 967 q 315 1090 286 1056 q 392 1125 344 1125 q 456 1097 432 1125 q 481 1033 481 1069 q 453 944 481 979 q 371 910 425 910 m 671 910 q 612 938 638 910 q 586 1004 586 967 q 615 1090 586 1056 q 692 1125 644 1125 q 756 1097 731 1125 q 781 1033 781 1069 q 752 944 781 979 q 671 910 724 910 z "},"ạ":{"ha":815,"x_min":47,"x_max":769,"o":"m 661 142 q 660 125 660 136 q 688 89 660 89 q 750 122 710 89 l 769 79 q 705 19 751 51 q 597 -14 658 -14 q 522 7 550 -14 q 493 71 494 28 l 496 94 q 401 17 457 49 q 279 -14 346 -14 q 105 66 163 -14 q 47 275 47 146 q 101 521 47 403 q 257 714 154 639 q 501 789 360 789 q 580 781 538 789 q 654 761 622 772 l 750 789 l 661 142 m 554 690 q 486 703 528 703 q 347 640 403 703 q 266 480 292 576 q 240 285 240 383 q 268 142 240 193 q 350 92 296 92 q 420 115 385 92 q 483 171 456 139 l 554 690 m 315 -329 q 249 -301 274 -329 q 225 -231 225 -274 q 259 -144 225 -179 q 344 -110 293 -110 q 414 -135 390 -110 q 438 -204 438 -161 q 405 -293 438 -257 q 315 -329 372 -329 z "},"à":{"ha":815,"x_min":47,"x_max":769,"o":"m 661 142 q 660 125 660 136 q 688 89 660 89 q 750 122 710 89 l 769 79 q 705 19 751 51 q 597 -14 658 -14 q 522 7 550 -14 q 493 71 494 28 l 496 94 q 401 17 457 49 q 279 -14 346 -14 q 105 66 163 -14 q 47 275 47 146 q 101 521 47 403 q 257 714 154 639 q 501 789 360 789 q 580 781 538 789 q 654 761 622 772 l 750 789 l 661 142 m 554 690 q 486 703 528 703 q 347 640 403 703 q 266 480 292 576 q 240 285 240 383 q 268 142 240 193 q 350 92 296 92 q 420 115 385 92 q 483 171 456 139 l 554 690 m 539 888 q 399 989 489 913 q 282 1115 310 1065 l 400 1221 l 599 931 l 539 888 z "},"ả":{"ha":815,"x_min":47,"x_max":769,"o":"m 661 142 q 660 125 660 136 q 688 89 660 89 q 750 122 710 89 l 769 79 q 705 19 751 51 q 597 -14 658 -14 q 522 7 550 -14 q 493 71 494 28 l 496 94 q 401 17 457 49 q 279 -14 346 -14 q 105 66 163 -14 q 47 275 47 146 q 101 521 47 403 q 257 714 154 639 q 501 789 360 789 q 580 781 538 789 q 654 761 622 772 l 750 789 l 661 142 m 554 690 q 486 703 528 703 q 347 640 403 703 q 266 480 292 576 q 240 285 240 383 q 268 142 240 193 q 350 92 296 92 q 420 115 385 92 q 483 171 456 139 l 554 690 m 463 857 q 447 887 454 868 q 442 921 440 906 q 455 946 444 936 q 488 971 465 956 q 522 994 508 983 q 540 1022 535 1006 l 540 1028 q 528 1067 543 1051 q 478 1083 513 1082 q 436 1081 442 1083 l 453 1193 q 476 1199 457 1196 q 510 1201 494 1201 q 636 1171 590 1201 q 682 1079 682 1140 q 678 1044 682 1064 q 649 990 672 1011 q 588 943 626 968 q 563 926 563 926 q 542 902 549 915 q 536 865 535 889 l 463 857 z "},"ā":{"ha":815,"x_min":47,"x_max":769,"o":"m 661 142 q 660 125 660 136 q 688 89 660 89 q 750 122 710 89 l 769 79 q 705 19 751 51 q 597 -14 658 -14 q 522 7 550 -14 q 493 71 494 28 l 496 94 q 401 17 457 49 q 279 -14 346 -14 q 105 66 163 -14 q 47 275 47 146 q 101 521 47 403 q 257 714 154 639 q 501 789 360 789 q 580 781 538 789 q 654 761 622 772 l 750 789 l 661 142 m 554 690 q 486 703 528 703 q 347 640 403 703 q 266 480 292 576 q 240 285 240 383 q 268 142 240 193 q 350 92 296 92 q 420 115 385 92 q 483 171 456 139 l 554 690 m 722 1036 l 708 914 l 332 914 l 346 1036 l 722 1036 z "},"ą":{"ha":815,"x_min":47,"x_max":769,"o":"m 47 275 q 101 521 47 403 q 257 714 154 639 q 501 789 360 789 q 580 781 538 789 q 654 761 622 772 l 750 789 l 661 142 q 660 125 660 136 q 688 89 660 89 q 750 122 710 89 l 769 79 q 739 44 760 64 q 690 10 718 25 q 571 -133 571 -79 q 614 -185 571 -185 q 664 -173 640 -185 q 717 -137 688 -161 l 738 -204 q 645 -268 699 -243 q 529 -293 592 -293 q 441 -264 471 -293 q 411 -187 411 -235 q 419 -148 411 -171 q 439 -108 428 -125 q 546 -4 479 -47 q 493 71 494 11 l 496 94 q 401 17 457 49 q 279 -14 346 -14 q 105 66 163 -14 q 47 275 47 146 m 240 285 q 268 142 240 193 q 350 92 296 92 q 420 115 385 92 q 483 171 456 139 l 554 690 q 486 703 528 703 q 347 640 403 703 q 266 480 292 576 q 240 285 240 383 z "},"å":{"ha":815,"x_min":47,"x_max":769,"o":"m 661 142 q 660 125 660 136 q 688 89 660 89 q 750 122 710 89 l 769 79 q 705 19 751 51 q 597 -14 658 -14 q 522 7 550 -14 q 493 71 494 28 l 496 94 q 401 17 457 49 q 279 -14 346 -14 q 105 66 163 -14 q 47 275 47 146 q 101 521 47 403 q 257 714 154 639 q 501 789 360 789 q 580 781 538 789 q 654 761 622 772 l 750 789 l 661 142 m 554 690 q 486 703 528 703 q 347 640 403 703 q 266 480 292 576 q 240 285 240 383 q 268 142 240 193 q 350 92 296 92 q 420 115 385 92 q 483 171 456 139 l 554 690 m 518 896 q 367 939 422 896 q 311 1058 311 982 q 349 1178 311 1131 q 446 1247 388 1225 q 567 1268 504 1268 q 713 1224 657 1268 q 769 1107 769 1181 q 696 950 769 1004 q 518 896 622 896 m 529 976 q 621 1002 583 976 q 658 1089 658 1028 q 627 1160 658 1131 q 553 1190 596 1190 q 463 1160 501 1190 q 424 1072 424 1131 q 456 1004 424 1032 q 529 976 488 976 z "},"ǻ":{"ha":815,"x_min":47,"x_max":778,"o":"m 661 142 q 660 125 660 136 q 688 89 660 89 q 750 122 710 89 l 769 79 q 705 19 751 51 q 597 -14 658 -14 q 522 7 550 -14 q 493 71 494 28 l 496 94 q 401 17 457 49 q 279 -14 346 -14 q 105 66 163 -14 q 47 275 47 146 q 101 521 47 403 q 257 714 154 639 q 501 789 360 789 q 580 781 538 789 q 654 761 622 772 l 750 789 l 661 142 m 554 690 q 486 703 528 703 q 347 640 403 703 q 266 480 292 576 q 240 285 240 383 q 268 142 240 193 q 350 92 296 92 q 420 115 385 92 q 483 171 456 139 l 554 690 m 304 1044 q 365 1153 317 1117 q 492 1203 413 1190 l 621 1364 l 736 1304 q 626 1204 663 1228 q 738 1154 697 1192 q 778 1064 778 1117 q 776 1042 778 1049 q 692 909 763 951 q 511 867 621 867 q 363 908 424 867 q 301 1018 301 949 q 304 1044 301 1025 m 424 1032 q 453 975 424 996 q 528 954 482 954 q 617 972 583 954 q 657 1033 650 989 l 658 1047 q 629 1103 658 1083 q 554 1124 600 1124 q 461 1101 499 1124 q 424 1032 424 1078 z "},"ã":{"ha":815,"x_min":47,"x_max":778,"o":"m 661 142 q 660 125 660 136 q 688 89 660 89 q 750 122 710 89 l 769 79 q 705 19 751 51 q 597 -14 658 -14 q 522 7 550 -14 q 493 71 494 28 l 496 94 q 401 17 457 49 q 279 -14 346 -14 q 105 66 163 -14 q 47 275 47 146 q 101 521 47 403 q 257 714 154 639 q 501 789 360 789 q 580 781 538 789 q 654 761 622 772 l 750 789 l 661 142 m 554 690 q 486 703 528 703 q 347 640 403 703 q 266 480 292 576 q 240 285 240 383 q 268 142 240 193 q 350 92 296 92 q 420 115 385 92 q 483 171 456 139 l 554 690 m 285 988 q 349 1061 307 1031 q 438 1092 390 1092 q 502 1078 476 1092 q 556 1042 528 1065 q 593 1015 578 1024 q 628 1007 608 1007 q 681 1022 663 1007 q 725 1069 699 1036 l 778 1007 q 715 926 761 960 q 617 893 669 893 q 556 905 579 893 q 507 940 533 917 q 467 969 483 960 q 425 978 450 978 q 375 965 394 978 q 331 926 356 953 l 285 988 z "},"æ":{"ha":1181,"x_min":47,"x_max":1142,"o":"m 728 724 q 933 789 821 789 q 1089 740 1036 789 q 1142 615 1142 692 q 1070 447 1142 514 q 897 347 999 379 q 704 311 794 314 q 842 93 700 93 q 1060 200 964 93 l 1097 139 q 1033 70 1076 106 q 926 10 989 35 q 788 -14 863 -14 q 611 39 676 -14 q 522 182 546 92 q 405 44 474 103 q 257 -14 336 -14 q 96 63 144 -14 q 47 269 47 140 q 106 516 47 396 q 276 713 165 636 q 533 789 386 789 q 671 767 590 789 l 738 789 l 728 724 m 888 704 q 760 606 807 704 q 704 386 714 507 q 818 415 758 389 q 919 490 878 442 q 960 600 960 538 q 888 704 960 704 m 561 692 q 508 703 543 703 q 363 631 424 696 q 271 472 301 567 q 240 283 240 376 q 260 153 240 204 q 318 103 279 103 q 410 146 365 103 q 492 247 456 189 l 561 692 z "},"ǽ":{"ha":1181,"x_min":47,"x_max":1142,"o":"m 728 724 q 933 789 821 789 q 1089 740 1036 789 q 1142 615 1142 692 q 1070 447 1142 514 q 897 347 999 379 q 704 311 794 314 q 842 93 700 93 q 1060 200 964 93 l 1097 139 q 1033 70 1076 106 q 926 10 989 35 q 788 -14 863 -14 q 611 39 676 -14 q 522 182 546 92 q 405 44 474 103 q 257 -14 336 -14 q 96 63 144 -14 q 47 269 47 140 q 106 516 47 396 q 276 713 165 636 q 533 789 386 789 q 671 767 590 789 l 738 789 l 728 724 m 888 704 q 760 606 807 704 q 704 386 714 507 q 818 415 758 389 q 919 490 878 442 q 960 600 960 538 q 888 704 960 704 m 561 692 q 508 703 543 703 q 363 631 424 696 q 271 472 301 567 q 240 283 240 376 q 260 153 240 204 q 318 103 279 103 q 410 146 365 103 q 492 247 456 189 l 561 692 m 842 1224 l 954 1114 q 889 1042 942 1092 q 775 946 836 993 q 675 882 714 899 l 622 933 l 842 1224 z "},"b":{"ha":810,"x_min":58,"x_max":760,"o":"m 325 699 q 415 763 363 738 q 528 789 467 789 q 701 712 643 789 q 760 494 760 635 q 705 246 760 363 q 547 58 650 129 q 308 -14 444 -14 q 224 -4 269 -14 q 143 18 179 6 l 58 -10 l 190 1014 l 121 1042 l 133 1094 l 344 1119 l 378 1101 l 325 699 m 244 88 q 325 72 272 72 q 462 133 407 72 q 543 291 517 194 q 569 492 569 388 q 540 630 569 576 q 457 683 511 683 q 376 658 414 683 q 311 596 339 632 l 244 88 z "},"ḃ":{"ha":810,"x_min":58,"x_max":760,"o":"m 325 699 q 415 763 363 738 q 528 789 467 789 q 701 712 643 789 q 760 494 760 635 q 705 246 760 363 q 547 58 650 129 q 308 -14 444 -14 q 224 -4 269 -14 q 143 18 179 6 l 58 -10 l 190 1014 l 121 1042 l 133 1094 l 344 1119 l 378 1101 l 325 699 m 244 88 q 325 72 272 72 q 462 133 407 72 q 543 291 517 194 q 569 492 569 388 q 540 630 569 576 q 457 683 511 683 q 376 658 414 683 q 311 596 339 632 l 244 88 m 608 913 q 542 942 571 913 q 514 1011 514 971 q 547 1098 514 1064 q 632 1132 579 1132 q 703 1105 675 1132 q 731 1040 731 1078 q 699 947 731 982 q 608 913 668 913 z "},"ḅ":{"ha":810,"x_min":58,"x_max":760,"o":"m 325 699 q 415 763 363 738 q 528 789 467 789 q 701 712 643 789 q 760 494 760 635 q 705 246 760 363 q 547 58 650 129 q 308 -14 444 -14 q 224 -4 269 -14 q 143 18 179 6 l 58 -10 l 190 1014 l 121 1042 l 133 1094 l 344 1119 l 378 1101 l 325 699 m 244 88 q 325 72 272 72 q 462 133 407 72 q 543 291 517 194 q 569 492 569 388 q 540 630 569 576 q 457 683 511 683 q 376 658 414 683 q 311 596 339 632 l 244 88 m 276 -329 q 210 -301 235 -329 q 186 -231 186 -274 q 220 -144 186 -179 q 306 -110 254 -110 q 375 -135 351 -110 q 399 -204 399 -161 q 366 -293 399 -257 q 276 -329 333 -329 z "},"c":{"ha":636,"x_min":44,"x_max":633,"o":"m 549 582 q 480 660 510 631 q 428 690 450 690 q 333 643 376 690 q 262 511 289 596 q 235 321 235 426 q 268 152 235 206 q 369 99 301 99 q 469 121 428 99 q 549 183 510 143 l 585 122 q 476 28 550 71 q 300 -14 401 -14 q 113 70 181 -14 q 44 308 44 154 q 93 535 44 425 q 238 717 142 646 q 468 789 333 789 q 558 781 511 789 q 633 760 604 774 l 586 579 l 549 582 z "},"ć":{"ha":636,"x_min":44,"x_max":707,"o":"m 549 582 q 480 660 510 631 q 428 690 450 690 q 333 643 376 690 q 262 511 289 596 q 235 321 235 426 q 268 152 235 206 q 369 99 301 99 q 469 121 428 99 q 549 183 510 143 l 585 122 q 476 28 550 71 q 300 -14 401 -14 q 113 70 181 -14 q 44 308 44 154 q 93 535 44 425 q 238 717 142 646 q 468 789 333 789 q 558 781 511 789 q 633 760 604 774 l 586 579 l 549 582 m 594 1225 l 707 1115 q 642 1044 694 1093 q 528 947 589 994 q 428 883 467 900 l 375 935 l 594 1225 z "},"č":{"ha":636,"x_min":44,"x_max":763,"o":"m 549 582 q 480 660 510 631 q 428 690 450 690 q 333 643 376 690 q 262 511 289 596 q 235 321 235 426 q 268 152 235 206 q 369 99 301 99 q 469 121 428 99 q 549 183 510 143 l 585 122 q 476 28 550 71 q 300 -14 401 -14 q 113 70 181 -14 q 44 308 44 154 q 93 535 44 425 q 238 717 142 646 q 468 789 333 789 q 558 781 511 789 q 633 760 604 774 l 586 579 l 549 582 m 342 1167 l 482 1010 l 701 1167 l 763 1129 l 522 883 l 413 883 l 271 1129 l 342 1167 z "},"ç":{"ha":636,"x_min":44,"x_max":633,"o":"m 44 308 q 93 535 44 425 q 238 717 142 646 q 468 789 333 789 q 558 781 511 789 q 633 760 604 774 l 586 579 l 549 582 q 480 660 510 631 q 428 690 450 690 q 333 643 376 690 q 262 511 289 596 q 235 321 235 426 q 268 152 235 206 q 369 99 301 99 q 469 121 428 99 q 549 183 510 143 l 585 122 q 504 46 558 83 q 376 -7 450 8 q 392 -69 386 -32 q 399 -139 399 -107 q 350 -276 399 -229 q 203 -324 301 -324 q 134 -318 174 -324 q 83 -306 94 -312 l 103 -208 q 161 -219 125 -219 q 251 -187 218 -219 q 286 -89 285 -156 q 281 -12 286 -40 q 107 77 169 -6 q 44 308 44 160 z "},"ĉ":{"ha":636,"x_min":44,"x_max":686,"o":"m 549 582 q 480 660 510 631 q 428 690 450 690 q 333 643 376 690 q 262 511 289 596 q 235 321 235 426 q 268 152 235 206 q 369 99 301 99 q 469 121 428 99 q 549 183 510 143 l 585 122 q 476 28 550 71 q 300 -14 401 -14 q 113 70 181 -14 q 44 308 44 154 q 93 535 44 425 q 238 717 142 646 q 468 789 333 789 q 558 781 511 789 q 633 760 604 774 l 586 579 l 549 582 m 493 1181 l 603 1114 l 686 907 l 582 929 l 422 992 l 263 889 l 279 983 l 493 1181 z "},"ċ":{"ha":636,"x_min":44,"x_max":633,"o":"m 549 582 q 480 660 510 631 q 428 690 450 690 q 333 643 376 690 q 262 511 289 596 q 235 321 235 426 q 268 152 235 206 q 369 99 301 99 q 469 121 428 99 q 549 183 510 143 l 585 122 q 476 28 550 71 q 300 -14 401 -14 q 113 70 181 -14 q 44 308 44 154 q 93 535 44 425 q 238 717 142 646 q 468 789 333 789 q 558 781 511 789 q 633 760 604 774 l 586 579 l 549 582 m 472 914 q 406 943 435 914 q 378 1013 378 972 q 410 1099 378 1065 q 496 1133 443 1133 q 567 1106 539 1133 q 594 1042 594 1079 q 563 949 594 983 q 472 914 532 914 z "},"d":{"ha":833,"x_min":46,"x_max":814,"o":"m 674 140 q 672 124 672 135 q 696 89 672 89 q 758 121 719 89 l 778 78 q 606 -14 700 -14 q 532 10 557 -14 q 503 82 507 33 l 503 103 q 410 20 468 54 q 276 -14 351 -14 q 103 66 160 -14 q 46 275 46 146 q 97 522 46 404 q 251 715 149 640 q 497 789 353 789 q 582 778 538 789 l 617 1013 l 517 1040 l 529 1092 l 779 1119 l 814 1101 l 674 140 m 568 683 q 481 703 533 703 q 342 638 396 703 q 263 478 288 574 q 238 283 238 382 q 266 142 238 192 q 347 92 294 92 q 429 119 390 92 q 493 183 468 146 l 568 683 z "},"ð":{"ha":801,"x_min":46,"x_max":756,"o":"m 386 1024 q 246 1107 306 1092 l 279 1201 q 370 1166 319 1190 q 468 1110 421 1142 l 569 1232 l 639 1169 l 539 1056 q 701 824 647 954 q 756 549 756 694 q 706 260 756 388 q 560 59 656 132 q 332 -14 464 -14 q 176 33 240 -14 q 78 153 111 79 q 46 306 46 226 q 96 542 46 440 q 233 699 146 644 q 424 753 319 753 q 564 714 524 753 q 530 843 556 783 q 451 963 504 903 l 356 851 l 285 913 l 386 1024 m 428 671 q 324 610 367 671 q 259 458 281 550 q 238 274 238 365 q 265 124 238 183 q 350 64 293 64 q 481 153 426 64 q 551 376 536 243 q 560 444 556 403 q 564 506 564 486 q 551 574 564 536 q 509 642 539 613 q 428 671 479 671 z "},"ď":{"ha":972,"x_min":46,"x_max":1060,"o":"m 674 140 q 672 124 672 135 q 696 89 672 89 q 758 121 719 89 l 778 78 q 606 -14 700 -14 q 532 10 557 -14 q 503 82 507 33 l 503 103 q 410 20 468 54 q 276 -14 351 -14 q 103 66 160 -14 q 46 275 46 146 q 97 522 46 404 q 251 715 149 640 q 497 789 353 789 q 582 778 538 789 l 617 1013 l 517 1040 l 529 1092 l 779 1119 l 814 1101 l 674 140 m 568 683 q 481 703 533 703 q 342 638 396 703 q 263 478 288 574 q 238 283 238 382 q 266 142 238 192 q 347 92 294 92 q 429 119 390 92 q 493 183 468 146 l 568 683 m 894 793 l 889 807 q 899 956 899 868 q 881 1081 899 1035 l 886 1110 l 1047 1110 q 1060 1004 1060 1076 q 1046 891 1060 947 q 1013 792 1032 835 l 894 793 z "},"đ":{"ha":833,"x_min":46,"x_max":881,"o":"m 46 275 q 97 522 46 404 q 251 715 149 640 q 497 789 353 789 q 582 778 538 789 l 594 861 l 401 861 l 413 944 l 607 944 l 617 1013 l 517 1040 l 529 1092 l 779 1119 l 814 1101 l 792 944 l 881 944 l 871 861 l 779 861 l 674 140 q 672 124 672 135 q 696 89 672 89 q 758 121 719 89 l 778 78 q 606 -14 700 -14 q 532 10 557 -14 q 503 82 507 33 l 503 103 q 410 20 468 54 q 276 -14 351 -14 q 103 66 160 -14 q 46 275 46 146 m 238 283 q 266 142 238 192 q 347 92 294 92 q 429 119 390 92 q 493 183 468 146 l 568 683 q 481 703 533 703 q 342 638 396 703 q 263 478 288 574 q 238 283 238 382 z "},"ḋ":{"ha":833,"x_min":46,"x_max":814,"o":"m 674 140 q 672 124 672 135 q 696 89 672 89 q 758 121 719 89 l 778 78 q 606 -14 700 -14 q 532 10 557 -14 q 503 82 507 33 l 503 103 q 410 20 468 54 q 276 -14 351 -14 q 103 66 160 -14 q 46 275 46 146 q 97 522 46 404 q 251 715 149 640 q 497 789 353 789 q 582 778 538 789 l 617 1013 l 517 1040 l 529 1092 l 779 1119 l 814 1101 l 674 140 m 568 683 q 481 703 533 703 q 342 638 396 703 q 263 478 288 574 q 238 283 238 382 q 266 142 238 192 q 347 92 294 92 q 429 119 390 92 q 493 183 468 146 l 568 683 m 271 913 q 205 942 233 913 q 176 1011 176 971 q 209 1098 176 1064 q 294 1132 242 1132 q 365 1105 338 1132 q 393 1040 393 1078 q 362 947 393 982 q 271 913 331 913 z "},"ḍ":{"ha":833,"x_min":46,"x_max":814,"o":"m 674 140 q 672 124 672 135 q 696 89 672 89 q 758 121 719 89 l 778 78 q 606 -14 700 -14 q 532 10 557 -14 q 503 82 507 33 l 503 103 q 410 20 468 54 q 276 -14 351 -14 q 103 66 160 -14 q 46 275 46 146 q 97 522 46 404 q 251 715 149 640 q 497 789 353 789 q 582 778 538 789 l 617 1013 l 517 1040 l 529 1092 l 779 1119 l 814 1101 l 674 140 m 568 683 q 481 703 533 703 q 342 638 396 703 q 263 478 288 574 q 238 283 238 382 q 266 142 238 192 q 347 92 294 92 q 429 119 390 92 q 493 183 468 146 l 568 683 m 275 -329 q 209 -301 233 -329 q 185 -231 185 -274 q 219 -144 185 -179 q 304 -110 253 -110 q 374 -135 350 -110 q 397 -204 397 -161 q 365 -293 397 -257 q 275 -329 332 -329 z "},"ǳ":{"ha":1525,"x_min":46,"x_max":1544,"o":"m 674 140 q 672 124 672 135 q 696 89 672 89 q 758 121 719 89 l 778 78 q 606 -14 700 -14 q 532 10 557 -14 q 503 82 507 33 l 503 103 q 410 20 468 54 q 276 -14 351 -14 q 103 66 160 -14 q 46 275 46 146 q 97 522 46 404 q 251 715 149 640 q 497 789 353 789 q 582 778 538 789 l 617 1013 l 517 1040 l 529 1092 l 779 1119 l 814 1101 l 674 140 m 568 683 q 481 703 533 703 q 342 638 396 703 q 263 478 288 574 q 238 283 238 382 q 266 142 238 192 q 347 92 294 92 q 429 119 390 92 q 493 183 468 146 l 568 683 m 1232 628 q 1089 629 1119 631 q 1015 595 1043 628 q 983 515 986 563 l 928 515 q 925 578 925 546 q 937 703 925 646 q 976 774 949 760 q 1042 788 1000 788 q 1258 775 1115 788 q 1349 769 1290 774 q 1436 765 1408 765 q 1510 788 1483 765 l 1544 750 l 1140 242 l 1038 146 l 1288 143 q 1372 176 1342 143 q 1410 263 1403 208 l 1464 263 q 1465 214 1465 249 q 1453 78 1465 140 q 1413 -1 1442 17 q 1343 -15 1394 -15 q 1114 -3 1264 -15 q 1017 3 1079 -1 q 929 7 956 7 q 891 1 911 7 q 858 -15 871 -4 l 818 24 l 1263 567 l 1338 626 l 1232 628 z "},"ǆ":{"ha":1525,"x_min":46,"x_max":1544,"o":"m 674 140 q 672 124 672 135 q 696 89 672 89 q 758 121 719 89 l 778 78 q 606 -14 700 -14 q 532 10 557 -14 q 503 82 507 33 l 503 103 q 410 20 468 54 q 276 -14 351 -14 q 103 66 160 -14 q 46 275 46 146 q 97 522 46 404 q 251 715 149 640 q 497 789 353 789 q 582 778 538 789 l 617 1013 l 517 1040 l 529 1092 l 779 1119 l 814 1101 l 674 140 m 568 683 q 481 703 533 703 q 342 638 396 703 q 263 478 288 574 q 238 283 238 382 q 266 142 238 192 q 347 92 294 92 q 429 119 390 92 q 493 183 468 146 l 568 683 m 1232 628 q 1089 629 1119 631 q 1015 595 1043 628 q 983 515 986 563 l 928 515 q 925 578 925 546 q 937 703 925 646 q 976 774 949 760 q 1042 788 1000 788 q 1258 775 1115 788 q 1349 769 1290 774 q 1436 765 1408 765 q 1510 788 1483 765 l 1544 750 l 1140 242 l 1038 146 l 1288 143 q 1372 176 1342 143 q 1410 263 1403 208 l 1464 263 q 1465 214 1465 249 q 1453 78 1465 140 q 1413 -1 1442 17 q 1343 -15 1394 -15 q 1114 -3 1264 -15 q 1017 3 1079 -1 q 929 7 956 7 q 891 1 911 7 q 858 -15 871 -4 l 818 24 l 1263 567 l 1338 626 l 1232 628 m 1122 1165 l 1263 1008 l 1482 1165 l 1543 1128 l 1303 882 l 1193 882 l 1051 1128 l 1122 1165 z "},"e":{"ha":725,"x_min":49,"x_max":686,"o":"m 642 139 q 524 32 606 82 q 336 -18 443 -18 q 172 25 236 -18 q 78 138 107 68 q 49 289 49 207 q 105 542 49 428 q 258 724 161 657 q 475 790 356 790 q 634 741 582 790 q 686 613 686 692 q 614 446 686 513 q 440 347 542 379 q 249 311 339 314 q 281 150 246 211 q 389 89 317 89 q 606 200 508 89 l 642 139 m 433 704 q 304 606 351 704 q 249 386 257 507 q 363 415 303 389 q 465 490 424 442 q 506 600 506 538 q 487 677 506 650 q 433 704 468 704 z "},"é":{"ha":725,"x_min":49,"x_max":717,"o":"m 642 139 q 524 32 606 82 q 336 -18 443 -18 q 172 25 236 -18 q 78 138 107 68 q 49 289 49 207 q 105 542 49 428 q 258 724 161 657 q 475 790 356 790 q 634 741 582 790 q 686 613 686 692 q 614 446 686 513 q 440 347 542 379 q 249 311 339 314 q 281 150 246 211 q 389 89 317 89 q 606 200 508 89 l 642 139 m 433 704 q 304 606 351 704 q 249 386 257 507 q 363 415 303 389 q 465 490 424 442 q 506 600 506 538 q 487 677 506 650 q 433 704 468 704 m 604 1224 l 717 1114 q 651 1042 704 1092 q 538 946 599 993 q 438 882 476 899 l 385 933 l 604 1224 z "},"ĕ":{"ha":725,"x_min":49,"x_max":710,"o":"m 642 139 q 524 32 606 82 q 336 -18 443 -18 q 172 25 236 -18 q 78 138 107 68 q 49 289 49 207 q 105 542 49 428 q 258 724 161 657 q 475 790 356 790 q 634 741 582 790 q 686 613 686 692 q 614 446 686 513 q 440 347 542 379 q 249 311 339 314 q 281 150 246 211 q 389 89 317 89 q 606 200 508 89 l 642 139 m 433 704 q 304 606 351 704 q 249 386 257 507 q 363 415 303 389 q 465 490 424 442 q 506 600 506 538 q 487 677 506 650 q 433 704 468 704 m 476 889 q 325 950 379 889 q 271 1099 271 1011 q 274 1136 271 1114 l 375 1136 l 376 1108 q 406 1042 379 1069 q 486 1014 433 1014 q 579 1048 554 1014 q 610 1136 604 1082 l 710 1136 l 710 1114 q 681 1006 707 1058 q 602 922 654 954 q 476 889 550 889 z "},"ě":{"ha":725,"x_min":49,"x_max":772,"o":"m 642 139 q 524 32 606 82 q 336 -18 443 -18 q 172 25 236 -18 q 78 138 107 68 q 49 289 49 207 q 105 542 49 428 q 258 724 161 657 q 475 790 356 790 q 634 741 582 790 q 686 613 686 692 q 614 446 686 513 q 440 347 542 379 q 249 311 339 314 q 281 150 246 211 q 389 89 317 89 q 606 200 508 89 l 642 139 m 433 704 q 304 606 351 704 q 249 386 257 507 q 363 415 303 389 q 465 490 424 442 q 506 600 506 538 q 487 677 506 650 q 433 704 468 704 m 351 1165 l 492 1008 l 711 1165 l 772 1128 l 532 882 l 422 882 l 281 1128 l 351 1165 z "},"ȩ":{"ha":725,"x_min":49,"x_max":686,"o":"m 49 289 q 105 542 49 428 q 258 724 161 657 q 475 790 356 790 q 634 741 582 790 q 686 613 686 692 q 614 446 686 513 q 440 347 542 379 q 249 311 339 314 q 281 150 246 211 q 389 89 317 89 q 606 200 508 89 l 642 139 q 542 43 611 90 q 381 -15 472 -4 q 399 -115 399 -58 q 344 -267 399 -207 q 193 -328 290 -328 q 135 -321 165 -328 q 89 -303 106 -314 l 103 -197 q 129 -205 111 -201 q 165 -208 147 -208 q 296 -62 296 -208 q 290 -15 296 -40 q 108 85 168 0 q 49 289 49 171 m 249 386 q 363 415 303 389 q 465 490 424 442 q 506 600 506 538 q 487 677 506 650 q 433 704 468 704 q 304 606 351 704 q 249 386 257 507 z "},"ê":{"ha":725,"x_min":49,"x_max":696,"o":"m 642 139 q 524 32 606 82 q 336 -18 443 -18 q 172 25 236 -18 q 78 138 107 68 q 49 289 49 207 q 105 542 49 428 q 258 724 161 657 q 475 790 356 790 q 634 741 582 790 q 686 613 686 692 q 614 446 686 513 q 440 347 542 379 q 249 311 339 314 q 281 150 246 211 q 389 89 317 89 q 606 200 508 89 l 642 139 m 433 704 q 304 606 351 704 q 249 386 257 507 q 363 415 303 389 q 465 490 424 442 q 506 600 506 538 q 487 677 506 650 q 433 704 468 704 m 503 1179 l 613 1113 l 696 906 l 592 928 l 432 990 l 272 888 l 289 982 l 503 1179 z "},"ế":{"ha":725,"x_min":49,"x_max":983,"o":"m 642 139 q 524 32 606 82 q 336 -18 443 -18 q 172 25 236 -18 q 78 138 107 68 q 49 289 49 207 q 105 542 49 428 q 258 724 161 657 q 475 790 356 790 q 634 741 582 790 q 686 613 686 692 q 614 446 686 513 q 440 347 542 379 q 249 311 339 314 q 281 150 246 211 q 389 89 317 89 q 606 200 508 89 l 642 139 m 433 704 q 304 606 351 704 q 249 386 257 507 q 363 415 303 389 q 465 490 424 442 q 506 600 506 538 q 487 677 506 650 q 433 704 468 704 m 678 1147 l 892 1364 l 983 1272 q 865 1167 947 1231 q 732 1086 782 1104 l 678 1147 m 571 1140 l 731 925 l 650 876 l 494 1013 l 289 876 l 232 922 l 460 1140 l 571 1140 z "},"ệ":{"ha":725,"x_min":49,"x_max":696,"o":"m 642 139 q 524 32 606 82 q 336 -18 443 -18 q 172 25 236 -18 q 78 138 107 68 q 49 289 49 207 q 105 542 49 428 q 258 724 161 657 q 475 790 356 790 q 634 741 582 790 q 686 613 686 692 q 614 446 686 513 q 440 347 542 379 q 249 311 339 314 q 281 150 246 211 q 389 89 317 89 q 606 200 508 89 l 642 139 m 433 704 q 304 606 351 704 q 249 386 257 507 q 363 415 303 389 q 465 490 424 442 q 506 600 506 538 q 487 677 506 650 q 433 704 468 704 m 285 -329 q 219 -301 243 -329 q 194 -231 194 -274 q 228 -144 194 -179 q 314 -110 263 -110 q 383 -135 360 -110 q 407 -204 407 -161 q 374 -293 407 -257 q 285 -329 342 -329 m 503 1179 l 613 1113 l 696 906 l 592 928 l 432 990 l 272 888 l 289 982 l 503 1179 z "},"ề":{"ha":725,"x_min":49,"x_max":872,"o":"m 642 139 q 524 32 606 82 q 336 -18 443 -18 q 172 25 236 -18 q 78 138 107 68 q 49 289 49 207 q 105 542 49 428 q 258 724 161 657 q 475 790 356 790 q 634 741 582 790 q 686 613 686 692 q 614 446 686 513 q 440 347 542 379 q 249 311 339 314 q 281 150 246 211 q 389 89 317 89 q 606 200 508 89 l 642 139 m 433 704 q 304 606 351 704 q 249 386 257 507 q 363 415 303 389 q 465 490 424 442 q 506 600 506 538 q 487 677 506 650 q 433 704 468 704 m 800 1101 q 701 1173 757 1119 q 615 1275 646 1226 l 738 1365 l 872 1161 l 800 1101 m 568 1140 l 728 925 l 647 876 l 493 1013 l 286 876 l 229 922 l 458 1140 l 568 1140 z "},"ể":{"ha":725,"x_min":49,"x_max":931,"o":"m 642 139 q 524 32 606 82 q 336 -18 443 -18 q 172 25 236 -18 q 78 138 107 68 q 49 289 49 207 q 105 542 49 428 q 258 724 161 657 q 475 790 356 790 q 634 741 582 790 q 686 613 686 692 q 614 446 686 513 q 440 347 542 379 q 249 311 339 314 q 281 150 246 211 q 389 89 317 89 q 606 200 508 89 l 642 139 m 433 704 q 304 606 351 704 q 249 386 257 507 q 363 415 303 389 q 465 490 424 442 q 506 600 506 538 q 487 677 506 650 q 433 704 468 704 m 738 1018 q 722 1074 719 1050 q 735 1095 725 1086 q 764 1115 746 1104 q 794 1136 783 1126 q 811 1160 806 1146 l 811 1164 q 760 1211 811 1210 l 750 1211 q 722 1208 731 1211 l 742 1304 q 760 1308 744 1306 q 789 1311 776 1311 q 893 1286 856 1311 q 931 1213 931 1261 q 926 1178 931 1197 q 900 1132 919 1150 q 849 1093 881 1114 q 838 1087 844 1090 q 825 1078 832 1083 q 806 1056 813 1068 q 801 1025 800 1044 l 738 1018 m 567 1140 l 726 925 l 646 876 l 492 1013 l 285 876 l 228 922 l 457 1140 l 567 1140 z "},"ễ":{"ha":725,"x_min":49,"x_max":746,"o":"m 642 139 q 524 32 606 82 q 336 -18 443 -18 q 172 25 236 -18 q 78 138 107 68 q 49 289 49 207 q 105 542 49 428 q 258 724 161 657 q 475 790 356 790 q 634 741 582 790 q 686 613 686 692 q 614 446 686 513 q 440 347 542 379 q 249 311 339 314 q 281 150 246 211 q 389 89 317 89 q 606 200 508 89 l 642 139 m 433 704 q 304 606 351 704 q 249 386 257 507 q 363 415 303 389 q 465 490 424 442 q 506 600 506 538 q 487 677 506 650 q 433 704 468 704 m 308 1236 q 376 1326 333 1290 q 474 1363 419 1363 q 522 1352 503 1363 q 564 1322 542 1342 q 595 1299 583 1307 q 625 1292 607 1292 q 663 1303 649 1292 q 693 1336 678 1314 l 746 1307 q 679 1216 719 1250 q 585 1182 639 1182 q 538 1192 557 1182 q 496 1221 519 1201 q 463 1245 476 1238 q 432 1253 450 1253 q 395 1242 408 1253 q 361 1208 382 1232 l 308 1236 m 569 1140 l 729 925 l 649 876 l 494 1013 l 288 876 l 231 922 l 460 1140 l 569 1140 z "},"ë":{"ha":725,"x_min":49,"x_max":739,"o":"m 642 139 q 524 32 606 82 q 336 -18 443 -18 q 172 25 236 -18 q 78 138 107 68 q 49 289 49 207 q 105 542 49 428 q 258 724 161 657 q 475 790 356 790 q 634 741 582 790 q 686 613 686 692 q 614 446 686 513 q 440 347 542 379 q 249 311 339 314 q 281 150 246 211 q 389 89 317 89 q 606 200 508 89 l 642 139 m 433 704 q 304 606 351 704 q 249 386 257 507 q 363 415 303 389 q 465 490 424 442 q 506 600 506 538 q 487 677 506 650 q 433 704 468 704 m 329 911 q 270 940 296 911 q 244 1006 244 968 q 274 1092 244 1057 q 350 1126 303 1126 q 415 1099 390 1126 q 439 1035 439 1071 q 411 946 439 981 q 329 911 383 911 m 629 911 q 570 940 596 911 q 544 1006 544 968 q 574 1092 544 1057 q 650 1126 603 1126 q 714 1099 689 1126 q 739 1035 739 1071 q 710 946 739 981 q 629 911 682 911 z "},"ė":{"ha":725,"x_min":49,"x_max":686,"o":"m 642 139 q 524 32 606 82 q 336 -18 443 -18 q 172 25 236 -18 q 78 138 107 68 q 49 289 49 207 q 105 542 49 428 q 258 724 161 657 q 475 790 356 790 q 634 741 582 790 q 686 613 686 692 q 614 446 686 513 q 440 347 542 379 q 249 311 339 314 q 281 150 246 211 q 389 89 317 89 q 606 200 508 89 l 642 139 m 433 704 q 304 606 351 704 q 249 386 257 507 q 363 415 303 389 q 465 490 424 442 q 506 600 506 538 q 487 677 506 650 q 433 704 468 704 m 482 913 q 416 942 444 913 q 388 1011 388 971 q 420 1098 388 1064 q 506 1132 453 1132 q 576 1105 549 1132 q 604 1040 604 1078 q 573 947 604 982 q 482 913 542 913 z "},"ẹ":{"ha":725,"x_min":49,"x_max":686,"o":"m 642 139 q 524 32 606 82 q 336 -18 443 -18 q 172 25 236 -18 q 78 138 107 68 q 49 289 49 207 q 105 542 49 428 q 258 724 161 657 q 475 790 356 790 q 634 741 582 790 q 686 613 686 692 q 614 446 686 513 q 440 347 542 379 q 249 311 339 314 q 281 150 246 211 q 389 89 317 89 q 606 200 508 89 l 642 139 m 433 704 q 304 606 351 704 q 249 386 257 507 q 363 415 303 389 q 465 490 424 442 q 506 600 506 538 q 487 677 506 650 q 433 704 468 704 m 285 -329 q 219 -301 243 -329 q 194 -231 194 -274 q 228 -144 194 -179 q 314 -110 263 -110 q 383 -135 360 -110 q 407 -204 407 -161 q 374 -293 407 -257 q 285 -329 342 -329 z "},"è":{"ha":725,"x_min":49,"x_max":686,"o":"m 642 139 q 524 32 606 82 q 336 -18 443 -18 q 172 25 236 -18 q 78 138 107 68 q 49 289 49 207 q 105 542 49 428 q 258 724 161 657 q 475 790 356 790 q 634 741 582 790 q 686 613 686 692 q 614 446 686 513 q 440 347 542 379 q 249 311 339 314 q 281 150 246 211 q 389 89 317 89 q 606 200 508 89 l 642 139 m 433 704 q 304 606 351 704 q 249 386 257 507 q 363 415 303 389 q 465 490 424 442 q 506 600 506 538 q 487 677 506 650 q 433 704 468 704 m 497 889 q 358 990 447 914 q 240 1117 268 1067 l 358 1222 l 557 932 l 497 889 z "},"ẻ":{"ha":725,"x_min":49,"x_max":686,"o":"m 642 139 q 524 32 606 82 q 336 -18 443 -18 q 172 25 236 -18 q 78 138 107 68 q 49 289 49 207 q 105 542 49 428 q 258 724 161 657 q 475 790 356 790 q 634 741 582 790 q 686 613 686 692 q 614 446 686 513 q 440 347 542 379 q 249 311 339 314 q 281 150 246 211 q 389 89 317 89 q 606 200 508 89 l 642 139 m 433 704 q 304 606 351 704 q 249 386 257 507 q 363 415 303 389 q 465 490 424 442 q 506 600 506 538 q 487 677 506 650 q 433 704 468 704 m 421 858 q 406 888 413 869 q 400 922 399 907 q 413 947 403 938 q 446 972 424 957 q 480 996 467 985 q 499 1024 493 1007 l 499 1029 q 486 1068 501 1053 q 436 1085 471 1083 q 394 1082 400 1085 l 411 1194 q 434 1200 415 1197 q 468 1203 453 1203 q 594 1172 549 1203 q 640 1081 640 1142 q 636 1046 640 1065 q 608 991 631 1013 q 546 944 585 969 q 521 928 521 928 q 500 903 507 917 q 494 867 493 890 l 421 858 z "},"ē":{"ha":725,"x_min":49,"x_max":686,"o":"m 642 139 q 524 32 606 82 q 336 -18 443 -18 q 172 25 236 -18 q 78 138 107 68 q 49 289 49 207 q 105 542 49 428 q 258 724 161 657 q 475 790 356 790 q 634 741 582 790 q 686 613 686 692 q 614 446 686 513 q 440 347 542 379 q 249 311 339 314 q 281 150 246 211 q 389 89 317 89 q 606 200 508 89 l 642 139 m 433 704 q 304 606 351 704 q 249 386 257 507 q 363 415 303 389 q 465 490 424 442 q 506 600 506 538 q 487 677 506 650 q 433 704 468 704 m 681 1038 l 667 915 l 290 915 l 304 1038 l 681 1038 z "},"ę":{"ha":725,"x_min":49,"x_max":686,"o":"m 293 -317 q 205 -286 235 -317 q 175 -208 175 -256 q 183 -168 175 -192 q 203 -126 190 -144 q 258 -62 228 -87 q 324 -15 288 -37 q 170 28 232 -14 q 78 138 108 69 q 49 289 49 207 q 105 542 49 428 q 258 724 161 657 q 475 790 356 790 q 634 741 582 790 q 686 613 686 692 q 614 446 686 513 q 440 347 542 379 q 249 311 339 314 q 281 150 246 211 q 389 89 317 89 q 606 200 508 89 l 642 139 q 580 72 621 107 q 485 13 539 36 q 333 -157 333 -93 q 344 -196 332 -186 q 379 -206 357 -206 q 430 -194 406 -206 q 482 -158 454 -182 l 503 -225 q 410 -291 464 -265 q 293 -317 357 -317 m 249 386 q 363 415 303 389 q 465 490 424 442 q 506 600 506 538 q 487 677 506 650 q 433 704 468 704 q 304 606 351 704 q 249 386 257 507 z "},"ẽ":{"ha":725,"x_min":49,"x_max":736,"o":"m 642 139 q 524 32 606 82 q 336 -18 443 -18 q 172 25 236 -18 q 78 138 107 68 q 49 289 49 207 q 105 542 49 428 q 258 724 161 657 q 475 790 356 790 q 634 741 582 790 q 686 613 686 692 q 614 446 686 513 q 440 347 542 379 q 249 311 339 314 q 281 150 246 211 q 389 89 317 89 q 606 200 508 89 l 642 139 m 433 704 q 304 606 351 704 q 249 386 257 507 q 363 415 303 389 q 465 490 424 442 q 506 600 506 538 q 487 677 506 650 q 433 704 468 704 m 243 989 q 307 1063 265 1032 q 396 1093 349 1093 q 460 1080 435 1093 q 514 1043 486 1067 q 551 1017 536 1025 q 586 1008 567 1008 q 639 1023 621 1008 q 683 1071 657 1038 l 736 1008 q 674 928 719 961 q 575 894 628 894 q 515 906 538 894 q 465 942 492 918 q 425 970 442 961 q 383 979 408 979 q 333 967 353 979 q 289 928 314 954 l 243 989 z "},"ə":{"ha":726,"x_min":40,"x_max":679,"o":"m 85 636 q 202 741 121 692 q 392 790 283 790 q 609 701 539 790 q 679 481 679 611 q 622 229 679 343 q 468 49 565 115 q 253 -17 371 -17 q 94 32 147 -17 q 40 158 40 81 q 113 326 40 258 q 287 427 185 394 q 479 463 389 460 q 446 624 482 564 q 338 685 410 685 q 122 572 221 685 l 85 636 m 479 388 q 364 358 424 385 q 263 284 304 332 q 222 174 222 236 q 294 69 222 69 q 422 168 375 69 q 479 388 469 267 z "},"f":{"ha":469,"x_min":-162,"x_max":615,"o":"m 196 838 q 251 988 210 921 q 356 1093 292 1054 q 499 1132 419 1132 q 615 1115 572 1132 l 576 1004 q 483 1035 536 1035 q 409 996 432 1035 q 375 876 386 957 l 361 775 l 514 775 l 496 671 l 347 671 l 271 54 q 170 -232 249 -117 q -39 -349 92 -347 q -106 -346 -71 -350 q -162 -336 -142 -342 l -126 -219 q -74 -238 -108 -228 q -19 -249 -40 -249 q 40 -212 18 -249 q 71 -101 61 -175 l 167 671 l 78 671 l 90 732 l 185 772 l 196 838 z "},"ḟ":{"ha":469,"x_min":-162,"x_max":615,"o":"m 196 838 q 251 988 210 921 q 356 1093 292 1054 q 499 1132 419 1132 q 615 1115 572 1132 l 576 1004 q 483 1035 536 1035 q 409 996 432 1035 q 375 876 386 957 l 361 775 l 514 775 l 496 671 l 347 671 l 271 54 q 170 -232 249 -117 q -39 -349 92 -347 q -106 -346 -71 -350 q -162 -336 -142 -342 l -126 -219 q -74 -238 -108 -228 q -19 -249 -40 -249 q 40 -212 18 -249 q 71 -101 61 -175 l 167 671 l 78 671 l 90 732 l 185 772 l 196 838 m 165 1060 q 99 1089 128 1060 q 71 1158 71 1118 q 103 1245 71 1211 q 189 1279 136 1279 q 260 1252 232 1279 q 288 1188 288 1225 q 256 1094 288 1129 q 165 1060 225 1060 z "},"g":{"ha":811,"x_min":46,"x_max":761,"o":"m 643 -53 q 507 -280 622 -211 q 243 -349 392 -349 q 145 -340 197 -349 q 72 -321 93 -331 l 104 -190 q 185 -228 131 -207 q 289 -249 239 -249 q 407 -217 369 -249 q 456 -96 444 -185 l 476 69 q 389 10 439 33 q 281 -14 339 -14 q 105 66 164 -14 q 46 275 46 146 q 99 521 46 403 q 256 714 153 639 q 501 789 360 789 q 585 780 540 789 q 663 758 629 771 l 761 789 l 643 -53 m 565 686 q 485 703 536 703 q 346 638 401 703 q 265 477 290 574 q 239 283 239 381 q 269 142 239 193 q 351 92 299 92 q 427 115 390 92 q 490 169 464 138 l 565 686 z "},"ğ":{"ha":811,"x_min":46,"x_max":761,"o":"m 643 -53 q 507 -280 622 -211 q 243 -349 392 -349 q 145 -340 197 -349 q 72 -321 93 -331 l 104 -190 q 185 -228 131 -207 q 289 -249 239 -249 q 407 -217 369 -249 q 456 -96 444 -185 l 476 69 q 389 10 439 33 q 281 -14 339 -14 q 105 66 164 -14 q 46 275 46 146 q 99 521 46 403 q 256 714 153 639 q 501 789 360 789 q 585 780 540 789 q 663 758 629 771 l 761 789 l 643 -53 m 565 686 q 485 703 536 703 q 346 638 401 703 q 265 477 290 574 q 239 283 239 381 q 269 142 239 193 q 351 92 299 92 q 427 115 390 92 q 490 169 464 138 l 565 686 m 490 889 q 339 950 393 889 q 285 1099 285 1011 q 288 1136 285 1114 l 389 1136 l 390 1108 q 420 1042 393 1069 q 500 1014 447 1014 q 593 1048 568 1014 q 624 1136 618 1082 l 724 1136 l 724 1114 q 694 1006 721 1058 q 616 922 668 954 q 490 889 564 889 z "},"ǧ":{"ha":811,"x_min":46,"x_max":786,"o":"m 643 -53 q 507 -280 622 -211 q 243 -349 392 -349 q 145 -340 197 -349 q 72 -321 93 -331 l 104 -190 q 185 -228 131 -207 q 289 -249 239 -249 q 407 -217 369 -249 q 456 -96 444 -185 l 476 69 q 389 10 439 33 q 281 -14 339 -14 q 105 66 164 -14 q 46 275 46 146 q 99 521 46 403 q 256 714 153 639 q 501 789 360 789 q 585 780 540 789 q 663 758 629 771 l 761 789 l 643 -53 m 565 686 q 485 703 536 703 q 346 638 401 703 q 265 477 290 574 q 239 283 239 381 q 269 142 239 193 q 351 92 299 92 q 427 115 390 92 q 490 169 464 138 l 565 686 m 365 1165 l 506 1008 l 725 1165 l 786 1128 l 546 882 l 436 882 l 294 1128 l 365 1165 z "},"ĝ":{"ha":811,"x_min":46,"x_max":761,"o":"m 643 -53 q 507 -280 622 -211 q 243 -349 392 -349 q 145 -340 197 -349 q 72 -321 93 -331 l 104 -190 q 185 -228 131 -207 q 289 -249 239 -249 q 407 -217 369 -249 q 456 -96 444 -185 l 476 69 q 389 10 439 33 q 281 -14 339 -14 q 105 66 164 -14 q 46 275 46 146 q 99 521 46 403 q 256 714 153 639 q 501 789 360 789 q 585 780 540 789 q 663 758 629 771 l 761 789 l 643 -53 m 565 686 q 485 703 536 703 q 346 638 401 703 q 265 477 290 574 q 239 283 239 381 q 269 142 239 193 q 351 92 299 92 q 427 115 390 92 q 490 169 464 138 l 565 686 m 517 1179 l 626 1113 l 710 906 l 606 928 l 446 990 l 286 888 l 303 982 l 517 1179 z "},"ģ":{"ha":811,"x_min":46,"x_max":761,"o":"m 643 -53 q 507 -280 622 -211 q 243 -349 392 -349 q 145 -340 197 -349 q 72 -321 93 -331 l 104 -190 q 185 -228 131 -207 q 289 -249 239 -249 q 407 -217 369 -249 q 456 -96 444 -185 l 476 69 q 389 10 439 33 q 281 -14 339 -14 q 105 66 164 -14 q 46 275 46 146 q 99 521 46 403 q 256 714 153 639 q 501 789 360 789 q 585 780 540 789 q 663 758 629 771 l 761 789 l 643 -53 m 565 686 q 485 703 536 703 q 346 638 401 703 q 265 477 290 574 q 239 283 239 381 q 269 142 239 193 q 351 92 299 92 q 427 115 390 92 q 490 169 464 138 l 565 686 m 496 888 q 428 910 453 888 q 404 978 404 933 q 406 1000 404 992 q 440 1092 413 1047 q 499 1165 467 1136 q 550 1201 532 1194 l 553 1201 l 618 1181 l 619 1169 q 590 1137 604 1164 q 572 1082 576 1110 q 575 1053 569 1064 q 592 1033 581 1043 q 615 983 615 1013 q 579 910 615 933 q 501 888 543 888 l 496 888 z "},"ġ":{"ha":811,"x_min":46,"x_max":761,"o":"m 643 -53 q 507 -280 622 -211 q 243 -349 392 -349 q 145 -340 197 -349 q 72 -321 93 -331 l 104 -190 q 185 -228 131 -207 q 289 -249 239 -249 q 407 -217 369 -249 q 456 -96 444 -185 l 476 69 q 389 10 439 33 q 281 -14 339 -14 q 105 66 164 -14 q 46 275 46 146 q 99 521 46 403 q 256 714 153 639 q 501 789 360 789 q 585 780 540 789 q 663 758 629 771 l 761 789 l 643 -53 m 565 686 q 485 703 536 703 q 346 638 401 703 q 265 477 290 574 q 239 283 239 381 q 269 142 239 193 q 351 92 299 92 q 427 115 390 92 q 490 169 464 138 l 565 686 m 496 913 q 430 942 458 913 q 401 1011 401 971 q 434 1098 401 1064 q 519 1132 467 1132 q 590 1105 563 1132 q 618 1040 618 1078 q 587 947 618 982 q 496 913 556 913 z "},"ḡ":{"ha":811,"x_min":46,"x_max":761,"o":"m 643 -53 q 507 -280 622 -211 q 243 -349 392 -349 q 145 -340 197 -349 q 72 -321 93 -331 l 104 -190 q 185 -228 131 -207 q 289 -249 239 -249 q 407 -217 369 -249 q 456 -96 444 -185 l 476 69 q 389 10 439 33 q 281 -14 339 -14 q 105 66 164 -14 q 46 275 46 146 q 99 521 46 403 q 256 714 153 639 q 501 789 360 789 q 585 780 540 789 q 663 758 629 771 l 761 789 l 643 -53 m 565 686 q 485 703 536 703 q 346 638 401 703 q 265 477 290 574 q 239 283 239 381 q 269 142 239 193 q 351 92 299 92 q 427 115 390 92 q 490 169 464 138 l 565 686 m 694 1038 l 681 915 l 304 915 l 318 1038 l 694 1038 z "},"h":{"ha":867,"x_min":60,"x_max":810,"o":"m 321 611 q 444 740 372 692 q 596 789 515 789 q 723 742 678 789 q 768 585 768 694 q 752 449 768 542 q 735 343 736 356 l 726 299 q 710 204 718 253 q 703 125 703 156 q 726 88 703 88 q 753 95 739 88 q 792 122 767 103 l 810 79 q 743 19 792 51 q 626 -14 694 -14 q 533 13 558 -14 q 508 90 508 40 q 535 256 510 132 l 543 303 q 555 369 546 315 q 569 473 564 424 q 575 558 575 522 q 560 646 575 622 q 508 669 544 669 q 403 616 461 669 q 306 486 346 563 l 244 0 l 60 0 l 186 1013 l 103 1040 l 113 1092 l 350 1119 l 383 1101 l 321 611 z "},"ħ":{"ha":867,"x_min":60,"x_max":810,"o":"m 321 610 q 444 740 372 690 q 596 789 515 789 q 723 742 678 789 q 768 585 768 694 q 752 449 768 542 q 735 343 736 356 l 726 299 q 710 204 718 253 q 703 125 703 156 q 726 88 703 88 q 753 95 739 88 q 792 122 767 103 l 810 79 q 743 19 792 51 q 626 -14 694 -14 q 533 13 558 -14 q 508 90 508 40 q 535 256 510 132 l 543 303 q 555 369 546 315 q 569 473 564 424 q 575 558 575 522 q 560 646 575 622 q 508 669 544 669 q 403 616 461 669 q 306 486 346 563 l 244 0 l 60 0 l 167 860 l 69 860 l 79 939 l 176 939 l 186 1013 l 103 1040 l 113 1092 l 350 1119 l 383 1101 l 363 939 l 521 939 l 510 860 l 353 860 l 321 610 z "},"ĥ":{"ha":867,"x_min":38,"x_max":810,"o":"m 321 611 q 444 740 372 692 q 596 789 515 789 q 723 742 678 789 q 768 585 768 694 q 752 449 768 542 q 735 343 736 356 l 726 299 q 710 204 718 253 q 703 125 703 156 q 726 88 703 88 q 753 95 739 88 q 792 122 767 103 l 810 79 q 743 19 792 51 q 626 -14 694 -14 q 533 13 558 -14 q 508 90 508 40 q 535 256 510 132 l 543 303 q 555 369 546 315 q 569 473 564 424 q 575 558 575 522 q 560 646 575 622 q 508 669 544 669 q 403 616 461 669 q 306 486 346 563 l 244 0 l 60 0 l 186 1013 l 103 1040 l 113 1092 l 350 1119 l 383 1101 l 321 611 m 276 1411 l 388 1411 l 532 1176 l 464 1139 l 319 1290 l 97 1140 l 38 1176 l 276 1411 z "},"ḥ":{"ha":867,"x_min":60,"x_max":810,"o":"m 321 611 q 444 740 372 692 q 596 789 515 789 q 723 742 678 789 q 768 585 768 694 q 752 449 768 542 q 735 343 736 356 l 726 299 q 710 204 718 253 q 703 125 703 156 q 726 88 703 88 q 753 95 739 88 q 792 122 767 103 l 810 79 q 743 19 792 51 q 626 -14 694 -14 q 533 13 558 -14 q 508 90 508 40 q 535 256 510 132 l 543 303 q 555 369 546 315 q 569 473 564 424 q 575 558 575 522 q 560 646 575 622 q 508 669 544 669 q 403 616 461 669 q 306 486 346 563 l 244 0 l 60 0 l 186 1013 l 103 1040 l 113 1092 l 350 1119 l 383 1101 l 321 611 m 353 -329 q 287 -301 311 -329 q 263 -231 263 -274 q 297 -144 263 -179 q 382 -110 331 -110 q 451 -135 428 -110 q 475 -204 475 -161 q 442 -293 475 -257 q 353 -329 410 -329 z "},"i":{"ha":447,"x_min":86,"x_max":417,"o":"m 279 139 q 278 122 278 132 q 301 89 278 89 q 329 97 314 89 q 368 125 344 106 l 386 82 q 316 18 363 50 q 203 -14 269 -14 q 118 8 149 -14 q 88 67 88 29 l 89 81 q 146 500 97 153 l 168 661 l 86 700 l 96 754 l 335 788 l 368 772 l 279 139 m 294 921 q 230 949 257 921 q 203 1015 203 978 q 237 1101 203 1067 q 324 1136 271 1136 q 392 1109 367 1136 q 417 1044 417 1082 q 385 956 417 992 q 294 921 353 921 z "},"ı":{"ha":447,"x_min":86,"x_max":386,"o":"m 279 139 q 278 122 278 132 q 301 89 278 89 q 329 97 314 89 q 368 125 344 106 l 386 82 q 316 18 363 50 q 203 -14 269 -14 q 118 8 149 -14 q 88 67 88 29 l 89 81 q 146 500 97 153 l 168 661 l 86 700 l 96 754 l 335 788 l 368 772 l 279 139 z "},"í":{"ha":447,"x_min":86,"x_max":525,"o":"m 279 139 q 278 122 278 132 q 301 89 278 89 q 329 97 314 89 q 368 125 344 106 l 386 82 q 316 18 363 50 q 203 -14 269 -14 q 118 8 149 -14 q 88 67 88 29 l 89 81 q 146 500 97 153 l 168 661 l 86 700 l 96 754 l 335 788 l 368 772 l 279 139 m 413 1224 l 525 1114 q 460 1042 513 1092 q 346 946 407 993 q 246 882 285 899 l 193 933 l 413 1224 z "},"ĭ":{"ha":447,"x_min":79,"x_max":518,"o":"m 279 139 q 278 122 278 132 q 301 89 278 89 q 329 97 314 89 q 368 125 344 106 l 386 82 q 316 18 363 50 q 203 -14 269 -14 q 118 8 149 -14 q 88 67 88 29 l 89 81 q 146 500 97 153 l 168 661 l 86 700 l 96 754 l 335 788 l 368 772 l 279 139 m 285 889 q 133 950 188 889 q 79 1099 79 1011 q 82 1136 79 1114 l 183 1136 l 185 1108 q 215 1042 188 1069 q 294 1014 242 1014 q 388 1048 363 1014 q 418 1136 413 1082 l 518 1136 l 518 1114 q 489 1006 515 1058 q 410 922 463 954 q 285 889 358 889 z "},"ǐ":{"ha":447,"x_min":86,"x_max":581,"o":"m 279 139 q 278 122 278 132 q 301 89 278 89 q 329 97 314 89 q 368 125 344 106 l 386 82 q 316 18 363 50 q 203 -14 269 -14 q 118 8 149 -14 q 88 67 88 29 l 89 81 q 146 500 97 153 l 168 661 l 86 700 l 96 754 l 335 788 l 368 772 l 279 139 m 160 1165 l 300 1008 l 519 1165 l 581 1128 l 340 882 l 231 882 l 89 1128 l 160 1165 z "},"î":{"ha":447,"x_min":81,"x_max":504,"o":"m 279 139 q 278 122 278 132 q 301 89 278 89 q 329 97 314 89 q 368 125 344 106 l 386 82 q 316 18 363 50 q 203 -14 269 -14 q 118 8 149 -14 q 88 67 88 29 l 89 81 q 146 500 97 153 l 168 661 l 86 700 l 96 754 l 335 788 l 368 772 l 279 139 m 311 1179 l 421 1113 l 504 906 l 400 928 l 240 990 l 81 888 l 97 982 l 311 1179 z "},"ï":{"ha":447,"x_min":53,"x_max":547,"o":"m 279 139 q 278 122 278 132 q 301 89 278 89 q 329 97 314 89 q 368 125 344 106 l 386 82 q 316 18 363 50 q 203 -14 269 -14 q 118 8 149 -14 q 88 67 88 29 l 89 81 q 146 500 97 153 l 168 661 l 86 700 l 96 754 l 335 788 l 368 772 l 279 139 m 138 911 q 78 940 104 911 q 53 1006 53 968 q 82 1092 53 1057 q 158 1126 111 1126 q 223 1099 199 1126 q 247 1035 247 1071 q 219 946 247 981 q 138 911 192 911 m 438 911 q 378 940 404 911 q 353 1006 353 968 q 382 1092 353 1057 q 458 1126 411 1126 q 522 1099 497 1126 q 547 1035 547 1071 q 519 946 547 981 q 438 911 490 911 z "},"ị":{"ha":447,"x_min":44,"x_max":417,"o":"m 279 139 q 278 122 278 132 q 301 89 278 89 q 329 97 314 89 q 368 125 344 106 l 386 82 q 316 18 363 50 q 203 -14 269 -14 q 118 8 149 -14 q 88 67 88 29 l 89 81 q 146 500 97 153 l 168 661 l 86 700 l 96 754 l 335 788 l 368 772 l 279 139 m 294 921 q 230 949 257 921 q 203 1015 203 978 q 237 1101 203 1067 q 324 1136 271 1136 q 392 1109 367 1136 q 417 1044 417 1082 q 385 956 417 992 q 294 921 353 921 m 135 -312 q 69 -285 93 -312 q 44 -214 44 -257 q 78 -128 44 -162 q 164 -93 113 -93 q 233 -119 210 -93 q 257 -187 257 -144 q 224 -276 257 -240 q 135 -312 192 -312 z "},"ì":{"ha":447,"x_min":49,"x_max":386,"o":"m 279 139 q 278 122 278 132 q 301 89 278 89 q 329 97 314 89 q 368 125 344 106 l 386 82 q 316 18 363 50 q 203 -14 269 -14 q 118 8 149 -14 q 88 67 88 29 l 89 81 q 146 500 97 153 l 168 661 l 86 700 l 96 754 l 335 788 l 368 772 l 279 139 m 306 889 q 166 990 256 914 q 49 1117 76 1067 l 167 1222 l 365 932 l 306 889 z "},"ỉ":{"ha":447,"x_min":86,"x_max":449,"o":"m 279 139 q 278 122 278 132 q 301 89 278 89 q 329 97 314 89 q 368 125 344 106 l 386 82 q 316 18 363 50 q 203 -14 269 -14 q 118 8 149 -14 q 88 67 88 29 l 89 81 q 146 500 97 153 l 168 661 l 86 700 l 96 754 l 335 788 l 368 772 l 279 139 m 229 858 q 214 888 221 869 q 208 922 207 907 q 222 947 211 938 q 254 972 232 957 q 288 996 275 985 q 307 1024 301 1007 l 307 1029 q 294 1068 310 1053 q 244 1085 279 1083 q 203 1082 208 1085 l 219 1194 q 242 1200 224 1197 q 276 1203 261 1203 q 403 1172 357 1203 q 449 1081 449 1142 q 444 1046 449 1065 q 416 991 439 1013 q 354 944 393 969 q 329 928 329 928 q 308 903 315 917 q 303 867 301 890 l 229 858 z "},"ĳ":{"ha":889,"x_min":86,"x_max":851,"o":"m 279 139 q 278 122 278 132 q 301 89 278 89 q 329 97 314 89 q 368 125 344 106 l 386 82 q 316 18 363 50 q 203 -14 269 -14 q 118 8 149 -14 q 88 67 88 29 l 89 81 q 146 500 97 153 l 168 661 l 86 700 l 96 754 l 335 788 l 368 772 l 279 139 m 294 921 q 230 949 257 921 q 203 1015 203 978 q 237 1101 203 1067 q 324 1136 271 1136 q 392 1109 367 1136 q 417 1044 417 1082 q 385 956 417 992 q 294 921 353 921 m 728 0 q 669 -191 714 -111 q 555 -313 624 -271 q 406 -356 486 -356 q 332 -349 365 -356 q 286 -331 299 -343 l 313 -256 q 340 -262 322 -260 q 375 -265 358 -265 q 493 -185 457 -265 q 546 43 529 -104 l 618 672 l 511 704 l 525 756 l 788 788 l 819 772 l 728 0 m 729 921 q 665 949 692 921 q 638 1015 638 978 q 672 1101 638 1067 q 758 1136 706 1136 q 826 1109 801 1136 q 851 1044 851 1082 q 819 956 851 992 q 729 921 788 921 z "},"ī":{"ha":447,"x_min":86,"x_max":489,"o":"m 279 139 q 278 122 278 132 q 301 89 278 89 q 329 97 314 89 q 368 125 344 106 l 386 82 q 316 18 363 50 q 203 -14 269 -14 q 118 8 149 -14 q 88 67 88 29 l 89 81 q 146 500 97 153 l 168 661 l 86 700 l 96 754 l 335 788 l 368 772 l 279 139 m 489 1038 l 475 915 l 99 915 l 113 1038 l 489 1038 z "},"į":{"ha":447,"x_min":-8,"x_max":407,"o":"m 308 1136 q 379 1109 351 1136 q 407 1044 407 1082 q 375 956 407 992 q 286 921 343 921 q 221 950 249 921 q 193 1017 193 979 q 225 1102 193 1068 q 308 1136 257 1136 m 279 139 q 278 122 278 132 q 301 89 278 89 q 329 97 314 89 q 368 125 344 106 l 386 82 q 356 48 376 67 q 308 14 335 29 q 196 -74 238 -33 q 153 -149 154 -114 q 199 -200 153 -200 q 249 -187 225 -200 q 304 -151 274 -175 l 325 -219 q 232 -286 285 -261 q 115 -311 179 -311 q 24 -281 56 -311 q -8 -203 -8 -251 q -1 -163 -8 -186 q 19 -122 7 -140 q 81 -56 49 -82 q 153 -7 113 -29 q 88 75 88 8 q 89 97 88 89 q 106 218 96 151 q 125 358 115 285 q 168 661 129 386 l 86 700 l 96 754 l 335 788 l 368 772 l 279 139 z "},"ĩ":{"ha":447,"x_min":51,"x_max":544,"o":"m 279 139 q 278 122 278 132 q 301 89 278 89 q 329 97 314 89 q 368 125 344 106 l 386 82 q 316 18 363 50 q 203 -14 269 -14 q 118 8 149 -14 q 88 67 88 29 l 89 81 q 146 500 97 153 l 168 661 l 86 700 l 96 754 l 335 788 l 368 772 l 279 139 m 51 989 q 115 1063 74 1032 q 204 1093 157 1093 q 269 1080 243 1093 q 322 1043 294 1067 q 360 1017 344 1025 q 394 1008 375 1008 q 447 1023 429 1008 q 492 1071 465 1038 l 544 1008 q 482 928 528 961 q 383 894 436 894 q 323 906 346 894 q 274 942 300 918 q 233 970 250 961 q 192 979 217 979 q 142 967 161 979 q 97 928 122 954 l 51 989 z "},"j":{"ha":442,"x_min":-161,"x_max":404,"o":"m 281 0 q 222 -191 267 -111 q 108 -313 176 -271 q -42 -356 39 -356 q -115 -349 -82 -356 q -161 -331 -149 -343 l -135 -256 q -107 -262 -125 -260 q -72 -265 -89 -265 q 46 -185 10 -265 q 99 43 82 -104 l 171 672 l 64 704 l 78 756 l 340 788 l 372 772 l 281 0 m 282 921 q 217 949 244 921 q 190 1015 190 978 q 224 1101 190 1067 q 311 1136 258 1136 q 379 1109 354 1136 q 404 1044 404 1082 q 372 956 404 992 q 282 921 340 921 z "},"ȷ":{"ha":442,"x_min":-161,"x_max":372,"o":"m 281 0 q 222 -191 267 -111 q 108 -313 176 -271 q -42 -356 39 -356 q -115 -349 -82 -356 q -161 -331 -149 -343 l -135 -256 q -107 -262 -125 -260 q -72 -265 -89 -265 q 46 -185 10 -265 q 99 43 82 -104 l 171 672 l 64 704 l 78 756 l 340 788 l 372 772 l 281 0 z "},"ĵ":{"ha":442,"x_min":-161,"x_max":492,"o":"m 281 0 q 222 -191 267 -111 q 108 -313 176 -271 q -42 -356 39 -356 q -115 -349 -82 -356 q -161 -331 -149 -343 l -135 -256 q -107 -262 -125 -260 q -72 -265 -89 -265 q 46 -185 10 -265 q 99 43 82 -104 l 171 672 l 64 704 l 78 756 l 340 788 l 372 772 l 281 0 m 299 1179 l 408 1113 l 492 906 l 388 928 l 228 990 l 68 888 l 85 982 l 299 1179 z "},"k":{"ha":764,"x_min":54,"x_max":781,"o":"m 385 1101 l 238 0 l 54 0 l 188 1013 l 103 1040 l 114 1092 l 350 1119 l 385 1101 m 333 435 q 438 503 394 469 q 524 593 481 536 q 561 704 558 642 q 592 767 563 747 q 658 786 622 786 q 715 764 694 786 q 736 708 736 742 q 701 607 738 658 q 598 514 664 558 q 461 436 532 469 l 611 167 q 648 122 628 138 q 685 106 668 106 q 720 113 700 106 q 758 136 740 121 l 781 92 q 701 22 757 57 q 581 -12 646 -12 q 502 7 532 -12 q 454 65 472 26 l 300 414 l 333 435 z "},"ķ":{"ha":764,"x_min":54,"x_max":781,"o":"m 385 1101 l 238 0 l 54 0 l 188 1013 l 103 1040 l 114 1092 l 350 1119 l 385 1101 m 333 435 q 438 503 394 469 q 524 593 481 536 q 561 704 558 642 q 592 767 563 747 q 658 786 622 786 q 715 764 694 786 q 736 708 736 742 q 701 607 738 658 q 598 514 664 558 q 461 436 532 469 l 611 167 q 648 122 628 138 q 685 106 668 106 q 720 113 700 106 q 758 136 740 121 l 781 92 q 701 22 757 57 q 581 -12 646 -12 q 502 7 532 -12 q 454 65 472 26 l 300 414 l 333 435 m 238 -335 q 265 -292 254 -322 q 274 -228 275 -262 q 263 -181 274 -203 q 233 -156 251 -160 l 233 -106 l 343 -51 q 403 -110 383 -69 q 424 -199 424 -150 q 406 -282 424 -243 q 360 -346 388 -321 q 306 -378 332 -371 l 238 -350 l 238 -335 z "},"ĸ":{"ha":792,"x_min":68,"x_max":788,"o":"m 347 769 l 249 0 l 68 0 l 157 664 l 83 699 l 94 754 l 314 786 l 347 769 m 617 165 q 651 122 631 139 q 688 104 671 104 q 721 112 701 104 q 758 132 740 119 l 781 88 q 700 20 753 53 q 583 -12 647 -12 q 505 7 533 -12 q 460 65 476 26 l 308 408 l 615 771 l 788 771 l 469 435 l 617 165 z "},"l":{"ha":424,"x_min":72,"x_max":392,"o":"m 261 139 q 260 124 260 133 q 285 89 260 89 q 312 96 297 89 q 351 125 326 103 l 369 82 q 304 18 347 50 q 193 -14 261 -14 q 107 8 140 -14 q 72 75 74 29 q 78 125 72 81 l 199 1013 l 111 1040 l 124 1092 l 360 1119 l 392 1101 l 261 139 z "},"ĺ":{"ha":424,"x_min":72,"x_max":525,"o":"m 261 139 q 260 124 260 133 q 285 89 260 89 q 312 96 297 89 q 351 125 326 103 l 369 82 q 304 18 347 50 q 193 -14 261 -14 q 107 8 140 -14 q 72 75 74 29 q 78 125 72 81 l 199 1013 l 111 1040 l 124 1092 l 360 1119 l 392 1101 l 261 139 m 421 1365 l 525 1278 q 414 1183 494 1236 q 282 1110 333 1129 l 208 1158 l 421 1365 z "},"ľ":{"ha":581,"x_min":72,"x_max":649,"o":"m 261 139 q 260 124 260 133 q 285 89 260 89 q 312 96 297 89 q 351 125 326 103 l 369 82 q 304 18 347 50 q 193 -14 261 -14 q 107 8 140 -14 q 72 75 74 29 q 78 125 72 81 l 199 1013 l 111 1040 l 124 1092 l 360 1119 l 392 1101 l 261 139 m 483 819 l 478 833 q 488 982 488 894 q 469 1107 488 1061 l 475 1136 l 636 1136 q 649 1031 649 1103 q 635 917 649 974 q 601 818 621 861 l 483 819 z "},"ļ":{"ha":424,"x_min":44,"x_max":392,"o":"m 261 139 q 260 124 260 133 q 285 89 260 89 q 312 96 297 89 q 351 125 326 103 l 369 82 q 304 18 347 50 q 193 -14 261 -14 q 107 8 140 -14 q 72 75 74 29 q 78 125 72 81 l 199 1013 l 111 1040 l 124 1092 l 360 1119 l 392 1101 l 261 139 m 49 -335 q 76 -292 65 -322 q 85 -228 86 -262 q 74 -181 85 -203 q 44 -156 63 -160 l 44 -106 l 154 -51 q 215 -110 194 -69 q 235 -199 235 -150 q 217 -282 235 -243 q 171 -346 199 -321 q 117 -378 143 -371 l 49 -350 l 49 -335 z "},"ŀ":{"ha":556,"x_min":72,"x_max":592,"o":"m 261 139 q 260 124 260 133 q 285 89 260 89 q 312 96 297 89 q 351 125 326 103 l 369 82 q 304 18 347 50 q 193 -14 261 -14 q 107 8 140 -14 q 72 75 74 29 q 78 125 72 81 l 199 1013 l 111 1040 l 124 1092 l 360 1119 l 392 1101 l 261 139 m 383 525 q 418 615 383 579 q 497 650 453 650 q 567 622 542 650 q 592 553 592 593 q 556 460 592 493 q 471 428 521 428 q 409 455 435 428 q 383 525 383 482 z "},"ḷ":{"ha":424,"x_min":22,"x_max":392,"o":"m 261 139 q 260 124 260 133 q 285 89 260 89 q 312 96 297 89 q 351 125 326 103 l 369 82 q 304 18 347 50 q 193 -14 261 -14 q 107 8 140 -14 q 72 75 74 29 q 78 125 72 81 l 199 1013 l 111 1040 l 124 1092 l 360 1119 l 392 1101 l 261 139 m 113 -329 q 47 -301 71 -329 q 22 -231 22 -274 q 56 -144 22 -179 q 142 -110 90 -110 q 211 -135 188 -110 q 235 -204 235 -161 q 202 -293 235 -257 q 113 -329 169 -329 z "},"ǉ":{"ha":865,"x_min":72,"x_max":828,"o":"m 261 139 q 260 124 260 133 q 285 89 260 89 q 312 96 297 89 q 351 125 326 103 l 369 82 q 304 18 347 50 q 193 -14 261 -14 q 107 8 140 -14 q 72 75 74 29 q 78 125 72 81 l 199 1013 l 111 1040 l 124 1092 l 360 1119 l 392 1101 l 261 139 m 704 0 q 645 -191 690 -111 q 531 -313 600 -271 q 382 -356 463 -356 q 308 -349 342 -356 q 263 -331 275 -343 l 289 -256 q 317 -262 299 -260 q 351 -265 335 -265 q 469 -185 433 -265 q 522 43 506 -104 l 594 672 l 488 704 l 501 756 l 764 788 l 796 772 l 704 0 m 706 921 q 641 949 668 921 q 614 1015 614 978 q 648 1101 614 1067 q 735 1136 682 1136 q 803 1109 778 1136 q 828 1044 828 1082 q 796 956 828 992 q 706 921 764 921 z "},"ł":{"ha":444,"x_min":46,"x_max":475,"o":"m 269 139 q 268 122 268 133 q 292 89 268 89 q 319 97 304 89 q 358 125 335 104 l 376 82 q 310 19 356 51 q 201 -14 265 -14 q 115 8 149 -14 q 81 75 81 31 q 85 125 81 92 l 146 550 l 46 511 l 46 597 l 157 643 l 206 1013 l 119 1040 l 132 1092 l 367 1119 l 399 1101 l 349 721 l 475 772 l 475 681 l 338 625 l 269 139 z "},"m":{"ha":1314,"x_min":68,"x_max":1257,"o":"m 332 619 q 451 742 382 694 q 597 789 521 789 q 719 748 675 789 q 769 617 763 707 q 888 743 818 697 q 1040 789 958 789 q 1214 585 1214 789 q 1186 379 1214 540 l 1181 343 l 1174 307 q 1149 129 1150 178 q 1172 89 1149 89 q 1199 97 1185 89 q 1239 125 1214 104 l 1257 82 q 1189 19 1238 53 q 1072 -14 1140 -14 q 982 13 1007 -14 q 957 83 957 39 q 965 165 957 111 q 983 272 974 218 l 989 304 q 1013 453 1006 399 q 1021 558 1021 507 q 1006 646 1021 622 q 956 669 992 669 q 859 626 911 669 q 769 517 807 583 q 751 343 764 435 l 708 0 l 521 0 l 561 303 q 586 564 586 475 q 569 649 585 628 q 513 669 553 669 q 412 621 468 669 q 318 504 356 572 l 249 0 l 68 0 l 157 661 l 86 699 l 97 756 l 314 789 l 346 774 l 332 619 z "},"ḿ":{"ha":1314,"x_min":68,"x_max":1257,"o":"m 332 619 q 451 742 382 694 q 597 789 521 789 q 719 748 675 789 q 769 617 763 707 q 888 743 818 697 q 1040 789 958 789 q 1214 585 1214 789 q 1186 379 1214 540 l 1181 343 l 1174 307 q 1149 129 1150 178 q 1172 89 1149 89 q 1199 97 1185 89 q 1239 125 1214 104 l 1257 82 q 1189 19 1238 53 q 1072 -14 1140 -14 q 982 13 1007 -14 q 957 83 957 39 q 965 165 957 111 q 983 272 974 218 l 989 304 q 1013 453 1006 399 q 1021 558 1021 507 q 1006 646 1021 622 q 956 669 992 669 q 859 626 911 669 q 769 517 807 583 q 751 343 764 435 l 708 0 l 521 0 l 561 303 q 586 564 586 475 q 569 649 585 628 q 513 669 553 669 q 412 621 468 669 q 318 504 356 572 l 249 0 l 68 0 l 157 661 l 86 699 l 97 756 l 314 789 l 346 774 l 332 619 m 886 1224 l 999 1114 q 933 1042 986 1092 q 819 946 881 993 q 719 882 758 899 l 667 933 l 886 1224 z "},"ṁ":{"ha":1314,"x_min":68,"x_max":1257,"o":"m 332 619 q 451 742 382 694 q 597 789 521 789 q 719 748 675 789 q 769 617 763 707 q 888 743 818 697 q 1040 789 958 789 q 1214 585 1214 789 q 1186 379 1214 540 l 1181 343 l 1174 307 q 1149 129 1150 178 q 1172 89 1149 89 q 1199 97 1185 89 q 1239 125 1214 104 l 1257 82 q 1189 19 1238 53 q 1072 -14 1140 -14 q 982 13 1007 -14 q 957 83 957 39 q 965 165 957 111 q 983 272 974 218 l 989 304 q 1013 453 1006 399 q 1021 558 1021 507 q 1006 646 1021 622 q 956 669 992 669 q 859 626 911 669 q 769 517 807 583 q 751 343 764 435 l 708 0 l 521 0 l 561 303 q 586 564 586 475 q 569 649 585 628 q 513 669 553 669 q 412 621 468 669 q 318 504 356 572 l 249 0 l 68 0 l 157 661 l 86 699 l 97 756 l 314 789 l 346 774 l 332 619 m 764 913 q 698 942 726 913 q 669 1011 669 971 q 702 1098 669 1064 q 788 1132 735 1132 q 858 1105 831 1132 q 886 1040 886 1078 q 855 947 886 982 q 764 913 824 913 z "},"n":{"ha":875,"x_min":68,"x_max":814,"o":"m 332 621 q 454 743 383 697 q 603 789 525 789 q 775 585 775 789 q 740 343 775 531 q 731 288 735 307 q 710 129 711 178 l 710 124 q 732 89 710 89 q 758 96 744 89 q 794 121 772 103 l 814 78 q 746 17 793 49 q 631 -14 699 -14 q 540 15 565 -14 q 515 90 515 43 q 542 256 517 132 l 550 303 q 562 369 553 315 q 576 473 571 424 q 582 558 582 522 q 567 646 582 622 q 515 669 553 669 q 413 618 469 669 q 317 494 357 567 l 250 0 l 68 0 l 157 661 l 86 699 l 97 756 l 314 789 l 346 774 l 332 621 z "},"ń":{"ha":875,"x_min":68,"x_max":814,"o":"m 332 621 q 454 743 383 697 q 603 789 525 789 q 775 585 775 789 q 740 343 775 531 q 731 288 735 307 q 710 129 711 178 l 710 124 q 732 89 710 89 q 758 96 744 89 q 794 121 772 103 l 814 78 q 746 17 793 49 q 631 -14 699 -14 q 540 15 565 -14 q 515 90 515 43 q 542 256 517 132 l 550 303 q 562 369 553 315 q 576 473 571 424 q 582 558 582 522 q 567 646 582 622 q 515 669 553 669 q 413 618 469 669 q 317 494 357 567 l 250 0 l 68 0 l 157 661 l 86 699 l 97 756 l 314 789 l 346 774 l 332 621 m 610 1224 l 722 1114 q 657 1042 710 1092 q 543 946 604 993 q 443 882 482 899 l 390 933 l 610 1224 z "},"ň":{"ha":875,"x_min":68,"x_max":814,"o":"m 332 621 q 454 743 383 697 q 603 789 525 789 q 775 585 775 789 q 740 343 775 531 q 731 288 735 307 q 710 129 711 178 l 710 124 q 732 89 710 89 q 758 96 744 89 q 794 121 772 103 l 814 78 q 746 17 793 49 q 631 -14 699 -14 q 540 15 565 -14 q 515 90 515 43 q 542 256 517 132 l 550 303 q 562 369 553 315 q 576 473 571 424 q 582 558 582 522 q 567 646 582 622 q 515 669 553 669 q 413 618 469 669 q 317 494 357 567 l 250 0 l 68 0 l 157 661 l 86 699 l 97 756 l 314 789 l 346 774 l 332 621 m 357 1165 l 497 1008 l 717 1165 l 778 1128 l 538 882 l 428 882 l 286 1128 l 357 1165 z "},"ņ":{"ha":875,"x_min":68,"x_max":814,"o":"m 332 621 q 454 743 383 697 q 603 789 525 789 q 775 585 775 789 q 740 343 775 531 q 731 288 735 307 q 710 129 711 178 l 710 124 q 732 89 710 89 q 758 96 744 89 q 794 121 772 103 l 814 78 q 746 17 793 49 q 631 -14 699 -14 q 540 15 565 -14 q 515 90 515 43 q 542 256 517 132 l 550 303 q 562 369 553 315 q 576 473 571 424 q 582 558 582 522 q 567 646 582 622 q 515 669 553 669 q 413 618 469 669 q 317 494 357 567 l 250 0 l 68 0 l 157 661 l 86 699 l 97 756 l 314 789 l 346 774 l 332 621 m 290 -335 q 317 -292 307 -322 q 326 -228 328 -262 q 315 -181 326 -203 q 286 -156 304 -160 l 286 -106 l 396 -51 q 456 -110 436 -69 q 476 -199 476 -150 q 458 -282 476 -243 q 413 -346 440 -321 q 358 -378 385 -371 l 290 -350 l 290 -335 z "},"ṅ":{"ha":875,"x_min":68,"x_max":814,"o":"m 332 621 q 454 743 383 697 q 603 789 525 789 q 775 585 775 789 q 740 343 775 531 q 731 288 735 307 q 710 129 711 178 l 710 124 q 732 89 710 89 q 758 96 744 89 q 794 121 772 103 l 814 78 q 746 17 793 49 q 631 -14 699 -14 q 540 15 565 -14 q 515 90 515 43 q 542 256 517 132 l 550 303 q 562 369 553 315 q 576 473 571 424 q 582 558 582 522 q 567 646 582 622 q 515 669 553 669 q 413 618 469 669 q 317 494 357 567 l 250 0 l 68 0 l 157 661 l 86 699 l 97 756 l 314 789 l 346 774 l 332 621 m 488 913 q 422 942 450 913 q 393 1011 393 971 q 426 1098 393 1064 q 511 1132 458 1132 q 582 1105 554 1132 q 610 1040 610 1078 q 578 947 610 982 q 488 913 547 913 z "},"ṇ":{"ha":875,"x_min":68,"x_max":814,"o":"m 332 621 q 454 743 383 697 q 603 789 525 789 q 775 585 775 789 q 740 343 775 531 q 731 288 735 307 q 710 129 711 178 l 710 124 q 732 89 710 89 q 758 96 744 89 q 794 121 772 103 l 814 78 q 746 17 793 49 q 631 -14 699 -14 q 540 15 565 -14 q 515 90 515 43 q 542 256 517 132 l 550 303 q 562 369 553 315 q 576 473 571 424 q 582 558 582 522 q 567 646 582 622 q 515 669 553 669 q 413 618 469 669 q 317 494 357 567 l 250 0 l 68 0 l 157 661 l 86 699 l 97 756 l 314 789 l 346 774 l 332 621 m 354 -329 q 288 -301 313 -329 q 264 -231 264 -274 q 298 -144 264 -179 q 383 -110 332 -110 q 453 -135 429 -110 q 476 -204 476 -161 q 444 -293 476 -257 q 354 -329 411 -329 z "},"ŋ":{"ha":868,"x_min":68,"x_max":782,"o":"m 332 621 q 451 741 382 694 q 603 788 521 788 q 734 740 686 788 q 775 583 782 693 q 704 0 744 200 q 635 -211 678 -135 q 529 -320 593 -287 q 369 -353 465 -353 q 303 -346 333 -353 q 261 -328 272 -339 l 285 -257 q 311 -264 294 -261 q 339 -267 328 -267 q 460 -197 419 -267 q 521 11 500 -126 q 582 567 546 163 q 515 669 590 669 q 417 622 472 669 q 317 493 361 575 l 250 0 l 68 0 l 157 658 l 86 696 l 97 751 l 314 785 l 346 769 l 332 621 z "},"ǌ":{"ha":1317,"x_min":68,"x_max":1279,"o":"m 332 621 q 454 743 383 697 q 603 789 525 789 q 775 585 775 789 q 740 343 775 531 q 731 288 735 307 q 710 129 711 178 l 710 124 q 732 89 710 89 q 758 96 744 89 q 794 121 772 103 l 814 78 q 746 17 793 49 q 631 -14 699 -14 q 540 15 565 -14 q 515 90 515 43 q 542 256 517 132 l 550 303 q 562 369 553 315 q 576 473 571 424 q 582 558 582 522 q 567 646 582 622 q 515 669 553 669 q 413 618 469 669 q 317 494 357 567 l 250 0 l 68 0 l 157 661 l 86 699 l 97 756 l 314 789 l 346 774 l 332 621 m 1156 0 q 1097 -191 1142 -111 q 983 -313 1051 -271 q 833 -356 914 -356 q 760 -349 793 -356 q 714 -331 726 -343 l 740 -256 q 768 -262 750 -260 q 803 -265 786 -265 q 921 -185 885 -265 q 974 43 957 -104 l 1046 672 l 939 704 l 953 756 l 1215 788 l 1247 772 l 1156 0 m 1157 921 q 1092 949 1119 921 q 1065 1015 1065 978 q 1099 1101 1065 1067 q 1186 1136 1133 1136 q 1254 1109 1229 1136 q 1279 1044 1279 1082 q 1247 956 1279 992 q 1157 921 1215 921 z "},"ñ":{"ha":875,"x_min":68,"x_max":814,"o":"m 332 621 q 454 743 383 697 q 603 789 525 789 q 775 585 775 789 q 740 343 775 531 q 731 288 735 307 q 710 129 711 178 l 710 124 q 732 89 710 89 q 758 96 744 89 q 794 121 772 103 l 814 78 q 746 17 793 49 q 631 -14 699 -14 q 540 15 565 -14 q 515 90 515 43 q 542 256 517 132 l 550 303 q 562 369 553 315 q 576 473 571 424 q 582 558 582 522 q 567 646 582 622 q 515 669 553 669 q 413 618 469 669 q 317 494 357 567 l 250 0 l 68 0 l 157 661 l 86 699 l 97 756 l 314 789 l 346 774 l 332 621 m 249 989 q 313 1063 271 1032 q 401 1093 354 1093 q 466 1080 440 1093 q 519 1043 492 1067 q 557 1017 542 1025 q 592 1008 572 1008 q 644 1023 626 1008 q 689 1071 663 1038 l 742 1008 q 679 928 725 961 q 581 894 633 894 q 520 906 543 894 q 471 942 497 918 q 431 970 447 961 q 389 979 414 979 q 339 967 358 979 q 294 928 319 954 l 249 989 z "},"o":{"ha":818,"x_min":51,"x_max":768,"o":"m 471 790 q 692 706 615 790 q 768 465 768 622 q 715 225 768 336 q 567 48 663 114 q 347 -18 471 -18 q 127 67 203 -18 q 51 311 51 153 q 103 551 51 442 q 251 726 156 661 q 471 790 347 790 m 447 703 q 339 645 383 703 q 273 499 294 588 q 251 317 251 410 q 281 124 251 185 q 375 63 311 63 q 481 121 438 63 q 544 269 524 179 q 565 454 565 360 q 537 644 565 586 q 447 703 508 703 z "},"ó":{"ha":800,"x_min":51,"x_max":789,"o":"m 681 1215 l 789 1106 q 725 1033 776 1083 q 613 937 674 983 q 514 874 553 890 l 461 925 l 681 1215 m 471 790 q 692 706 615 790 q 768 465 768 622 q 715 225 768 336 q 567 48 663 114 q 347 -18 471 -18 q 127 67 203 -18 q 51 311 51 153 q 103 551 51 442 q 251 726 156 661 q 471 790 347 790 m 447 703 q 339 645 383 703 q 273 499 294 588 q 251 317 251 410 q 281 124 251 185 q 375 63 311 63 q 481 121 438 63 q 544 269 524 179 q 565 454 565 360 q 537 644 565 586 q 447 703 508 703 z "},"ŏ":{"ha":818,"x_min":51,"x_max":768,"o":"m 471 790 q 692 706 615 790 q 768 465 768 622 q 715 225 768 336 q 567 48 663 114 q 347 -18 471 -18 q 127 67 203 -18 q 51 311 51 153 q 103 551 51 442 q 251 726 156 661 q 471 790 347 790 m 447 703 q 339 645 383 703 q 273 499 294 588 q 251 317 251 410 q 281 124 251 185 q 375 63 311 63 q 481 121 438 63 q 544 269 524 179 q 565 454 565 360 q 537 644 565 586 q 447 703 508 703 m 492 899 q 340 960 394 899 q 286 1108 286 1021 q 289 1146 286 1124 l 390 1146 l 392 1118 q 422 1051 394 1079 q 501 1024 449 1024 q 594 1058 569 1024 q 625 1146 619 1092 l 725 1146 l 725 1124 q 696 1016 722 1068 q 617 931 669 964 q 492 899 565 899 z "},"ǒ":{"ha":818,"x_min":51,"x_max":788,"o":"m 471 790 q 692 706 615 790 q 768 465 768 622 q 715 225 768 336 q 567 48 663 114 q 347 -18 471 -18 q 127 67 203 -18 q 51 311 51 153 q 103 551 51 442 q 251 726 156 661 q 471 790 347 790 m 447 703 q 339 645 383 703 q 273 499 294 588 q 251 317 251 410 q 281 124 251 185 q 375 63 311 63 q 481 121 438 63 q 544 269 524 179 q 565 454 565 360 q 537 644 565 586 q 447 703 508 703 m 367 1175 l 507 1018 l 726 1175 l 788 1138 l 547 892 l 438 892 l 296 1138 l 367 1175 z "},"ô":{"ha":818,"x_min":51,"x_max":768,"o":"m 471 790 q 692 706 615 790 q 768 465 768 622 q 715 225 768 336 q 567 48 663 114 q 347 -18 471 -18 q 127 67 203 -18 q 51 311 51 153 q 103 551 51 442 q 251 726 156 661 q 471 790 347 790 m 447 703 q 339 645 383 703 q 273 499 294 588 q 251 317 251 410 q 281 124 251 185 q 375 63 311 63 q 481 121 438 63 q 544 269 524 179 q 565 454 565 360 q 537 644 565 586 q 447 703 508 703 m 518 1189 l 628 1122 l 711 915 l 607 938 l 447 1000 l 288 897 l 304 992 l 518 1189 z "},"ố":{"ha":818,"x_min":51,"x_max":999,"o":"m 471 790 q 692 706 615 790 q 768 465 768 622 q 715 225 768 336 q 567 48 663 114 q 347 -18 471 -18 q 127 67 203 -18 q 51 311 51 153 q 103 551 51 442 q 251 726 156 661 q 471 790 347 790 m 447 703 q 339 645 383 703 q 273 499 294 588 q 251 317 251 410 q 281 124 251 185 q 375 63 311 63 q 481 121 438 63 q 544 269 524 179 q 565 454 565 360 q 537 644 565 586 q 447 703 508 703 m 693 1157 l 907 1374 l 999 1282 q 880 1177 963 1240 q 747 1096 797 1114 l 693 1157 m 586 1150 l 746 935 l 665 886 l 510 1022 l 304 886 l 247 932 l 475 1150 l 586 1150 z "},"ộ":{"ha":818,"x_min":51,"x_max":768,"o":"m 471 790 q 692 706 615 790 q 768 465 768 622 q 715 225 768 336 q 567 48 663 114 q 347 -18 471 -18 q 127 67 203 -18 q 51 311 51 153 q 103 551 51 442 q 251 726 156 661 q 471 790 347 790 m 447 703 q 339 645 383 703 q 273 499 294 588 q 251 317 251 410 q 281 124 251 185 q 375 63 311 63 q 481 121 438 63 q 544 269 524 179 q 565 454 565 360 q 537 644 565 586 q 447 703 508 703 m 301 -342 q 235 -314 260 -342 q 211 -243 211 -286 q 245 -157 211 -192 q 331 -122 279 -122 q 400 -148 376 -122 q 424 -217 424 -174 q 391 -306 424 -269 q 301 -342 358 -342 m 518 1189 l 628 1122 l 711 915 l 607 938 l 447 1000 l 288 897 l 304 992 l 518 1189 z "},"ồ":{"ha":818,"x_min":51,"x_max":888,"o":"m 471 790 q 692 706 615 790 q 768 465 768 622 q 715 225 768 336 q 567 48 663 114 q 347 -18 471 -18 q 127 67 203 -18 q 51 311 51 153 q 103 551 51 442 q 251 726 156 661 q 471 790 347 790 m 447 703 q 339 645 383 703 q 273 499 294 588 q 251 317 251 410 q 281 124 251 185 q 375 63 311 63 q 481 121 438 63 q 544 269 524 179 q 565 454 565 360 q 537 644 565 586 q 447 703 508 703 m 815 1111 q 717 1183 772 1129 q 631 1285 661 1236 l 753 1375 l 888 1171 l 815 1111 m 583 1150 l 743 935 l 663 886 l 508 1022 l 301 886 l 244 932 l 474 1150 l 583 1150 z "},"ổ":{"ha":818,"x_min":51,"x_max":946,"o":"m 471 790 q 692 706 615 790 q 768 465 768 622 q 715 225 768 336 q 567 48 663 114 q 347 -18 471 -18 q 127 67 203 -18 q 51 311 51 153 q 103 551 51 442 q 251 726 156 661 q 471 790 347 790 m 447 703 q 339 645 383 703 q 273 499 294 588 q 251 317 251 410 q 281 124 251 185 q 375 63 311 63 q 481 121 438 63 q 544 269 524 179 q 565 454 565 360 q 537 644 565 586 q 447 703 508 703 m 753 1028 q 738 1083 735 1060 q 751 1105 740 1096 q 779 1125 761 1114 q 810 1146 799 1136 q 826 1169 821 1156 l 826 1174 q 775 1221 826 1219 l 765 1221 q 738 1218 746 1221 l 757 1314 q 776 1318 760 1315 q 804 1321 792 1321 q 908 1296 871 1321 q 946 1222 946 1271 q 942 1188 946 1207 q 915 1142 935 1160 q 864 1103 896 1124 q 853 1097 860 1100 q 840 1088 847 1093 q 822 1066 828 1078 q 817 1035 815 1054 l 753 1028 m 582 1150 l 742 935 l 661 886 l 507 1022 l 300 886 l 243 932 l 472 1150 l 582 1150 z "},"ỗ":{"ha":818,"x_min":51,"x_max":768,"o":"m 471 790 q 692 706 615 790 q 768 465 768 622 q 715 225 768 336 q 567 48 663 114 q 347 -18 471 -18 q 127 67 203 -18 q 51 311 51 153 q 103 551 51 442 q 251 726 156 661 q 471 790 347 790 m 447 703 q 339 645 383 703 q 273 499 294 588 q 251 317 251 410 q 281 124 251 185 q 375 63 311 63 q 481 121 438 63 q 544 269 524 179 q 565 454 565 360 q 537 644 565 586 q 447 703 508 703 m 324 1246 q 392 1336 349 1300 q 489 1372 435 1372 q 538 1362 518 1372 q 579 1332 557 1351 q 610 1309 599 1317 q 640 1301 622 1301 q 678 1313 664 1301 q 708 1346 693 1324 l 761 1317 q 694 1226 735 1260 q 600 1192 654 1192 q 553 1201 572 1192 q 511 1231 535 1211 q 478 1255 492 1247 q 447 1263 465 1263 q 410 1252 424 1263 q 376 1218 397 1242 l 324 1246 m 585 1150 l 744 935 l 664 886 l 510 1022 l 303 886 l 246 932 l 475 1150 l 585 1150 z "},"ö":{"ha":818,"x_min":51,"x_max":768,"o":"m 471 790 q 692 706 615 790 q 768 465 768 622 q 715 225 768 336 q 567 48 663 114 q 347 -18 471 -18 q 127 67 203 -18 q 51 311 51 153 q 103 551 51 442 q 251 726 156 661 q 471 790 347 790 m 447 703 q 339 645 383 703 q 273 499 294 588 q 251 317 251 410 q 281 124 251 185 q 375 63 311 63 q 481 121 438 63 q 544 269 524 179 q 565 454 565 360 q 537 644 565 586 q 447 703 508 703 m 344 921 q 285 949 311 921 q 260 1015 260 978 q 289 1101 260 1067 q 365 1136 318 1136 q 430 1108 406 1136 q 454 1044 454 1081 q 426 956 454 990 q 344 921 399 921 m 644 921 q 585 949 611 921 q 560 1015 560 978 q 589 1101 560 1067 q 665 1136 618 1136 q 729 1108 704 1136 q 754 1044 754 1081 q 726 956 754 990 q 644 921 697 921 z "},"ọ":{"ha":818,"x_min":51,"x_max":768,"o":"m 471 790 q 692 706 615 790 q 768 465 768 622 q 715 225 768 336 q 567 48 663 114 q 347 -18 471 -18 q 127 67 203 -18 q 51 311 51 153 q 103 551 51 442 q 251 726 156 661 q 471 790 347 790 m 447 703 q 339 645 383 703 q 273 499 294 588 q 251 317 251 410 q 281 124 251 185 q 375 63 311 63 q 481 121 438 63 q 544 269 524 179 q 565 454 565 360 q 537 644 565 586 q 447 703 508 703 m 301 -342 q 235 -314 260 -342 q 211 -243 211 -286 q 245 -157 211 -192 q 331 -122 279 -122 q 400 -148 376 -122 q 424 -217 424 -174 q 391 -306 424 -269 q 301 -342 358 -342 z "},"ò":{"ha":818,"x_min":51,"x_max":768,"o":"m 471 790 q 692 706 615 790 q 768 465 768 622 q 715 225 768 336 q 567 48 663 114 q 347 -18 471 -18 q 127 67 203 -18 q 51 311 51 153 q 103 551 51 442 q 251 726 156 661 q 471 790 347 790 m 447 703 q 339 645 383 703 q 273 499 294 588 q 251 317 251 410 q 281 124 251 185 q 375 63 311 63 q 481 121 438 63 q 544 269 524 179 q 565 454 565 360 q 537 644 565 586 q 447 703 508 703 m 513 899 q 373 1000 463 924 q 256 1126 283 1076 l 374 1232 l 572 942 l 513 899 z "},"ỏ":{"ha":818,"x_min":51,"x_max":768,"o":"m 471 790 q 692 706 615 790 q 768 465 768 622 q 715 225 768 336 q 567 48 663 114 q 347 -18 471 -18 q 127 67 203 -18 q 51 311 51 153 q 103 551 51 442 q 251 726 156 661 q 471 790 347 790 m 447 703 q 339 645 383 703 q 273 499 294 588 q 251 317 251 410 q 281 124 251 185 q 375 63 311 63 q 481 121 438 63 q 544 269 524 179 q 565 454 565 360 q 537 644 565 586 q 447 703 508 703 m 436 868 q 421 898 428 879 q 415 932 414 917 q 428 957 418 947 q 461 982 439 967 q 495 1006 482 994 q 514 1033 508 1017 l 514 1039 q 501 1078 517 1063 q 451 1094 486 1093 q 410 1092 415 1094 l 426 1204 q 449 1210 431 1207 q 483 1213 468 1213 q 610 1182 564 1213 q 656 1090 656 1151 q 651 1056 656 1075 q 623 1001 646 1022 q 561 954 600 979 q 536 938 536 938 q 515 913 522 926 q 510 876 508 900 l 436 868 z "},"ơ":{"ha":818,"x_min":51,"x_max":883,"o":"m 347 -18 q 127 67 203 -18 q 51 311 51 153 q 103 551 51 442 q 251 726 156 661 q 471 790 347 790 q 590 771 536 790 q 698 805 665 776 q 731 882 731 833 l 731 903 l 883 903 l 879 857 q 823 747 868 783 q 701 693 778 710 q 768 465 768 610 q 715 225 768 336 q 567 48 663 114 q 347 -18 471 -18 m 251 317 q 281 124 251 185 q 375 63 311 63 q 481 121 438 63 q 544 269 524 179 q 565 454 565 360 q 537 644 565 586 q 447 703 508 703 q 339 645 383 703 q 273 499 294 588 q 251 317 251 410 z "},"ớ":{"ha":818,"x_min":51,"x_max":883,"o":"m 347 -18 q 127 67 203 -18 q 51 311 51 153 q 103 551 51 442 q 251 726 156 661 q 471 790 347 790 q 590 771 536 790 q 698 805 665 776 q 731 882 731 833 l 731 903 l 883 903 l 879 857 q 823 747 868 783 q 701 693 778 710 q 768 465 768 610 q 715 225 768 336 q 567 48 663 114 q 347 -18 471 -18 m 251 317 q 281 124 251 185 q 375 63 311 63 q 481 121 438 63 q 544 269 524 179 q 565 454 565 360 q 537 644 565 586 q 447 703 508 703 q 339 645 383 703 q 273 499 294 588 q 251 317 251 410 m 619 1233 l 732 1124 q 667 1052 719 1101 q 553 956 614 1003 q 453 892 492 908 l 400 943 l 619 1233 z "}}}
